<?xml version="1.0" standalone="no"?>
<!DOCTYPE svg PUBLIC "-//W3C//DTD SVG 1.1//EN" "http://www.w3.org/Graphics/SVG/1.1/DTD/svg11.dtd" >
<svg xmlns="http://www.w3.org/2000/svg">
<metadata></metadata>
<defs>
<font id="VAGRoundedLightSSiBold" horiz-adv-x="1062" >
<font-face units-per-em="2048" ascent="1638" descent="-410" />
<missing-glyph horiz-adv-x="489" />
<glyph horiz-adv-x="0" />
<glyph horiz-adv-x="2048" />
<glyph unicode="&#xd;" horiz-adv-x="489" />
<glyph unicode=" "  horiz-adv-x="489" />
<glyph unicode="&#x09;" horiz-adv-x="489" />
<glyph unicode="&#xa0;" horiz-adv-x="489" />
<glyph unicode="!" horiz-adv-x="446" d="M119 92q0 43 30.5 75t73.5 32t74 -32t31 -75t-31 -73.5t-74 -30.5t-73.5 30.5t-30.5 73.5zM133 492v897q0 96 90 96t90 -96v-897q0 -96 -90 -97q-90 0 -90 97z" />
<glyph unicode="&#x22;" horiz-adv-x="722" d="M131 1114v283q0 88 84 88t84 -88v-283q0 -88 -84 -88t-84 88zM422 1114v283q0 88 84 88t84 -88v-283q0 -88 -84 -88t-84 88z" />
<glyph unicode="#" horiz-adv-x="1067" d="M14 515q0 73 127 73l101 -4l43 305l-88 -4q-121 0 -121 72.5t129 72.5l98 -4q8 129 16 256q27 203 115 203q70 0 70 -75t-51 -384h243q8 129 17 256q27 203 114 203q70 0 70 -70q0 -98 -51 -389l86 4q123 0 123 -73t-127 -72l-101 4l-43 -305l86 4q123 0 123 -73 t-129 -73l-98 4q-8 -129 -18 -256q-27 -203 -113 -202q-70 0 -70 76t51 382h-243q-8 -129 -19 -256q-27 -203 -112 -202q-70 0 -70 69q0 101 51 389l-86 -4q-123 0 -123 73zM391 584h244l43 305h-244z" />
<glyph unicode="$" horiz-adv-x="903" d="M2 171q0 87 72 87q23 0 128 -56.5t204 -56.5v572q-195 68 -271 127q-119 96 -119 254t118 265t272 122q-6 141 43 141t43 -141q98 -8 188 -45q125 -49 125 -127q0 -33 -22.5 -56.5t-53.5 -23.5t-111.5 44t-125.5 50v-453q205 -72 284 -139q125 -104 125 -283 t-114.5 -306.5t-294.5 -149.5q6 -150 -43 -150t-43 142q-109 0 -238 43q-166 53 -166 140zM209 1118q0 -133 197 -211v420q-86 -10 -141.5 -66.5t-55.5 -142.5zM492 156q104 23 160.5 101t56.5 187q0 160 -217 242v-530z" />
<glyph unicode="%" horiz-adv-x="1427" d="M41 1135q0 147 83 248.5t228 101.5t228.5 -101.5t83.5 -248.5t-84 -247.5t-228 -101.5q-143 0 -227 100.5t-84 248.5zM176 1135q0 -96 43 -167t133 -71t133 71t43 167t-43 167.5t-133 71.5t-133 -72t-43 -167zM354 27q0 55 209 552t365 861q25 61 71 61q72 0 72 -53 t-209 -552t-364 -863q-25 -61 -84.5 -61.5t-59.5 55.5zM764 338q0 147 83 247.5t228 100.5t228 -100.5t83 -247.5t-82.5 -248.5t-228.5 -101.5q-145 0 -228 101t-83 249zM899 338q0 -96 43 -168t133 -72t133 72t43 168t-43 167t-133 70q-90 0 -133 -70t-43 -167z" />
<glyph unicode="&#x26;" horiz-adv-x="1286" d="M35 407.5q0 180.5 79 285t246 204.5q-162 170 -161 289q0 154 98 226.5t239.5 72.5t239.5 -71t98 -189q0 -211 -262 -363l326 -389q49 78 113.5 176.5t101.5 98.5q76 0 76 -64q0 -100 -191 -330q61 -72 123 -141q92 -111 92 -147t-21.5 -57t-51.5 -21q-47 0 -133 98 q-57 70 -113 139q-186 -238 -451 -237q-190 0 -319 119.5t-129 300zM215 431q0 -124 77 -198.5t208 -74.5q178 0 334 188l-373 434q-121 -70 -183.5 -147.5t-62.5 -201.5zM379 1193.5q0 -66.5 135 -216.5q193 111 193 217q0 68 -49.5 106.5t-119 38.5t-114.5 -39.5t-45 -106 z" />
<glyph unicode="'" horiz-adv-x="444" d="M137 1114v283q0 88 84 88t84 -88v-283q0 -88 -84 -88t-84 88z" />
<glyph unicode="(" horiz-adv-x="370" d="M45 657q0 209 43 480q61 385 166 385q72 0 72 -60q0 -18 -29 -108q-84 -262 -84 -694.5t84 -696.5q29 -90 29 -110q0 -59 -72 -60q-104 0 -166 385q-43 270 -43 479z" />
<glyph unicode=")" horiz-adv-x="512" d="M117 -147q0 20 28 110q84 264 84 696t-84 695q-29 90 -28 108q0 59 71 60q104 0 166 -385q43 -271 43 -480t-43 -479q-61 -385 -166 -385q-72 0 -71 60z" />
<glyph unicode="*" horiz-adv-x="700" d="M29 977q0 53 92 92q70 25 137 49q-68 25 -135 49q-94 43 -94 95q0 29 21.5 49t52 20t90 -47t106.5 -86l-23 215q0 72 74 72t74 -72q0 -37 -11.5 -107.5t-11.5 -107.5q49 39 109 86t89.5 47t51 -20.5t21.5 -48.5q0 -51 -92 -95q-68 -25 -138 -49q70 -25 138 -49 q92 -39 92 -92q0 -29 -21.5 -50.5t-51.5 -21.5t-89 48.5t-109 86.5l23 -215q0 -72 -74 -71q-74 0 -74 71q0 37 11.5 108t11.5 107q-47 -39 -107.5 -86.5t-90.5 -48t-51 21t-21 50.5z" />
<glyph unicode="+" horiz-adv-x="1148" d="M55 524q0 98 199 99l235 -15l-14 240q0 199 99 199t100 -199q0 -51 -8.5 -136t-8.5 -104l238 15q197 -1 197 -99q0 -86 -88 -86h-347q0 -18 8.5 -103t8.5 -136q0 -199 -99.5 -199t-99.5 199l14 239h-346q-88 0 -88 86z" />
<glyph unicode="," horiz-adv-x="458" d="M72 -176q0 39 57 153q41 72 79 147t97 75q33 0 57.5 -22.5t24.5 -62.5t-57 -153q-41 -72 -80 -146.5t-96 -74.5q-33 0 -57.5 22.5t-24.5 61.5z" />
<glyph unicode="-" horiz-adv-x="655" d="M39 555q0 33 22.5 55.5t55.5 22.5h422q31 0 54 -22.5t23 -55.5t-22.5 -56.5t-54.5 -23.5h-422q-33 0 -55.5 23.5t-22.5 56.5z" />
<glyph unicode="." horiz-adv-x="362" d="M76 92q0 43 30.5 75t74.5 32t74 -32t30 -75t-31 -73.5t-73 -30.5t-73.5 30.5t-31.5 73.5z" />
<glyph unicode="/" horiz-adv-x="716" d="M-16 63q0 55 214 532.5t373 827.5q27 61 84 62q80 0 80 -76q0 -55 -270 -659q-160 -350 -318 -701q-27 -61 -84 -61q-80 0 -79 75z" />
<glyph unicode="0" d="M49 737q0 276 103 484q131 264 379.5 264t379.5 -264q101 -208 101 -484t-101 -485q-131 -264 -380 -264t-379 264q-102 209 -103 485zM242 737q0 -211 49 -362q74 -229 240.5 -229.5t240.5 229.5q47 151 47 362t-47 363q-74 227 -241 227t-240 -227q-49 -152 -49 -363z " />
<glyph unicode="1" d="M307 1395q0 33 23.5 55.5t54.5 22.5h313q55 0 56 -50v-1339q0 -96 -90 -96t-91 96v1231l-122 -6q-143 0 -144 86z" />
<glyph unicode="2" d="M82 1024q0 203 130 332t335 129q162 0 277.5 -103.5t115.5 -267.5t-100 -299l-490 -657h553q33 0 55.5 -23.5t22.5 -56.5t-23.5 -55.5t-54.5 -22.5h-706q-98 0 -99 74q0 63 168 272q281 346 314 391q168 233 168 361q0 98 -67 163.5t-165 65.5q-147 0 -207 -108 q-23 -39 -57 -199q-25 -109 -82 -109q-88 0 -88 113z" />
<glyph unicode="3" d="M86 328q0 100 76 100q55 0 92 -74q55 -117 72 -135q63 -74 181 -74t197.5 78t79.5 195q0 174 -94 233q-39 25 -176 45q-94 14 -94 76q0 49 78 74q113 35 143 57q78 57 78 170.5t-55 183.5t-163 70t-153 -78q-6 -12 -45 -143q-23 -78 -84 -78q-82 0 -82 84 q0 164 109.5 268.5t273.5 104.5t271.5 -108.5t107.5 -272.5q0 -207 -172 -311q119 -35 184.5 -133.5t65.5 -225.5q0 -201 -131 -323.5t-334 -122.5q-154 0 -290 96t-136 244z" />
<glyph unicode="4" d="M26.5 439q0.5 60 258.5 483q152 240 303 481q49 82 141 82q137 0 137 -152v-796q92 0 109 -5q61 -14 61 -75t-61 -74q-16 -4 -109 -4l13 -197q0 -195 -103 -194q-102 0 -102 194l12 197h-582q-78 0 -77.5 60zM252 537h434v753h-4z" />
<glyph unicode="5" d="M90 231q0 80 66 80q25 0 86 -47t117.5 -76.5t142.5 -29.5q127 0 203 93t75.5 225t-63 222t-189.5 90q-47 0 -128 -27.5t-119 -27.5q-61 0 -62 55q0 125 31 301.5t59 335.5q6 47 68 48h506q31 0 54.5 -23t23.5 -55q0 -94 -232 -95q-63 0 -156.5 7.5t-105.5 7.5l-59 -400 q78 43 192 43q168 0 277 -143q96 -131 96 -305q0 -229 -124 -376t-349 -146q-117 0 -250 63q-160 76 -160 180z" />
<glyph unicode="6" d="M88 494q0 264 143.5 519t364.5 431q53 41 85 41t52.5 -26.5t20.5 -57.5t-72 -98q-184 -172 -313 -410h4l89 29q89 30 142 30q180 0 274.5 -147.5t94.5 -341t-126 -334.5t-324 -141t-316.5 149t-118.5 357zM268 475q0 -135 65 -226t192.5 -91t191 91t63.5 226 q0 319 -256 320q-127 0 -191 -92.5t-65 -227.5z" />
<glyph unicode="7" d="M76 1395q0 33 23.5 55.5t54.5 22.5h739q92 -1 92 -58q0 -31 -35 -110l-544 -1252q-27 -66 -109 -65q-27 0 -47.5 21.5t-20.5 47.5q0 111 142 404q12 23 206.5 400.5t194.5 438.5q0 8 -4 15h-614q-31 0 -54.5 23.5t-23.5 56.5z" />
<glyph unicode="8" d="M84 453q0 131 70.5 235.5t193.5 132.5q-190 119 -190 328q0 152 109 244t264 92t262 -88q111 -96 110 -248q0 -209 -190 -328q125 -29 194.5 -133t69.5 -235q0 -197 -125 -331t-321 -134t-321.5 134t-125.5 331zM276 444q0 -123 68 -210.5t186 -88.5q119 0 186.5 88 t67.5 211t-67.5 209t-186.5 86t-186.5 -86t-67.5 -209zM326 1112q0 -96 55 -156.5t150 -60.5t149.5 60.5t54.5 156.5t-54 155.5t-149.5 59.5t-150.5 -59.5t-55 -155.5z" />
<glyph unicode="9" d="M88 1010q0 193 127 334t325 141t315.5 -149.5t117.5 -356.5q0 -264 -142.5 -519t-365.5 -431q-51 -41 -83 -41t-53.5 26.5t-21.5 58.5t72 97q184 170 313 410h-4q-20 0 -102 -29t-129 -29q-178 0 -273.5 147.5t-95.5 340.5zM281 997q0 -319 256 -319q129 0 192.5 92 t63.5 227t-64 226.5t-191.5 91.5t-192 -91t-64.5 -227z" />
<glyph unicode=":" horiz-adv-x="395" d="M92 92q0 43 31 75t74 32t73.5 -32t30.5 -75t-30.5 -73.5t-73.5 -30.5t-74 30.5t-31 73.5zM92 788q0 43 31 74t74 31t73.5 -31t30.5 -74t-30.5 -74.5t-73.5 -31.5t-74 31.5t-31 74.5z" />
<glyph unicode=";" horiz-adv-x="389" d="M37 -176q0 39 57 153q41 72 79 147t97 75q33 0 57.5 -22.5t24.5 -62.5t-57 -153q-41 -72 -80 -146.5t-96 -74.5q-33 0 -57.5 22.5t-24.5 61.5zM143 788q0 43 31 74t74 31t73.5 -31t30.5 -74t-30.5 -74.5t-73.5 -31.5t-74 31.5t-31 74.5z" />
<glyph unicode="&#x3c;" horiz-adv-x="1146" d="M53 523q0 58 74 95q225 119 535 280t364 161q29 0 48.5 -23.5t19.5 -52.5q0 -47 -66 -80l-762 -379l762 -381q66 -33 66 -80q0 -29 -19.5 -52t-48.5 -23q-53 0 -363.5 161t-535.5 279q-74 37 -74 95z" />
<glyph unicode="=" horiz-adv-x="1142" d="M53 308q0 85 88 85h860q89 0 89 -85t-89 -85h-860q-88 0 -88 85zM53 738q0 85 88 85h860q89 0 89 -85t-89 -85h-860q-88 0 -88 85z" />
<glyph unicode="&#x3e;" horiz-adv-x="1155" d="M57 63q0 47 66 80l762 381l-762 379q-66 33 -66 80q0 29 19.5 52.5t48.5 23.5q53 0 363 -161t536 -280q74 -37 74 -95t-74 -95q-225 -119 -535.5 -279.5t-363.5 -160.5q-29 0 -48.5 23.5t-19.5 51.5z" />
<glyph unicode="?" horiz-adv-x="868" d="M16 1174q0 135 138 227q121 84 279.5 84t288.5 -104.5t130 -270.5t-92 -271.5t-252 -140.5l6 -139q0 -164 -96 -164q-90 0 -90 97v235q0 90 86 125q80 29 159 57q86 51 86 165.5t-66.5 177.5t-177 63t-169.5 -62q-20 -23 -66 -114q-29 -61 -76 -62q-88 0 -88 97zM313 92 q0 43 31 75t74 32t73.5 -32t30.5 -75t-30.5 -73.5t-73.5 -30.5t-74 30.5t-31 73.5z" />
<glyph unicode="@" horiz-adv-x="1591" d="M49.5 735q-0.5 315 229 532.5t529.5 217.5t516 -170.5t216 -446.5q0 -219 -145.5 -397t-362.5 -178q-123 0 -143 119h-4q-106 -119 -236.5 -119t-219.5 96t-89 229q0 205 132 371t331 166q166 0 239 -156q20 74 33 95q27 49 84.5 49t57.5 -47q0 -98 -80 -300t-80 -302 q0 -59 57 -60q119 0 201 152q70 129 69 258q0 227 -163.5 366t-409.5 139.5t-426 -177t-180 -441.5t183 -435t454 -171q145 0 266 59q61 31 150.5 99.5t125.5 68.5q51 0 52 -49q0 -115 -235.5 -215t-373.5 -100q-319 0 -548 216t-229.5 531zM520 637q0 -76 47 -131t121 -55 q125 0 202 131t77 266q0 150 -154 149q-131 0 -212 -111t-81 -249z" />
<glyph unicode="A" horiz-adv-x="1230" d="M8 59.5q0 30.5 25 96.5l452 1218q41 111 129 111t129 -111l453 -1218q25 -66 25 -97t-26 -51t-60 -20q-74 0 -125 141q-29 96 -58 193h-676q-27 -96 -55 -193q-53 -141 -127 -141q-35 0 -60.5 20.5t-25.5 51zM332 477h565l-281 797h-4z" />
<glyph unicode="B" horiz-adv-x="1048" d="M66 98v1276q0 98 96 99h317q160 1 277 -97q116 -97 116 -253q0 -112 -53 -202.5t-149 -121.5v-4q135 -14 225 -120t90 -245q0 -199 -138 -314.5t-339 -115.5h-346q-96 0 -96 98zM246 158h254q127 0 216 73.5t89 198.5t-85 198q-84 72 -209 72h-3h-262v-542zM246 850h205 q106 0 173.5 65.5t67.5 173t-63.5 167t-171.5 59.5h-211v-465z" />
<glyph unicode="C" horiz-adv-x="1159" d="M202 1266q173 218 476 219q113 0 250 -53q172 -66 172 -162q0 -86 -74 -86q-29 0 -86.5 44t-113.5 71.5t-148 27.5q-223 0 -348 -190q-109 -164 -109 -397.5t105 -399.5q125 -195 342 -195q117 0 244.5 65.5t146.5 65.5h2q69 0 69 -83q0 -98 -192 -160q-145 -45 -270 -45 q-300 0 -470 221q-170 220 -170 528q0 310 174 529z" />
<glyph unicode="D" horiz-adv-x="1241" d="M72 98v1276q0 98 96 99h354q305 0 476 -208.5t171 -521.5t-149 -516q-168 -227 -473 -227h-379q-96 0 -96 98zM252 158h258q238 0 360 182q107 155 107 404t-120 410t-359 161h-246v-1157z" />
<glyph unicode="E" horiz-adv-x="782" d="M41 98v1276q0 98 96 99h518q88 0 88 -85t-88 -85h-434v-482h395q88 0 89 -84q0 -86 -89 -86h-395v-481h434q88 0 88 -85t-88 -85h-518q-96 0 -96 98z" />
<glyph unicode="F" horiz-adv-x="804" d="M55 84v1290q0 98 97 99h512q88 0 88 -85t-88 -85h-428v-482q16 0 107 8.5t149 8.5q211 0 210 -101q0 -102 -208 -102l-258 16v-567q0 -96 -91 -96q-90 0 -90 96z" />
<glyph unicode="G" horiz-adv-x="1304" d="M199 1270q176 215 489 215q123 0 291 -60q209 -74 209 -176q0 -37 -25.5 -61.5t-58.5 -24.5t-106.5 50t-144 82t-177.5 32q-225 0 -352 -188q-109 -164 -109 -405t109 -402q127 -186 354 -186l1 -1q226 0 333 162q92 137 92 367l-164 -8q-178 0 -178 94q0 84 88 84h303 q131 0 131 -150q0 -706 -620 -706h-2q-299 0 -470 221q-170 220 -170 532q0 314 177 529z" />
<glyph unicode="H" horiz-adv-x="1398" d="M135 96v1280q0 109 90 109t90 -109v-559h768v559q0 109 91 109q90 0 90 -109v-1280q0 -108 -88 -108h-2q-90 0 -91 108v563h-768v-563q0 -108 -88 -108h-2q-90 0 -90 108z" />
<glyph unicode="I" horiz-adv-x="450" d="M135 84v1305q0 96 90 96t90 -96v-1305q0 -96 -90 -96t-90 96z" />
<glyph unicode="J" horiz-adv-x="854" d="M100 154q0 75 70 75h2q29 0 94.5 -42t147.5 -42q180 0 180 373q0 115 -21.5 360.5t-21.5 344.5q0 262 113 262q90 0 90 -96v-1014q0 -387 -355 -387q-88 0 -182 41q-117 49 -117 125z" />
<glyph unicode="K" horiz-adv-x="1204" d="M106 84v1305q0 96 91 96q90 0 90 -96v-539q174 170 350 340q313 295 373 295q78 0 78 -79q0 -81 -277 -325q-180 -150 -358 -301q190 -176 381 -352q309 -294 309 -360q0 -35 -26.5 -57.5t-61.5 -22.5q-80 0 -391 315q-188 199 -377 397v-616q0 -96 -90 -96t-91 96z" />
<glyph unicode="L" horiz-adv-x="782" d="M86 98v1291q0 96 90 96t90 -96v-1219h385q88 0 88 -85t-88 -85h-469q-96 0 -96 98z" />
<glyph unicode="M" horiz-adv-x="1740" d="M76 80q0 201 72.5 575t136.5 693q23 137 141 137q104 0 131 -94l311 -1078h4l312 1078q27 94 131 94q119 0 141 -137q63 -319 136 -693t73 -575q0 -92 -85 -92t-95 78l-170 1183h-4l-348 -1188q-23 -73 -91 -73h-2q-70 0 -92 73l-348 1188h-4l-170 -1183q-10 -78 -95 -78 t-85 92z" />
<glyph unicode="N" horiz-adv-x="1400" d="M135 84v1294q0 106 82 107q61 0 127 -94l737 -1069h4v1067q0 96 91 96q90 0 90 -96v-1295q0 -106 -82 -106q-61 0 -127 94l-738 1071h-4v-1069q0 -96 -90 -96t-90 96z" />
<glyph unicode="O" horiz-adv-x="1370" d="M47 737q0 305 164 516q178 231 474 232h1q295 0 475 -232q164 -211 164 -516t-171 -527t-468 -222t-468 222t-171 527zM240 736q0 -241 100 -400q119 -190 345 -190q1 0 1 -1q225 0 346 191q101 159 101 400t-101 401q-121 190 -347 190t-345 -190q-100 -160 -100 -401z " />
<glyph unicode="P" horiz-adv-x="1013" d="M57 84v1290q0 98 97 99h356q205 0 339 -129t134 -334q0 -303 -246 -402q-145 -57 -499 -57q0 -14 8 -121.5t8 -177.5q0 -264 -107 -264q-90 0 -90 96zM238 707h266q129 0 214 87t85 221t-83 217t-224 83h-258v-608z" />
<glyph unicode="Q" horiz-adv-x="1443" d="M45 737q0 305 172 526t467 222q295 0 475 -232q164 -211 164 -496.5t-127 -486.5q55 -51 111 -104q75 -78 75 -115t-22.5 -58.5t-58 -21.5t-98 62.5t-111.5 113.5q-163 -159 -405 -159h-3q-297 0 -468 222t-171 527zM238 736q0 -241 100 -400q119 -190 346 -191 q178 0 291 117q-47 45 -102.5 100.5t-55.5 89.5t22.5 58.5t56.5 24.5t91 -54q39 -41 78 -80q65 143 65 359.5t-100 376.5q-121 190 -346 190t-346 -190q-100 -160 -100 -401z" />
<glyph unicode="R" horiz-adv-x="1017" d="M59 84v1290q0 98 97 99h333q176 0 311.5 -112t135.5 -286q0 -229 -131 -330q-111 -84 -344 -90q139 -147 280 -295q220 -240 220 -303q0 -31 -26 -50t-56 -19q-66 0 -326 293q-158 182 -313 364v-561q0 -96 -90 -96t-91 96zM240 793h245q141 0 206 64.5t65 191.5 t-81 196.5t-194 69.5h-241v-522z" />
<glyph unicode="S" horiz-adv-x="976" d="M39 167q0 91 76 91q14 0 123.5 -56.5t224 -56.5t198.5 84t84 220t-180 215q-166 68 -332 135q-180 104 -180 307q0 162 132 270t298 109q104 0 213 -37q145 -49 146 -135q0 -33 -22.5 -56.5t-51.5 -23.5t-113 47t-179 47t-162.5 -57.5t-67.5 -151.5q0 -129 173 -202 t339 -142q180 -110 180 -320t-141.5 -338t-352.5 -128q-117 0 -239 37q-166 51 -166 142z" />
<glyph unicode="T" horiz-adv-x="935" d="M18 1389q0 84 88 84h725q89 0 89 -84q0 -98 -177 -99l-184 13v-1219q0 -96 -90 -96t-90 96v1219l-186 -13q-174 0 -175 99z" />
<glyph unicode="U" horiz-adv-x="1312" d="M92 584v805q0 96 90 96q106 0 107 -211q0 -74 -18.5 -276.5t-18.5 -311.5q0 -250 78 -377q96 -164 326 -164t327 164q78 127 78 377q0 109 -18.5 311.5t-18.5 276.5q0 211 109 211q90 0 90 -96v-805q1 -287 -143 -442q-143 -155 -422 -155q-1 1 -2 1q-280 0 -422 154.5 t-142 441.5z" />
<glyph unicode="V" horiz-adv-x="1196" d="M45 1411q0 31 23.5 52.5t63.5 21.5t61.5 -28.5t42.5 -88.5l368 -1075h4l369 1075q20 59 42 88t61.5 29t63 -21.5t23.5 -52.5q0 -78 -164.5 -530.5t-291.5 -794.5q-35 -98 -105 -98t-104 98q-127 342 -292 794.5t-165 530.5z" />
<glyph unicode="W" horiz-adv-x="1683" d="M39 1403q0 35 23.5 58.5t58.5 23.5q84 0 98 -84l191 -1178h4l336 1190q20 72 92 72t92 -72l336 -1190h4l190 1178q14 84 99 84q35 0 58.5 -23.5t23.5 -58.5q0 -348 -236 -1311q-25 -104 -129.5 -104t-136.5 121l-299 1079h-4l-299 -1079q-33 -121 -140.5 -121t-130.5 121 q-70 328 -150.5 708.5t-80.5 585.5z" />
<glyph unicode="X" horiz-adv-x="1134" d="M-23 63q0 57 176.5 302t309.5 426q-113 155 -261 361q-149 207 -149 250q-1 42 23 62q24 22 57 21q80 0 244 -250q94 -158 190 -313q94 156 191 313q164 250 243 250q33 0 56.5 -21.5t23.5 -54.5q0 -51 -148.5 -258t-260.5 -360q133 -180 309 -425.5t176 -302.5 q0 -31 -25.5 -53t-56.5 -22q-78 0 -276 295q-117 182 -232 364q-117 -182 -231 -364q-199 -295 -277 -295q-33 0 -57.5 22.5t-24.5 52.5z" />
<glyph unicode="Y" horiz-adv-x="980" d="M12 1406q0 38 24 58q25 21 58 21q80 0 240 -271l188 -344q94 172 189 344q160 270 239 271q33 0 57.5 -20.5t24.5 -60.5t-152.5 -285.5t-267.5 -428.5v-606q0 -96 -90 -96t-90 96v606q-115 182 -267 428q-153 247 -153 288z" />
<glyph unicode="Z" horiz-adv-x="1093" d="M27 84q0 84 350 604q217 313 434 627h-661q-88 0 -89 80q0 78 89 78h796q94 0 94 -64q0 -92 -358 -621l-438 -630h735q88 0 88 -79t-88 -79h-846q-106 0 -106 84z" />
<glyph unicode="[" horiz-adv-x="397" d="M41 -70v1456q0 98 96 99h142q31 0 54 -22.5t23 -55.5q0 -57 -51 -74q-23 -6 -96 -6v-1339q74 0 96 -6q51 -15 51 -72q0 -33 -22.5 -56.5t-54.5 -23.5h-142q-96 0 -96 100z" />
<glyph unicode="\" horiz-adv-x="800" d="M25 1409q0 76 79 76q57 0 84 -62q160 -350 374 -827.5t214 -532.5q0 -76 -80 -75q-57 0 -84 61q-158 350 -372.5 827.5t-214.5 532.5z" />
<glyph unicode="]" horiz-adv-x="462" d="M74 -90q0 57 51 72q23 6 96 6v1339q-74 0 -96 6q-51 16 -51 74q0 33 23.5 55.5t54.5 22.5h141q96 0 96 -99v-1456q0 -100 -96 -100h-141q-33 0 -55.5 23.5t-22.5 56.5z" />
<glyph unicode="^" horiz-adv-x="1146" d="M74 666q0 47 143 299.5t250 435.5q47 84 106 84t107 -84q106 -182 249.5 -435t143.5 -300q0 -68 -76 -68q-37 0 -63 35q-10 12 -39 67l-322 603l-321 -603q-29 -55 -39 -67q-27 -35 -63 -35q-76 0 -76 68z" />
<glyph unicode="_" horiz-adv-x="974" d="M-84 -207q0 51 59 51h1024q60 0 60 -51t-60 -51h-1024q-59 0 -59 51z" />
<glyph unicode="`" horiz-adv-x="524" d="M35 1448q0 33 22.5 59.5t59.5 26.5t132 -41t167.5 -72t72.5 -80q0 -33 -22.5 -59.5t-60 -26.5t-132 42.5t-167 74t-72.5 76.5z" />
<glyph unicode="a" horiz-adv-x="1097" d="M74 550q0 228 129 395t350 167q166 0 297 -145h4q0 72 10 96q16 49 63.5 49t71 -25.5t23.5 -62.5v-948q0 -37 -23.5 -62.5t-60.5 -25.5q-61 0 -78 57q-6 23 -6 109h-4q-115 -166 -297 -166q-221 0 -350 167t-129 395zM254 551q0 -162 68 -272q80 -133 231 -134 q152 0 233 134q66 110 66 272t-66 272q-82 133 -233 133q-152 0 -231 -133q-68 -111 -68 -272z" />
<glyph unicode="b" horiz-adv-x="1034" d="M47 84v1415q0 98 90 98q109 0 109 -290q0 -82 -9.5 -205t-9.5 -137h4q102 147 304 147t327 -169t125 -392t-125 -393t-339 -170t-292 151h-4q0 -76 -10 -102q-18 -49 -80 -49q-90 0 -90 96zM209 551q0 -162 67 -272q80 -133 232 -134q152 0 231 134q68 110 68 272 t-68 272q-80 133 -231 133q-152 0 -232 -133q-68 -111 -67 -272z" />
<glyph unicode="c" horiz-adv-x="888" d="M51 551q0 238 130 399.5t362 161.5q96 0 176 -25q117 -36 117 -112q0 -31 -21.5 -54.5t-50.5 -23.5t-95.5 29.5t-125.5 29.5q-152 0 -232 -123t-80 -282q0 -160 80 -283t232 -123q66 0 132 31t85 31q69 0 69 -74q0 -78 -112 -117q-79 -28 -168 -28h-6q-231 0 -361.5 163 t-130.5 400z" />
<glyph unicode="d" horiz-adv-x="1169" d="M239.5 943q124.5 169 326.5 169t304 -147h4q0 14 -9 137t-9 205q0 290 108 290h1q90 0 90 -98v-1415q0 -96 -90 -96q-61 0 -80 49q-10 27 -11 102h-4q-78 -152 -290 -152l-2 1q-214 0 -338 170q-125 169 -125 389q0 227 124.5 396zM295 551q0 -162 67 -272 q80 -133 232 -134q152 0 231 134q68 110 68 272t-68 272q-80 133 -231 133q-152 0 -232 -133q-68 -111 -67 -272z" />
<glyph unicode="e" horiz-adv-x="1042" d="M41 544q0 236 133 402t349 166t346 -160.5t130 -373.5q0 -98 -100 -99h-678q0 -147 88 -240.5t234 -93.5q98 0 163.5 29.5t125 74t79.5 44.5q66 0 66 -80q0 -90 -165 -157.5t-271 -67.5q-240 0 -370 160t-130 396zM221 616h598q0 137 -78 238.5t-218 101.5t-218 -94 t-84 -246z" />
<glyph unicode="f" horiz-adv-x="591" d="M23 1022q0 59 57 74q18 4 106 4q0 35 -1 97t-1 89q0 162 47 227q66 84 250 84q39 0 71 -21t32 -58q0 -61 -54.5 -68.5t-107.5 -11.5q-55 -10 -55 -70v-268q10 0 38 1t44 1q120 0 120 -79q0 -81 -120 -81h-43q-29 2 -39 2v-860q0 -96 -91 -96q-90 0 -90 96v860 q-88 0 -106 4q-57 14 -57 74z" />
<glyph unicode="g" horiz-adv-x="1079" d="M61 551q0 227 129 394t351 167q78 0 154.5 -38t121.5 -99h4q0 70 13 96q20 41 70.5 41t73.5 -25.5t23 -62.5v-946q0 -233 -131 -379q-130 -145 -357 -145h-3q-104 0 -261 57t-157 142t76 85q25 0 138.5 -63.5t217.5 -63.5q184 0 252 137q45 94 45 297h-4 q-89 -157 -274 -157h-2q-221 0 -350.5 168t-129.5 395zM242 551q0 -162 67 -272q80 -133 232 -134q152 0 231 134q68 110 68 272t-68 272q-80 133 -231 133q-152 0 -232 -133q-68 -111 -67 -272z" />
<glyph unicode="h" horiz-adv-x="1003" d="M70 84v1415q0 98 90 98t90 -98l4 -530q113 143 296 143t283.5 -119t100.5 -299v-610q0 -96 -90 -96q-100 0 -101 198l19 387q0 178 -49 269q-60 114 -208 114h-3q-150 0 -211 -114q-49 -90 -49 -269l18 -387q0 -198 -99 -198h-1q-90 0 -90 96z" />
<glyph unicode="i" horiz-adv-x="446" d="M113 1373q0 46 31.5 79t77.5 33t79 -33t33 -79t-33 -78.5t-79 -32.5t-77.5 32.5t-31.5 78.5zM133 84v932q0 96 90 96t90 -96v-932q0 -96 -90 -96t-90 96z" />
<glyph unicode="j" horiz-adv-x="446" d="M113 1373q0 46 31.5 79t77.5 33t79 -33t33 -79t-32 -78.5t-79 -32.5t-78.5 32.5t-31.5 78.5zM133 -350v1366q0 96 90 96t90 -96v-1366q0 -96 -90 -96t-90 96z" />
<glyph unicode="k" horiz-adv-x="952" d="M98 84v1415q0 98 90 98t91 -98v-774q115 102 229 205q215 182 266 182q76 0 76 -80q0 -59 -201 -219q-127 -92 -254 -186q145 -135 293 -269q225 -219 225 -299q0 -29 -22.5 -50t-52.5 -21q-80 0 -299 237q-131 150 -260 299v-440q0 -96 -91 -96q-90 0 -90 96z" />
<glyph unicode="l" horiz-adv-x="450" d="M135 84v1415q0 98 90 98t90 -98v-1415q0 -96 -90 -96t-90 96z" />
<glyph unicode="m" horiz-adv-x="1585" d="M57 84v932q0 96 90 96t91 -129l4 -4q102 133 283 133t290 -186q127 186 334 186q178 0 278.5 -119t100.5 -299v-610q0 -96 -90 -96q-102 0 -103 196q0 55 11.5 197.5t11.5 214.5q0 360 -243 360t-243 -360q0 -72 11.5 -213t11.5 -199q0 -196 -101 -196h-1 q-102 0 -103 196q0 55 11.5 197.5t11.5 214.5q0 360 -243 360t-243 -360q0 -72 11.5 -213t11.5 -199q0 -196 -102 -196h-1q-90 0 -90 96z" />
<glyph unicode="n" horiz-adv-x="978" d="M57 84v932q0 96 90 96q59 0 78 -45q12 -27 13 -94l4 -4q113 143 296 143t283.5 -117.5t100.5 -300.5v-610q0 -96 -91 -96q-100 0 -100 198l19 387q0 178 -50 269q-60 114 -208 114h-3q-150 0 -210 -114q-49 -90 -50 -269l19 -387q0 -198 -100 -198h-1q-90 0 -90 96z" />
<glyph unicode="o" horiz-adv-x="1036" d="M39 550q0 228 129 395t350 167t350 -167t129 -395t-128 -395t-351 -167t-351 167t-128 395zM219 551q0 -162 68 -272q80 -133 231 -134q152 0 232 134q67 110 67 272t-67 272q-80 133 -232 133t-231 -133q-68 -111 -68 -272z" />
<glyph unicode="p" horiz-adv-x="1081" d="M72 -350v1366q0 96 90 96q61 0 80 -49q10 -27 10 -100h4q75 149 288 149h3q215 0 346 -178q119 -160 119 -383t-125 -393t-327.5 -170t-303.5 149h-4q0 -14 8 -125.5t8 -185.5q0 -272 -106 -272q-90 0 -90 96zM233 551q0 -162 66 -272q80 -133 233 -133q0 -1 1 -1 q151 0 231 134q67 110 67 272t-67 272q-80 133 -233 133t-232 -133q-66 -111 -66 -272z" />
<glyph unicode="q" horiz-adv-x="1112" d="M57 551q0 223 119 383q131 178 345 178t292 -149h4q0 74 10 100q18 49 80 49q90 0 90 -96v-1366q0 -96 -90 -96q-106 0 -106 272q0 74 8 185.5t8 125.5h-4q-100 -150 -302 -150l-1 1q-203 0 -328 170t-125 393zM238 551q0 -162 67 -272q80 -133 232 -134q152 0 231 134 q68 110 68 272t-68 272q-80 133 -231 133q-152 0 -232 -133q-68 -111 -67 -272z" />
<glyph unicode="r" horiz-adv-x="641" d="M55 84v932q0 96 90 96q70 0 86 -68q4 -18 5 -122h4q35 74 103.5 132t141.5 58q101 0 101 -92q0 -59 -90 -92q-133 -47 -170 -80q-90 -76 -90 -240v-524q0 -96 -91 -96q-90 0 -90 96z" />
<glyph unicode="s" horiz-adv-x="880" d="M37 197q0 33 20.5 57.5t48.5 24.5t133 -67t197.5 -67t160 38t67.5 110q0 88 -145.5 157t-287.5 132q-150 90 -150 226q1 138 113 221t259 83q104 0 219 -47q143 -57 143 -147q0 -74 -82 -74q-27 0 -107.5 56t-164.5 56t-141 -34q-58 -35 -58 -109t150 -137 q274 -119 280 -123q152 -90 152 -225q0 -162 -116 -251t-282 -89q-115 0 -245 49q-164 63 -164 160z" />
<glyph unicode="t" horiz-adv-x="602" d="M39 1022q0 59 57 74q18 4 107 4l-10 162q0 174 100 174t100 -174l-10 -162q88 0 106 -4q58 -15 58 -74t-58 -74q-18 -4 -106 -4v-860q0 -96 -90 -96t-90 96v860q-88 0 -107 4q-57 14 -57 74z" />
<glyph unicode="u" horiz-adv-x="1046" d="M92 426v590q0 96 90 96q100 0 101 -192l-21 -404q0 -371 261 -371t261 371l-20 404q0 192 101 192h1q90 0 90 -96v-590q0 -205 -114.5 -321.5t-318.5 -116.5t-317.5 116.5t-113.5 321.5z" />
<glyph unicode="v" horiz-adv-x="923" d="M35 1028q0 35 23.5 59.5t58.5 24.5q72 0 94 -70l248 -761h4l248 761q23 70 94 70q35 0 58.5 -24.5t23.5 -59.5q0 -72 -146 -469q-94 -246 -186 -493q-27 -78 -94 -78q-68 0 -94 78q-92 248 -187 493q-145 397 -145 469z" />
<glyph unicode="w" horiz-adv-x="1587" d="M39 1016.5q0 50.5 24.5 73t61.5 22.5q72 0 100 -92l232 -752h4l227 725q18 61 33 82q25 37 73 37t67 -28.5t40 -90.5l227 -725h5l231 752q27 92 100 92q35 0 60.5 -22.5t25.5 -73t-113.5 -371t-199.5 -563.5q-33 -94 -105.5 -94t-101.5 94l-233 743h-4l-234 -743 q-31 -94 -103.5 -94t-103.5 94q-88 244 -200.5 564t-112.5 370.5z" />
<glyph unicode="x" horiz-adv-x="958" d="M16 70q0 59 160 268q100 123 199 246q-86 109 -172 217q-142 187 -142 226q-1 37 21 61t55 24q70 0 193 -172q76 -113 149 -225q74 113 150 225q123 172 192 172q33 0 54.5 -24.5t21.5 -62.5t-141 -224q-86 -109 -172 -217q98 -123 198 -246q160 -209 160 -268 q0 -35 -23.5 -58.5t-58.5 -23.5q-72 0 -211 200q-86 131 -170 263q-86 -131 -170 -263q-138 -200 -210 -200h-1q-35 0 -58.5 23.5t-23.5 58.5z" />
<glyph unicode="y" horiz-adv-x="860" d="M10 1036q0 33 24.5 54.5t57.5 21.5q68 0 90 -68l250 -755h4l246 755q23 68 86 68q33 0 57.5 -21.5t24.5 -54.5q0 -94 -173 -572t-306 -843q-25 -67 -86 -67h-2q-33 0 -57.5 21.5t-24.5 60t51 171.5t90 232q-94 252 -190 506q-141 389 -142 491z" />
<glyph unicode="z" horiz-adv-x="909" d="M41 63q0 68 250 441q154 219 307 440h-446q-90 0 -91 78q0 78 91 78h606q88 0 88 -65t-254 -435q-154 -219 -309 -438l6 -4h489q90 0 90 -79t-90 -79h-649q-88 0 -88 63z" />
<glyph unicode="{" horiz-adv-x="591" d="M18 657q0 53 94.5 82t94.5 217l-8 244q0 135 39 201q49 84 176 84h78q82 0 81 -62q0 -49 -50 -56t-99 -13q-51 -18 -51 -92l10 -244q0 -336 -197 -359v-4q197 -23 197 -358l-10 -244q0 -72 51 -90q49 -6 99 -13.5t50 -58.5q0 -61 -81 -61h-78q-127 0 -176 86 q-39 66 -39 201l8 237q0 193 -94 224t-95 79z" />
<glyph unicode="|" horiz-adv-x="374" d="M102 76v1431q0 90 84 90t84 -90v-1431q0 -88 -84 -88t-84 88z" />
<glyph unicode="}" horiz-adv-x="595" d="M20 -109q0 51 50.5 58.5t99.5 13.5q51 18 51 90l-10 244q0 336 197 358v4q-197 23 -197 359l10 244q0 74 -51 92q-49 6 -99.5 13t-50.5 56q0 61 82 62h78q127 0 178 -88q37 -66 37 -197l-6 -190q0 -125 6 -158q18 -90 90 -115q90 -31 90 -81t-94 -77.5t-94 -218.5l8 -243 q0 -135 -39 -201q-49 -86 -176 -86h-78q-82 0 -82 61z" />
<glyph unicode="~" horiz-adv-x="1142" d="M88 434q0 92 86 165t180 73t237.5 -70t188.5 -70t98.5 70t104.5 70q27 0 49.5 -17.5t22.5 -42.5q0 -92 -86 -164.5t-179.5 -72.5t-237.5 69.5t-189.5 69.5t-98.5 -69.5t-104 -69.5q-27 0 -49.5 17.5t-22.5 41.5z" />
<glyph horiz-adv-x="974" d="M-454.5 250.5q-0.5 103.5 62 170t150.5 66.5l49 -49q2 -27 -36 -43q-57 -29 -68 -39q-39 -31 -39 -93.5t52 -97t140.5 -34.5t186.5 58t98 147.5t-117.5 262.5t-117.5 280q0 203 207 387t411 184q74 0 119 -39t45 -104q0 -20 -6 -43q213 193 422 192q70 0 117 -37.5 t47 -105.5q0 -123 -175 -288t-300 -167l-58 47q20 39 150 109t178 106q96 80 96 170q0 66 -72 66q-152 0 -320.5 -150t-168.5 -299q0 -109 122 -290t122 -267q0 -139 -133.5 -227t-280.5 -88q-190 0 -262 110q-129 -117 -318 -116q-123 0 -204 55q-98 63 -98.5 166.5z M18 901q0 -98 74 -217.5t137 -226.5q59 37 109 37q49 0 49 -50q0 -29 -48 -50.5t-56 -28.5q-39 -31 -39 -91q0 -137 172 -137q109 0 207 58.5t98 158.5q0 76 -118 250t-118 281q0 68 23 135q-47 -51 -143 -109.5t-152 -58.5q-18 0 -37.5 13.5t-19.5 33.5q0 25 130 94.5 t185 114.5q109 86 109 176q0 66 -72 66q-150 0 -320 -149.5t-170 -299.5zM846 86q0 82 137 352t197 271q39 0 39 -39q0 -14 -56 -101q-143 -223 -209 -444q-14 -49 -18 -57q-14 -31 -45 -31q-45 0 -45 49zM1251 954q0 41 44 95.5t83 54.5q49 0 49 -49q0 -41 -44 -96.5 t-85 -55.5q-47 0 -47 51z" />
<glyph unicode="&#xa1;" horiz-adv-x="505" d="M147 1008q0 43 31 73.5t74 30.5t73.5 -30.5t30.5 -73.5t-30.5 -75t-73.5 -32t-74 32t-31 75zM162 -287v895q0 96 90 97q90 0 90 -97v-895q0 -98 -90 -98t-90 98z" />
<glyph unicode="&#xa2;" horiz-adv-x="808" d="M12 551q0 205 97 354q106 166 297 199l-5 76q0 88 48 88q41 0 45 -62q-2 29 -2 -94q102 0 186 -27q119 -34 119 -110q0 -31 -21.5 -54.5t-50.5 -23.5t-101.5 29.5t-131.5 29.5v-811q66 0 138 31t91 31q70 0 70 -77t-119 -116q-84 -27 -180 -26q0 -123 2 -94 q-4 -61 -45 -62q-47 0 -48 88l5 78q-190 33 -291.5 191t-102.5 362zM193 551q0 -127 49 -229q55 -119 164 -158v776q-106 -41 -159.5 -151.5t-53.5 -237.5z" />
<glyph unicode="&#xa3;" horiz-adv-x="1130" d="M18 739q0 88 136 88q23 0 60.5 -2t49.5 -2q-100 180 -100 295q0 164 136 265.5t298 101.5t319.5 -111t157.5 -256q0 -88 -86 -88q-49 0 -88 74q-57 109 -86 137q-72 74 -190.5 74t-199.5 -55t-81 -154q0 -68 37 -148q37 -68 72 -135l178 11q174 0 174 -95q0 -94 -158 -94 q-33 0 -86 4t-67 4q14 -80 14 -152.5t-51 -168.5t-125 -162h690q88 0 88 -85t-88 -85h-819q-109 0 -109 86q0 31 73 109.5t101 123.5q59 96 59.5 188.5t-14.5 145.5l-141 -8q-154 0 -154 94z" />
<glyph unicode="&#xa4;" horiz-adv-x="1175" d="M80 736.5q0 195.5 100 307.5q-98 98 -98 128.5t21.5 53.5t45 23t132.5 -110q117 111 307 110q190 0 307 -110q109 111 132.5 110.5t45 -24t21.5 -53t-99 -128.5q101 -112 101 -308t-101 -308q98 -98 98.5 -128t-21 -53.5t-46.5 -23.5t-131 113q-117 -113 -308.5 -113 t-305.5 113q-109 -113 -132.5 -113t-45 23.5t-21.5 53.5t98 128q-100 113 -100 308.5zM248 737q0 -147 96 -251.5t242.5 -104.5t244 104.5t97.5 251.5t-97.5 251t-243.5 104t-242.5 -103.5t-96.5 -251.5z" />
<glyph unicode="&#xa5;" horiz-adv-x="1017" d="M-25 1417q0 27 22.5 47.5t49.5 20.5q82 0 258 -273q102 -170 203 -342q102 172 205 342q174 272 256 273q29 0 50 -20.5t21 -47.5q0 -59 -128.5 -253.5t-229.5 -340.5l131 8q150 0 150 -75q0 -82 -181 -82q-49 0 -114.5 6t-69.5 6v-145q4 0 69.5 6t114.5 6q180 0 181 -82 q0 -80 -183 -80l-182 12q0 -8 7 -83.5t7 -126.5q0 -205 -104 -205t-105 205q0 51 7.5 126.5t7.5 83.5q-2 0 -67.5 -6t-112.5 -6q-184 0 -185 80q0 82 183 82l182 -12v145l-182 -12q-182 0 -183 82q0 76 152 75q31 0 78 -4t51 -4q-98 145 -228.5 340t-130.5 254z" />
<glyph unicode="&#xa6;" horiz-adv-x="376" d="M104 76v422q0 90 84 90t84 -90v-422q0 -88 -84 -88t-84 88zM104 1085v422q0 90 84 90t84 -90v-422q0 -88 -84 -88t-84 88z" />
<glyph unicode="&#xa7;" horiz-adv-x="1060" d="M18 559q0 227 250 352q-133 100 -133 236q0 168 137 260q117 78 277.5 78t299 -88t138.5 -223q0 -96 -82 -97q-49 0 -86 66q-55 96 -78 119q-66 66 -172 65.5t-180 -43.5t-74 -129q0 -106 189 -199q336 -164 350 -172q188 -127 188 -317q0 -104 -63.5 -199.5 t-159.5 -148.5q133 -94 133 -246t-145 -242q-125 -78 -275.5 -77.5t-311.5 84t-161 212.5q0 104 91 105q49 0 90 -64q59 -94 84 -116q72 -63 180 -63.5t178 34.5q90 43 90 129q0 106 -194 199q-354 166 -365 172q-195 125 -195 313zM199 573q0 -82 100 -163 q72 -61 184.5 -114.5t202.5 -94.5q176 135 176 260q0 98 -68.5 162.5t-173 109.5t-196.5 84q-225 -94 -225 -244z" />
<glyph unicode="&#xa8;" horiz-adv-x="604" d="M0 1361q0 46 33 79t79 33t77.5 -33t31.5 -79t-31.5 -79t-77.5 -33t-79 33t-33 79zM381 1361q0 46 32.5 79t79 33t78 -33t31.5 -79t-31.5 -79t-77.5 -33t-79 33t-33 79z" />
<glyph unicode="&#xa9;" horiz-adv-x="1552" d="M35 737q0 307 217 527.5t524 220.5t524.5 -220.5t217.5 -527.5t-217.5 -528t-524.5 -221t-524 221t-217 528zM203 736q0 -239 168 -415t405 -176q238 0 406 176t168 415t-168 415t-406 176t-405.5 -176t-167.5 -415zM346 743.5q0 196.5 119 325.5t315 129q119 0 243 -75 t124 -187q0 -59 -68 -59q-41 0 -78 47q-57 76 -71 90q-57 47 -150 47q-131 0 -198 -92t-67.5 -223.5t71.5 -228.5t194 -97q92 0 154 49q23 20 68 80.5t79 60.5q66 0 66 -57q0 -109 -126 -190t-241 -80q-193 0 -313.5 132t-120.5 328.5z" />
<glyph unicode="&#xaa;" horiz-adv-x="819" d="M100 1148q0 142 85 239.5t227 97.5q106 0 170 -86h4q0 45 11 65.5t56 20.5q68 0 68 -53v-570q0 -53 -68 -53q-45 0 -56 20.5t-11 65.5h-4q-63 -86 -170 -86q-141 0 -226.5 98.5t-85.5 240.5zM248 1148q0 -83 45 -148.5t125 -65.5t125 65.5t45 148.5t-46 148.5t-125 65.5 t-124 -65.5t-45 -148.5z" />
<glyph unicode="&#xab;" horiz-adv-x="751" d="M37 555l203 367q31 55 69 55q82 0 82 -74q0 -37 -69.5 -150.5t-122.5 -197.5q53 -86 122.5 -199.5t69.5 -150.5q0 -72 -82 -72q-41 0 -69 53zM360 555l203 367q31 55 70 55q82 0 82 -74q0 -37 -69.5 -150.5t-123.5 -197.5q53 -86 107 -170q86 -143 86 -180q0 -72 -82 -72 q-41 0 -70 53z" />
<glyph unicode="&#xac;" horiz-adv-x="1134" d="M49 738q0 85 88 85h864q84 0 84 -88v-422q0 -90 -84 -90t-83 90v340h-781q-88 0 -88 85z" />
<glyph unicode="&#xad;" horiz-adv-x="655" d="M39 555q0 33 22.5 55.5t55.5 22.5h422q31 0 54 -22.5t23 -55.5t-22.5 -56.5t-54.5 -23.5h-422q-33 0 -55.5 23.5t-22.5 56.5z" />
<glyph unicode="&#xae;" horiz-adv-x="1552" d="M35 737q0 307 217 527.5t524 220.5t524.5 -220.5t217.5 -527.5t-217.5 -528t-524.5 -221t-524 221t-217 528zM203 736q0 -239 168 -415t405 -176q238 0 406 176t168 415t-168 415t-406 176t-405.5 -176t-167.5 -415zM471 369v741q0 45 47 45h270q150 0 230 -53.5 t80 -194.5q0 -211 -211 -237q55 -84 112 -166q90 -139 91 -166q0 -37 -64.5 -37t-93.5 47l-195 316h-131v-295q0 -68 -67 -68q-68 0 -68 68zM606 788h156q96 0 137 19q64 29 64 111q0 113 -189 112h-168v-242z" />
<glyph unicode="&#xaf;" horiz-adv-x="602" d="M6 1340q0 85 88 85h414q88 0 88 -85t-88 -85h-414q-88 0 -88 85z" />
<glyph unicode="&#xb0;" horiz-adv-x="735" d="M74 1190q0 121 86 208t208 87t206.5 -87t84.5 -208t-85 -209t-206.5 -88t-207.5 88t-86 209zM184 1190q0 -76 54.5 -130t129.5 -54t128 54t53 130t-53.5 130t-128 54t-129 -54t-54.5 -130z" />
<glyph unicode="&#xb1;" horiz-adv-x="1146" d="M55 85q0 85 88 85h861q88 0 88 -85t-88 -85h-861q-88 0 -88 85zM55 646q0 85 88 85h346l-10 156q0 160 94 160t95 -160l-11 -156h347q88 0 88 -85t-88 -85h-347l11 -155q0 -162 -95 -162q-94 0 -94 162l10 155h-346q-88 0 -88 85z" />
<glyph unicode="&#xb2;" horiz-adv-x="620" d="M16.5 642q-0.5 40 213.5 290t214 325q0 51 -38.5 78t-105.5 27t-110 -57q-12 -16 -49 -105q-25 -57 -59 -57q-63 0 -64 67q0 125 88.5 200t208.5 75t198.5 -57t78.5 -153.5t-74 -187.5l-297 -360l201 10q180 1 180 -73q0 -61 -78 -62h-446q-61 0 -61.5 40z" />
<glyph unicode="&#xb3;" horiz-adv-x="770" d="M90 807q0 66 57 65q31 0 56 -41q35 -61 49 -77q43 -41 115 -41t118.5 47t46.5 123.5t-59 103.5q-16 6 -113 17q-59 8 -59 48t47 56q80 29 88 35q47 33 47 95t-37.5 93t-97.5 31t-92 -39q-2 -4 -33 -72q-18 -39 -57 -39q-51 0 -51 58q0 102 72.5 158.5t181.5 56.5 t185.5 -59.5t76.5 -177.5t-113 -179q162 -47 162 -213q0 -125 -93 -196t-210 -70.5t-202 59.5t-85 158z" />
<glyph unicode="&#xb4;" horiz-adv-x="534" d="M41 1341q0 49 72.5 80t167 72t131.5 41t60.5 -26.5t23.5 -59.5q0 -45 -74 -77t-168.5 -73.5t-131 -42t-59 26.5t-22.5 59z" />
<glyph unicode="&#xb6;" horiz-adv-x="1144" d="M68 1104q0 189 170 287q139 82 352 82h391q96 0 96 -99v-1732q0 -88 -84 -88t-84 88v1693h-235v-1693q0 -88 -84 -88t-84 88v1069q-182 0 -310 102t-128 291z" />
<glyph unicode="&#xb7;" horiz-adv-x="430" d="M104 627q0 45 33 78.5t78 33.5t78 -33.5t33 -78.5t-33 -79t-78 -34t-78 34t-33 79z" />
<glyph unicode="&#xb8;" horiz-adv-x="358" d="M-10 -299q0 55 43 55l106 -16q72 0 72 55q0 35 -76 37t-76 39q0 25 74 129h109l-60 -86q29 6 43 6q51 0 96.5 -33t45.5 -82q0 -178 -228 -178q-150 0 -149 74z" />
<glyph unicode="&#xb9;" horiz-adv-x="546" d="M119 1409q0 63 57 64h213q39 0 39 -29v-780q0 -74 -74 -74t-73 74v686l-76 -4q-86 0 -86 63z" />
<glyph unicode="&#xba;" horiz-adv-x="780" d="M80 1148q0 142 85 239.5t225 97.5t226 -97.5t86 -239.5t-85 -240.5t-226 -98.5t-226 98.5t-85 240.5zM227 1148q0 -81 43 -147.5t120 -66.5t121 66.5t44 147.5t-44 147.5t-120 66.5t-120 -66.5t-44 -147.5z" />
<glyph unicode="&#xbb;" horiz-adv-x="686" d="M4 205q0 37 69.5 150.5t123.5 199.5q-53 84 -107 168q-86 143 -86 180q0 74 82 74q39 0 70 -55l202 -367l-202 -369q-29 -53 -70 -53q-82 0 -82 72zM328 205q0 37 69.5 150.5t122.5 199.5q-53 84 -122.5 197.5t-69.5 150.5q0 74 82 74q39 0 69 -55l203 -367l-203 -369 q-29 -53 -69 -53q-82 0 -82 72z" />
<glyph unicode="&#xbc;" horiz-adv-x="1568" d="M33 1409q0 63 57 64h213q39 0 39 -29v-780q0 -74 -74 -74t-73 74v686l-74 -4q-88 0 -88 63zM344 27q0 55 210 552t364 861q27 61 71 61q72 0 72 -53q0 -76 -574 -1415q-25 -61 -75 -62q-68 0 -68 56zM870 250q0 49 129 238.5t226 328.5q43 66 102 66q102 0 103 -90v-467 q55 0 71 -7q33 -12 33 -57t-33 -55q-16 -6 -71 -6l6 -107q0 -106 -80 -106t-80 106l6 107h-364q-47 0 -48 49zM1040 326h242v409h-4z" />
<glyph unicode="&#xbd;" horiz-adv-x="1564" d="M63.5 1409q-0.5 63 57.5 64h213q39 0 39 -29v-780q0 -74 -74 -74t-74 74v686l-75 -4q-86 0 -86.5 63zM313 27q0 55 262 684q156 365 312 729q25 61 71 61q72 0 72 -53t-210 -552t-363 -863q-27 -61 -76 -62q-68 0 -68 56zM918 40q0 40 214 290t214 325q0 51 -39 78 t-107 27t-108 -58q-14 -16 -44.5 -88.5t-64.5 -72.5q-63 0 -63 67q0 125 87 200t208 75t199.5 -57.5t78.5 -154t-74 -186.5l-297 -360h303q78 -1 78 -63t-78 -62h-446q-61 0 -61 40z" />
<glyph unicode="&#xbe;" horiz-adv-x="1564" d="M37 807q0 66 57 65q33 0 62 -51t45 -67q41 -41 112.5 -41t118.5 47t47 123.5t-59 103.5q-14 6 -111 17q-61 8 -61 48t49 56q78 29 86 35q47 33 47 95t-37 93t-97.5 31t-90.5 -39q-4 -4 -35 -72q-18 -39 -57 -39q-51 0 -52 58q0 102 73 158.5t181.5 56.5t185.5 -59.5 t77 -177.5t-113 -179q162 -47 162 -213q0 -125 -93.5 -196t-210 -70.5t-201.5 59.5t-85 158zM459 27q0 55 210 552t363 861q27 61 72 61q72 0 72 -53t-209.5 -552t-364.5 -863q-25 -61 -84.5 -61.5t-58.5 55.5zM862 250q0 49 129 238.5t226 328.5q45 66 102 66 q102 0 102 -90v-467q55 0 72 -7q33 -12 33 -57t-33 -55q-16 -6 -72 -6l6 -107q0 -106 -78.5 -106t-78.5 106l4 107h-365q-47 0 -47 49zM1032 326h242v409h-4z" />
<glyph unicode="&#xbf;" horiz-adv-x="784" d="M-24.5 -10q-0.5 166 92 272.5t251.5 138.5l-8 140q0 164 99 164q90 0 90 -97v-233q0 -92 -83 -124t-163 -61q-86 -51 -86 -165.5t66.5 -177t176.5 -62.5t169 61q20 23 65 115q31 61 74 61.5t67.5 -27.5t24.5 -67q0 -135 -130 -224t-287.5 -89t-284.5 100 q-133 109 -133.5 275zM305 1008q0 43 31 73.5t74 30.5t73.5 -30.5t30.5 -73.5t-30.5 -75t-73.5 -32t-74 32t-31 75z" />
<glyph unicode="&#xc0;" horiz-adv-x="1230" d="M8 59.5q0 30.5 25 96.5l452 1218q41 111 129 111t129 -111l453 -1218q25 -66 25 -97t-26 -51t-60 -20q-74 0 -125 141q-29 96 -58 193h-676q-27 -96 -55 -193q-53 -141 -127 -141q-35 0 -60.5 20.5t-25.5 51zM332 477h565l-281 797h-4zM387 1780q0 33 23.5 59.5 t60.5 26.5t131.5 -41t167 -72t72.5 -78q0 -33 -22.5 -60.5t-59.5 -27.5t-152 49q-74 35 -147.5 67t-73.5 77z" />
<glyph unicode="&#xc1;" horiz-adv-x="1230" d="M8 59.5q0 30.5 25 96.5l452 1218q41 111 129 111t129 -111l453 -1218q25 -66 25 -97t-26 -51t-60 -20q-74 0 -125 141q-29 96 -58 193h-676q-27 -96 -55 -193q-53 -141 -127 -141q-35 0 -60.5 20.5t-25.5 51zM332 477h565l-281 797h-4zM387 1675q0 47 74 78t168 72 t131 41t59.5 -26.5t22.5 -59.5q0 -45 -73 -77t-146 -67q-115 -49 -153 -49t-60.5 27.5t-22.5 60.5z" />
<glyph unicode="&#xc2;" horiz-adv-x="1230" d="M8 59.5q0 30.5 25 96.5l452 1218q41 111 129 111t129 -111l453 -1218q25 -66 25 -97t-26 -51t-60 -20q-74 0 -125 141q-29 96 -58 193h-676q-27 -96 -55 -193q-53 -141 -127 -141q-35 0 -60.5 20.5t-25.5 51zM303 1665q0 53 47 74l264 112l265 -112q47 -21 47 -74 q0 -78 -74 -78q-37 0 -107.5 31t-130.5 57q-186 -88 -237 -88q-74 0 -74 78zM332 477h565l-281 797h-4z" />
<glyph unicode="&#xc3;" horiz-adv-x="1230" d="M8 59.5q0 30.5 25 96.5l452 1218q41 111 129 111t129 -111l453 -1218q25 -66 25 -97t-26 -51t-60 -20q-74 0 -125 141q-29 96 -58 193h-676q-27 -96 -55 -193q-53 -141 -127 -141q-35 0 -60.5 20.5t-25.5 51zM309 1688q0 61 70 98q55 31 108.5 31t127 -20.5t106.5 -20.5 t71.5 20.5t63.5 20.5t44.5 -25.5t19.5 -54.5q0 -61 -61.5 -96.5t-115 -35t-127 21t-106.5 20.5t-72 -20.5t-63.5 -20.5t-45 26.5t-20.5 55.5zM332 477h565l-281 797h-4z" />
<glyph unicode="&#xc4;" horiz-adv-x="1230" d="M8 59.5q0 30.5 25 96.5l452 1218q41 111 129 111t129 -111l453 -1218q25 -66 25 -97t-26 -51t-60 -20q-74 0 -125 141q-29 96 -58 193h-676q-27 -96 -55 -193q-53 -141 -127 -141q-35 0 -60.5 20.5t-25.5 51zM313 1693q0 46 33 78.5t79 32.5t78 -32.5t32 -78.5t-32 -79 t-78 -33t-79 33t-33 79zM332 477h565l-281 797h-4zM694 1693q0 46 33 78.5t79 32.5t77.5 -32.5t31.5 -78.5t-31.5 -79t-77.5 -33t-79 33t-33 79z" />
<glyph unicode="&#xc5;" horiz-adv-x="1230" d="M8 59.5q0 30.5 25 96.5l452 1218q41 111 129 111t129 -111l453 -1218q25 -66 25 -97t-26 -51t-60 -20q-74 0 -125 141q-29 96 -58 193h-676q-27 -96 -55 -193q-53 -141 -127 -141q-35 0 -60.5 20.5t-25.5 51zM332 477h565l-281 797h-4zM422 1714q0 80 57.5 137.5 t136 57.5t135 -57.5t56.5 -137.5t-55.5 -137t-136.5 -57t-137 57t-56 137zM520 1714q0 -39 29 -66.5t66.5 -27.5t65.5 27.5t28 66.5t-28 66.5t-66 27.5t-66.5 -27.5t-28.5 -66.5z" />
<glyph unicode="&#xc6;" horiz-adv-x="1480" d="M-2 53q0 61 301 649q182 346 363 693q23 47 48 62.5t76 15.5h588q88 0 88 -84q0 -106 -227 -107q-68 0 -167 10.5t-107 10.5v-482q8 0 102 9.5t158 9.5q223 0 223 -103.5t-221 -103.5q-63 0 -158.5 9t-103.5 9v-481q8 0 112.5 10t173.5 10q236 0 236 -106q0 -84 -88 -84 h-518q-106 0 -107 166l10 156h-473q-43 -96 -84 -195q-72 -139 -141 -139q-31 0 -57.5 17.5t-26.5 47.5zM385 477h395v785h-4z" />
<glyph unicode="&#xc7;" horiz-adv-x="1159" d="M-8 749.5q0 298.5 168 507.5q180 227 481 228q115 0 252 -53q170 -66 170 -162q0 -86 -74 -86q-27 0 -84.5 44t-113.5 71.5t-150 27.5q-223 0 -348 -190q-109 -164 -109 -397.5t107 -399.5q123 -195 340 -195q119 0 247 65.5t144 65.5q72 1 72 -83q0 -90 -164 -150 q-123 -45 -264 -53l-54 -76q29 6 43 6q51 0 96.5 -32.5t45.5 -82.5q0 -178 -228 -178q-150 0 -149 74q0 55 43 55l106 -16q72 0 72 55q0 35 -76 37t-76 39q0 31 68 121q-264 29 -422 252q-143 207 -143 505.5z" />
<glyph unicode="&#xc8;" horiz-adv-x="782" d="M41 98v1276q0 98 96 99h518q88 0 88 -85t-88 -85h-434v-482h395q88 0 89 -84q0 -86 -89 -86h-395v-481h434q88 0 88 -85t-88 -85h-518q-96 0 -96 98zM150 1780q0 33 22.5 59.5t59 26.5t132 -41t168 -72t72.5 -78q0 -33 -22.5 -60.5t-60.5 -27.5t-132 42t-166.5 74 t-72.5 77z" />
<glyph unicode="&#xc9;" horiz-adv-x="782" d="M41 98v1276q0 98 96 99h518q88 0 88 -85t-88 -85h-434v-482h395q88 0 89 -84q0 -86 -89 -86h-395v-481h434q88 0 88 -85t-88 -85h-518q-96 0 -96 98zM150 1675q0 47 72.5 78t167 72t131 41t60 -26.5t23.5 -59.5q0 -45 -72.5 -77t-168 -74t-132.5 -42t-59 27.5t-22 60.5z " />
<glyph unicode="&#xca;" horiz-adv-x="782" d="M41 98v1276q0 98 96 99h518q88 0 88 -85t-88 -85h-434v-482h395q88 0 89 -84q0 -86 -89 -86h-395v-481h434q88 0 88 -85t-88 -85h-518q-96 0 -96 98zM66 1665q0 53 47 74l264 112l264 -112q47 -21 47 -74q0 -78 -74 -78q-39 0 -109 31t-128 57q-59 -27 -130 -57.5 t-108 -30.5q-74 0 -73 78z" />
<glyph unicode="&#xcb;" horiz-adv-x="782" d="M41 98v1276q0 98 96 99h518q88 0 88 -85t-88 -85h-434v-482h395q88 0 89 -84q0 -86 -89 -86h-395v-481h434q88 0 88 -85t-88 -85h-518q-96 0 -96 98zM76 1693q0 46 31.5 78.5t77.5 32.5t79 -32.5t33 -78.5t-33 -79t-79 -33t-77.5 33t-31.5 79zM457 1693q0 46 31.5 78.5 t77.5 32.5t79 -32.5t33 -78.5t-33 -79t-79 -33t-77.5 33t-31.5 79z" />
<glyph unicode="&#xcc;" horiz-adv-x="393" d="M-31 1780q0 33 22.5 59.5t59.5 26.5t132.5 -41t168 -72t72.5 -78q0 -33 -22.5 -60.5t-60.5 -27.5t-153 49q-74 35 -146.5 67t-72.5 77zM106 84v1305q0 96 91 96q90 0 90 -96v-1305q0 -96 -90 -96t-91 96z" />
<glyph unicode="&#xcd;" horiz-adv-x="393" d="M-31 1675q0 47 73 78t168 72t132 41t59.5 -26.5t22.5 -59.5q0 -45 -72.5 -77t-146.5 -67q-117 -49 -154 -49t-59.5 27.5t-22.5 60.5zM106 84v1305q0 96 91 96q90 0 90 -96v-1305q0 -96 -90 -96t-91 96z" />
<glyph unicode="&#xce;" horiz-adv-x="450" d="M-86 1665q0 53 47 74l264 112l264 -112q48 -21 48 -74q0 -78 -74 -78q-39 0 -109.5 31t-128.5 57q-59 -27 -128.5 -57.5t-108.5 -30.5q-74 0 -74 78zM135 84v1305q0 96 90 96t90 -96v-1305q0 -96 -90 -96t-90 96z" />
<glyph unicode="&#xcf;" horiz-adv-x="450" d="M-76 1693q0 46 32 78.5t78 32.5t78.5 -32.5t32.5 -78.5t-31.5 -79t-78.5 -33t-79 33t-32 79zM135 84v1305q0 96 90 96t90 -96v-1305q0 -96 -90 -96t-90 96zM305 1693q0 46 32 78.5t78 32.5t78.5 -32.5t32.5 -78.5t-31.5 -79t-78.5 -33t-79 33t-32 79z" />
<glyph unicode="&#xd0;" horiz-adv-x="1370" d="M53.5 742q-0.5 60 59.5 75q18 4 106 4q0 18 -9 144.5t-9 208.5q0 299 114 299h355q305 0 476 -208.5t171 -521.5t-150 -516q-168 -227 -473 -227h-379q-115 0 -114 303q0 82 9 212t9 149q-88 0 -106 4q-59 14 -59.5 74zM399 158h258q238 0 361 182q106 155 106 404 t-119.5 410t-359.5 161h-246v-494l158 8q176 0 176 -87t-174 -87l-160 9v-506z" />
<glyph unicode="&#xd1;" horiz-adv-x="1400" d="M135 84v1294q0 106 82 107q61 0 127 -94l737 -1069h4v1067q0 96 91 96q90 0 90 -96v-1295q0 -106 -82 -106q-61 0 -127 94l-738 1071h-4v-1069q0 -96 -90 -96t-90 96zM395 1688q0 61 62.5 95t115 34t126 -20.5t106.5 -20.5t71.5 20.5t63.5 20.5t45.5 -25.5t20.5 -54.5 q0 -61 -61.5 -96.5t-115 -35t-127 21t-107.5 20.5t-72 -20.5t-63.5 -20.5t-45 26.5t-19.5 55.5z" />
<glyph unicode="&#xd2;" horiz-adv-x="1318" d="M20 737q0 305 172 526t468 221.5t475 -231.5q163 -211 163 -516t-170.5 -527t-468.5 -222q-297 0 -468 222t-171 527zM213 736q0 -241 100 -400q119 -190 346 -191q227 0 347 191q100 159 100 400t-100 401q-119 190 -345.5 190t-347.5 -190q-100 -160 -100 -401z M432 1780q0 33 22.5 59.5t59.5 26.5t132.5 -41t168 -72t72.5 -78q0 -33 -22.5 -60.5t-59.5 -27.5t-154 49q-74 35 -146.5 67t-72.5 77z" />
<glyph unicode="&#xd3;" horiz-adv-x="1370" d="M47 737q0 305 164 516q178 231 474 231.5t476 -231.5q164 -211 164 -516t-171 -527t-468 -222t-468 222t-171 527zM240 736q0 -241 100 -400q119 -190 345 -190.5t347 190.5q101 159 101 400t-101 401q-121 190 -347 190t-345 -190q-100 -160 -100 -401zM459 1675 q0 47 72.5 78t167 72t131.5 41t60 -26.5t23 -59.5q0 -45 -72.5 -77t-168 -74t-132 -42t-59 27.5t-22.5 60.5z" />
<glyph unicode="&#xd4;" horiz-adv-x="1370" d="M47 737q0 305 164 516q178 231 474 231.5t476 -231.5q164 -211 164 -516t-171 -527t-468 -222t-468 222t-171 527zM240 736q0 -241 100 -400q119 -190 345 -190.5t347 190.5q101 159 101 400t-101 401q-121 190 -347 190t-345 -190q-100 -160 -100 -401zM375 1665 q0 53 47 74l264 112l264 -112q47 -21 47 -74q0 -78 -73 -78q-39 0 -109.5 31t-128.5 57q-59 -27 -130 -57.5t-107 -30.5q-74 0 -74 78z" />
<glyph unicode="&#xd5;" horiz-adv-x="1370" d="M47 737q0 305 164 516q178 231 474 231.5t476 -231.5q164 -211 164 -516t-171 -527t-468 -222t-468 222t-171 527zM240 736q0 -241 100 -400q119 -190 345 -190.5t347 190.5q101 159 101 400t-101 401q-121 190 -347 190t-345 -190q-100 -160 -100 -401zM381 1688 q0 61 62.5 95t114.5 34t126 -20.5t107 -20.5t71.5 20.5t63.5 20.5t45 -25.5t20 -54.5q0 -61 -62 -96.5t-115.5 -35t-126.5 21t-107 20.5t-72.5 -20.5t-63 -20.5t-44 26.5t-19.5 55.5z" />
<glyph unicode="&#xd6;" horiz-adv-x="1318" d="M20 737q0 305 172 526t468 221.5t475 -231.5q163 -211 163 -516t-170.5 -527t-468.5 -222q-297 0 -468 222t-171 527zM213 736q0 -241 100 -400q119 -190 346 -191q227 0 347 191q100 159 100 400t-100 401q-119 190 -345.5 190t-347.5 -190q-100 -160 -100 -401z M358 1693q0 46 33 78.5t79 32.5t78 -32.5t32 -78.5t-32 -79t-79 -33t-79 33t-32 79zM739 1693q0 46 33 78.5t79 32.5t78 -32.5t32 -78.5t-32 -79t-79 -33t-79 33t-32 79z" />
<glyph unicode="&#xd7;" horiz-adv-x="1146" d="M102 125q0 55 129 181t228 218q-98 92 -199 185q-158 158 -158 213q0 31 21.5 54t52.5 23q55 0 215 -163q92 -98 182 -197q92 98 183 197q160 164 215 163q31 0 52 -23.5t21 -53.5q0 -55 -157 -213q-100 -92 -199 -185q98 -92 199 -186q157 -158 157 -213 q0 -31 -21.5 -54.5t-51.5 -23.5q-55 0 -215 164q-92 100 -183 199q-90 -98 -182 -199q-160 -164 -215 -164q-31 0 -52.5 23.5t-21.5 54.5z" />
<glyph unicode="&#xd8;" horiz-adv-x="1454" d="M66 27q6 37 61 102t102 119q-141 209 -141 501.5t172 513.5t467 222q248 0 414 -164q43 53 84 104q68 76 100 76q64 0 64 -57q0 -25 -72 -113l-94 -106q143 -205 143 -499t-171 -516t-468 -222q-248 0 -414 166q-29 -45 -93.5 -114t-94.5 -69q-41 0 -59 56zM281 756.5 q0 -220.5 71 -363.5l680 803q-117 131 -305 131q-225 0 -346 -190q-100 -160 -100 -380.5zM422 279q115 -133 305 -134q227 0 346 191q101 159 101 380.5t-70 366.5z" />
<glyph unicode="&#xd9;" horiz-adv-x="1312" d="M131 584v805q0 96 90 96q106 0 107 -211q0 -74 -17.5 -276.5t-17.5 -311.5q0 -250 76 -377q98 -164 327 -164t328 164q76 127 76 377q0 109 -17.5 311.5t-17.5 276.5q0 211 106 211q90 0 91 -96v-805q0 -287 -142 -439q-143 -158 -424 -157q-281 0 -423 154.5t-142 441.5 zM469 1780q0 33 22.5 59.5t59.5 26.5t132.5 -41t168 -72t72.5 -78q0 -33 -22.5 -60.5t-60.5 -27.5t-153 49q-74 35 -146.5 67t-72.5 77z" />
<glyph unicode="&#xda;" horiz-adv-x="1312" d="M131 584v805q0 96 90 96q106 0 107 -211q0 -74 -17.5 -276.5t-17.5 -311.5q0 -250 76 -377q98 -164 327 -164t328 164q76 127 76 377q0 109 -17.5 311.5t-17.5 276.5q0 211 106 211q90 0 91 -96v-805q0 -287 -142 -439q-143 -158 -424 -157q-281 0 -423 154.5t-142 441.5 zM469 1675q0 47 72.5 78t168 72t132.5 41t59.5 -26.5t22.5 -59.5q0 -45 -73 -77t-146 -67q-115 -49 -153 -49t-60.5 27.5t-22.5 60.5z" />
<glyph unicode="&#xdb;" horiz-adv-x="1312" d="M131 584v805q0 96 90 96q106 0 107 -211q0 -74 -17.5 -276.5t-17.5 -311.5q0 -250 76 -377q98 -164 327 -164t328 164q76 127 76 377q0 109 -17.5 311.5t-17.5 276.5q0 211 106 211q90 0 91 -96v-805q0 -287 -142 -439q-143 -158 -424 -157q-281 0 -423 154.5t-142 441.5 zM385 1665q0 53 47 74l264 112l265 -112q47 -21 47 -74q0 -78 -74 -78q-39 0 -108.5 31t-129.5 57q-59 -27 -128.5 -57.5t-108.5 -30.5q-74 0 -74 78z" />
<glyph unicode="&#xdc;" horiz-adv-x="1288" d="M78 584v805q0 96 90 96q109 0 108 -211q0 -74 -18 -276.5t-18 -311.5q0 -250 75 -377q98 -164 328.5 -164t327.5 164q78 127 78 377q0 109 -18.5 311.5t-18.5 276.5q0 211 106 211q90 0 90 -96v-805q0 -287 -142 -442t-423 -154q-281 0 -423 154.5t-142 441.5zM342 1693 q0 46 33 78.5t79 32.5t77.5 -32.5t31.5 -78.5t-31.5 -79t-77.5 -33t-79 33t-33 79zM723 1693q0 46 32.5 78.5t79 32.5t78 -32.5t31.5 -78.5t-31.5 -79t-77.5 -33t-79 33t-33 79z" />
<glyph unicode="&#xdd;" horiz-adv-x="919" d="M-49 1411q0 33 23.5 53.5t58.5 20.5q80 0 239 -271q94 -172 189 -344q92 172 186 344q160 270 242 271q33 0 57.5 -20.5t24.5 -60.5t-153 -285.5t-267 -428.5v-606q0 -96 -90 -96t-90 96v606q-420 653 -420 721zM233 1675q0 47 73 78t167.5 72t131 41t60 -26.5 t23.5 -59.5q0 -45 -73.5 -77t-147.5 -67q-115 -49 -152 -49t-59.5 27.5t-22.5 60.5z" />
<glyph unicode="&#xde;" horiz-adv-x="978" d="M27 84v1305q0 96 92 96t92 -142l-4 -102q360 0 502 -57q243 -97 243 -401t-245 -402q-145 -57 -500 -57l8 -160q0 -176 -98 -176q-90 0 -90 96zM207 479h266q129 0 214 86t85 219t-84 216t-223 83h-258v-604z" />
<glyph unicode="&#xdf;" horiz-adv-x="1056" d="M70 76v1089q0 188 103 310t276.5 122t297 -109.5t123.5 -266.5q0 -238 -157 -349q131 -33 202.5 -150.5t71.5 -279t-113.5 -308.5t-291.5 -146q-119 0 -119 84q0 66 86 82q121 20 160 51q86 70 86 251t-88 253q-43 35 -164 67q-88 25 -88 74q0 57 61 80q90 35 113 59 q61 61 61 211q0 100 -61.5 170t-161.5 70q-233 0 -234 -461q0 -123 19.5 -373t19.5 -346q0 -272 -112 -272q-90 0 -90 88z" />
<glyph unicode="&#xe0;" horiz-adv-x="1097" d="M74 550q0 228 129 395t350 167q166 0 297 -145h4q0 72 10 96q16 49 63.5 49t71 -25.5t23.5 -62.5v-948q0 -37 -23.5 -62.5t-60.5 -25.5q-61 0 -78 57q-6 23 -6 109h-4q-115 -166 -297 -166q-221 0 -350 167t-129 395zM254 551q0 -162 68 -272q80 -133 231 -134 q152 0 233 134q66 110 66 272t-66 272q-82 133 -233 133q-152 0 -231 -133q-68 -111 -68 -272zM344 1448q0 33 23.5 59.5t60.5 26.5t131.5 -41t167 -72t72.5 -78q0 -33 -22.5 -60.5t-59.5 -27.5t-132.5 42.5t-168 74t-72.5 76.5z" />
<glyph unicode="&#xe1;" horiz-adv-x="1097" d="M74 550q0 228 129 395t350 167q166 0 297 -145h4q0 72 10 96q16 49 63.5 49t71 -25.5t23.5 -62.5v-948q0 -37 -23.5 -62.5t-60.5 -25.5q-61 0 -78 57q-6 23 -6 109h-4q-115 -166 -297 -166q-221 0 -350 167t-129 395zM254 551q0 -162 68 -272q80 -133 231 -134 q152 0 233 134q66 110 66 272t-66 272q-82 133 -233 133q-152 0 -231 -133q-68 -111 -68 -272zM344 1343q0 47 72.5 78t168 72t132.5 41t59.5 -26.5t22.5 -59.5q0 -45 -73 -77t-167 -73.5t-132 -42t-60.5 27.5t-22.5 60z" />
<glyph unicode="&#xe2;" horiz-adv-x="1097" d="M74 550q0 228 129 395t350 167q166 0 297 -145h4q0 72 10 96q16 49 63.5 49t71 -25.5t23.5 -62.5v-948q0 -37 -23.5 -62.5t-60.5 -25.5q-61 0 -78 57q-6 23 -6 109h-4q-115 -166 -297 -166q-221 0 -350 167t-129 395zM254 551q0 -162 68 -272q80 -133 231 -134 q152 0 233 134q66 110 66 272t-66 272q-82 133 -233 133q-152 0 -231 -133q-68 -111 -68 -272zM260 1333q0 53 47 74l264 113l265 -113q47 -21 47 -74q0 -78 -74 -78q-37 0 -107.5 31t-130.5 57q-186 -88 -237 -88q-74 0 -74 78z" />
<glyph unicode="&#xe3;" horiz-adv-x="1097" d="M74 550q0 228 129 395t350 167q166 0 297 -145h4q0 72 10 96q16 49 63.5 49t71 -25.5t23.5 -62.5v-948q0 -37 -23.5 -62.5t-60.5 -25.5q-61 0 -78 57q-6 23 -6 109h-4q-115 -166 -297 -166q-221 0 -350 167t-129 395zM254 551q0 -162 68 -272q80 -133 231 -134 q152 0 233 134q66 110 66 272t-66 272q-82 133 -233 133q-152 0 -231 -133q-68 -111 -68 -272zM266 1356q0 61 62.5 95t116 34t127 -20.5t106.5 -20.5t71.5 20.5t63.5 20.5t44.5 -25.5t19.5 -54.5q0 -61 -61.5 -96t-115 -35t-127 20.5t-106.5 20.5t-72 -20.5t-63.5 -20.5 t-45 26.5t-20.5 55.5z" />
<glyph unicode="&#xe4;" horiz-adv-x="1097" d="M74 550q0 228 129 395t350 167q166 0 297 -145h4q0 72 10 96q16 49 63.5 49t71 -25.5t23.5 -62.5v-948q0 -37 -23.5 -62.5t-60.5 -25.5q-61 0 -78 57q-6 23 -6 109h-4q-115 -166 -297 -166q-221 0 -350 167t-129 395zM254 551q0 -162 68 -272q80 -133 231 -134 q152 0 233 134q66 110 66 272t-66 272q-82 133 -233 133q-152 0 -231 -133q-68 -111 -68 -272zM270 1361q0 46 33 79t79 33t78 -33t32 -79t-32 -79t-78 -33t-79 33t-33 79zM651 1361q0 46 33 79t79 33t77.5 -33t31.5 -79t-31.5 -79t-77.5 -33t-79 33t-33 79z" />
<glyph unicode="&#xe5;" horiz-adv-x="1097" d="M74 550q0 228 129 395t350 167q166 0 297 -145h4q0 72 10 96q16 49 63.5 49t71 -25.5t23.5 -62.5v-948q0 -37 -23.5 -62.5t-60.5 -25.5q-61 0 -78 57q-6 23 -6 109h-4q-115 -166 -297 -166q-221 0 -350 167t-129 395zM254 551q0 -162 68 -272q80 -133 231 -134 q152 0 233 134q66 110 66 272t-66 272q-82 133 -233 133q-152 0 -231 -133q-68 -111 -68 -272zM379 1403q0 80 57.5 137t136 57t135 -57t56.5 -137t-56.5 -137.5t-136.5 -57.5t-136 57.5t-56 137.5zM477 1403q0 -39 29 -66.5t66.5 -27.5t65.5 27.5t28 66.5t-28 66.5 t-66 27.5t-66.5 -27.5t-28.5 -66.5z" />
<glyph unicode="&#xe6;" horiz-adv-x="1703" d="M4 551q0 227 129 394t350 167q166 0 295 -145h4q0 72 9 96q18 49 75 49q84 0 84 -133h4q41 55 128 94t159 39q203 0 331 -162.5t128 -371.5q0 -98 -101 -99h-665q4 -141 96 -235t234 -94q90 0 149.5 28t117.5 71.5t81 43.5q66 0 65 -80q0 -88 -150 -156.5t-251 -68.5 q-219 0 -322 133h-4q0 -133 -84 -133q-61 0 -78 57q-6 23 -6 109h-4q-113 -166 -295 -166q-221 0 -350 168t-129 395zM184 551q0 -162 68 -272q80 -133 231 -134q152 0 232 134q67 110 67 272t-67 272q-80 133 -232 133t-231 -133q-68 -111 -68 -272zM946 616h574 q0 137 -78 238.5t-213 101.5t-209 -99t-74 -241z" />
<glyph unicode="&#xe7;" horiz-adv-x="888" d="M51.5 563.5q-0.5 225.5 129.5 387t362 161.5q96 0 176 -25q117 -36 117 -112q0 -31 -21.5 -54.5t-50.5 -23.5t-95.5 29.5t-125.5 29.5q-152 0 -232 -123t-80 -282q0 -160 80 -283t232 -123q66 0 132 31t85 31q70 0 69.5 -74t-100.5 -113q-72 -29 -168 -32l-51 -74 q29 6 43 6q51 0 96 -32.5t45 -82.5q0 -178 -227 -178q-150 0 -150 74q0 55 43 55l107 -16q72 0 72 55q0 35 -76 37t-76 39q0 29 70 123q-193 31 -299 187.5t-106.5 382z" />
<glyph unicode="&#xe8;" horiz-adv-x="1042" d="M-2 544q0 236 133 402t349 166t346 -160.5t130 -373.5q0 -98 -100 -99h-678q0 -147 88 -240.5t234 -93.5q98 0 163.5 29.5t125 74t79.5 44.5q66 0 66 -80q0 -90 -165 -157.5t-271 -67.5q-240 0 -370 160t-130 396zM178 616h598q0 137 -77 238.5t-218 101.5t-219 -94 t-84 -246zM250 1448q0 33 22.5 59.5t59.5 26.5t132 -41t168 -72t73 -78q0 -33 -23 -60.5t-59.5 -27.5t-132 42.5t-168 74t-72.5 76.5z" />
<glyph unicode="&#xe9;" horiz-adv-x="1042" d="M-2 544q0 236 133 402t349 166t346 -160.5t130 -373.5q0 -98 -100 -99h-678q0 -147 88 -240.5t234 -93.5q98 0 163.5 29.5t125 74t79.5 44.5q66 0 66 -80q0 -90 -165 -157.5t-271 -67.5q-240 0 -370 160t-130 396zM178 616h598q0 137 -77 238.5t-218 101.5t-219 -94 t-84 -246zM250 1343q0 47 72.5 78t168 72t132.5 41t59.5 -26.5t22.5 -59.5q0 -45 -73 -77t-167.5 -73.5t-132 -42t-60 27.5t-22.5 60z" />
<glyph unicode="&#xea;" horiz-adv-x="1042" d="M-2 544q0 236 133 402t349 166t346 -160.5t130 -373.5q0 -98 -100 -99h-678q0 -147 88 -240.5t234 -93.5q98 0 163.5 29.5t125 74t79.5 44.5q66 0 66 -80q0 -90 -165 -157.5t-271 -67.5q-240 0 -370 160t-130 396zM166 1333q0 53 47 74l264 113l264 -113q47 -21 47 -74 q0 -78 -73 -78q-39 0 -108.5 31t-129.5 57q-186 -88 -237 -88q-74 0 -74 78zM178 616h598q0 137 -77 238.5t-218 101.5t-219 -94t-84 -246z" />
<glyph unicode="&#xeb;" horiz-adv-x="1042" d="M-2 544q0 236 133 402t349 166t346 -160.5t130 -373.5q0 -98 -100 -99h-678q0 -147 88 -240.5t234 -93.5q98 0 163.5 29.5t125 74t79.5 44.5q66 0 66 -80q0 -90 -165 -157.5t-271 -67.5q-240 0 -370 160t-130 396zM176 1361q0 46 33 79t79 33t77.5 -33t31.5 -79 t-31.5 -79t-78.5 -33t-79 33t-32 79zM178 616h598q0 137 -77 238.5t-218 101.5t-219 -94t-84 -246zM557 1361q0 46 33 79t79 33t77.5 -33t31.5 -79t-31.5 -79t-78.5 -33t-79 33t-32 79z" />
<glyph unicode="&#xec;" horiz-adv-x="446" d="M-4 1448q0 33 22.5 59.5t59.5 26.5t132 -41t168 -72t73 -80q0 -33 -24 -59.5t-60.5 -26.5t-131 42.5t-167 74t-72.5 76.5zM133 84v932q0 96 90 96t90 -96v-932q0 -96 -90 -96t-90 96z" />
<glyph unicode="&#xed;" horiz-adv-x="446" d="M-4 1341q0 49 72.5 80t167 72t131.5 41t60.5 -26.5t23.5 -59.5q0 -45 -73 -77t-168.5 -73.5t-132 -42t-59 26.5t-22.5 59zM133 84v932q0 96 90 96t90 -96v-932q0 -96 -90 -96t-90 96z" />
<glyph unicode="&#xee;" horiz-adv-x="446" d="M-88 1333q0 53 47 74l264 113l264 -113q48 -21 48 -74q0 -78 -74 -78q-43 0 -111.5 30t-126.5 56q-59 -27 -127 -56.5t-110 -29.5q-74 0 -74 78zM133 84v932q0 96 90 96t90 -96v-932q0 -96 -90 -96t-90 96z" />
<glyph unicode="&#xef;" horiz-adv-x="446" d="M-78 1361q0 46 32 79t78 33t78.5 -33t32.5 -79t-32.5 -79t-78.5 -33t-78 33t-32 79zM133 84v932q0 96 90 96t90 -96v-932q0 -96 -90 -96t-90 96zM303 1361q0 46 32 79t78 33t78.5 -33t32.5 -79t-32.5 -79t-78.5 -33t-78 33t-32 79z" />
<glyph unicode="&#xf0;" horiz-adv-x="1017" d="M29 543q0 221 127 389t340 168q166 0 258 -123l4 4q-66 182 -248 332q-178 -97 -238 -105q-49 20 -49 56q0 31 69.5 64.5t123.5 60.5q-57 31 -125 65.5t-68 77.5q0 66 76 65q106 0 276 -127q225 115 244.5 115t36 -17.5t16.5 -33.5q0 -41 -81 -84q-59 -27 -121 -53 q317 -287 317 -779q0 -268 -108 -434q-127 -197 -383 -196q-213 0 -344 174q-123 160 -123 381zM209 543q0 -156 72 -267q82 -131 228 -131t228 131q70 111 70 267t-70 266q-82 131 -228 131t-228 -131q-72 -111 -72 -266z" />
<glyph unicode="&#xf1;" horiz-adv-x="978" d="M57 84v932q0 96 90 96q59 0 78 -45q12 -27 13 -94l4 -4q113 143 296 143t283.5 -117.5t100.5 -300.5v-610q0 -96 -91 -96q-100 0 -100 198l19 387q0 178 -50 269q-61 115 -211 114q-150 0 -210 -114q-49 -90 -50 -269l19 -387q0 -199 -101 -198q-90 0 -90 96zM184 1356 q0 61 62.5 95t115 34t126 -20.5t107.5 -20.5t72 20.5t62.5 20.5t45 -25.5t20.5 -54.5q0 -61 -61.5 -96t-115 -35t-127 20.5t-106.5 20.5t-72 -20.5t-63.5 -20.5t-45 26.5t-20.5 55.5z" />
<glyph unicode="&#xf2;" horiz-adv-x="1036" d="M-2 550q0 228 129 395t350 167t350 -167t129 -395t-127.5 -395t-350 -167t-351.5 167t-129 395zM178 551q0 -162 68 -272q80 -133 231 -134q152 0 232 134q67 110 67 272t-67 272q-80 133 -232 133t-231 -133q-68 -111 -68 -272zM250 1448q0 33 22.5 59.5t59.5 26.5 t132 -41t168 -72t73 -78q0 -33 -23 -60.5t-59.5 -27.5t-153.5 50q-74 35 -146.5 66.5t-72.5 76.5z" />
<glyph unicode="&#xf3;" horiz-adv-x="1036" d="M-2 550q0 228 129 395t350 167t350 -167t129 -395t-127.5 -395t-350 -167t-351.5 167t-129 395zM178 551q0 -162 68 -272q80 -133 231 -134q152 0 232 134q67 110 67 272t-67 272q-80 133 -232 133t-231 -133q-68 -111 -68 -272zM250 1343q0 47 72.5 78t168 72t132.5 41 t59.5 -26.5t22.5 -59.5q0 -45 -73 -77t-167.5 -73.5t-132 -42t-60 27.5t-22.5 60z" />
<glyph unicode="&#xf4;" horiz-adv-x="1036" d="M-2 550q0 228 129 395t350 167t350 -167t129 -395t-127.5 -395t-350 -167t-351.5 167t-129 395zM166 1333q0 53 47 74l264 113l264 -113q47 -21 47 -74q0 -78 -73 -78q-39 0 -108.5 31t-129.5 57q-186 -88 -237 -88q-74 0 -74 78zM178 551q0 -162 68 -272 q80 -133 231 -134q152 0 232 134q67 110 67 272t-67 272q-80 133 -232 133t-231 -133q-68 -111 -68 -272z" />
<glyph unicode="&#xf5;" horiz-adv-x="1036" d="M-2 550q0 228 129 395t350 167t350 -167t129 -395t-127.5 -395t-350 -167t-351.5 167t-129 395zM172 1356q0 61 62.5 95t114.5 34t126 -20.5t108 -20.5t71.5 20.5t62.5 20.5t45 -25.5t20 -54.5q0 -61 -61 -96t-114.5 -35t-127 20.5t-106.5 20.5t-72 -20.5t-63.5 -20.5 t-45 26.5t-20.5 55.5zM178 551q0 -162 68 -272q80 -133 231 -134q152 0 232 134q67 110 67 272t-67 272q-80 133 -232 133t-231 -133q-68 -111 -68 -272z" />
<glyph unicode="&#xf6;" horiz-adv-x="1036" d="M-2 550q0 228 129 395t350 167t350 -167t129 -395t-127.5 -395t-350 -167t-351.5 167t-129 395zM176 1361q0 46 33 79t78 33t77.5 -33t32.5 -79t-31.5 -79t-78.5 -33t-79 33t-32 79zM178 551q0 -162 68 -272q80 -133 231 -134q152 0 232 134q67 110 67 272t-67 272 q-80 133 -232 133t-231 -133q-68 -111 -68 -272zM557 1361q0 46 33 79t78 33t77.5 -33t32.5 -79t-31.5 -79t-78.5 -33t-79 33t-32 79z" />
<glyph unicode="&#xf7;" horiz-adv-x="1132" d="M49 523q0 85 88 85h860q88 0 88 -85t-88 -85h-860q-88 0 -88 85zM420 94q0 61 42 105.5t104 44.5t105.5 -44.5t43.5 -105.5t-43 -104t-105 -43q-61 0 -104 43t-43 104zM420 952q0 61 43 104.5t104 43.5t104.5 -43.5t43.5 -104.5t-43 -105t-105.5 -44t-104.5 44t-42 105z " />
<glyph unicode="&#xf8;" horiz-adv-x="1179" d="M86 10.5q0 26.5 129 182.5q-104 141 -104 363t128.5 389t350.5 167q172 0 293 -104q33 41 65 84q51 59 82 59q64 0 64 -59q0 -31 -52 -97q-39 -43 -75 -86q102 -156 102 -371.5t-129 -382.5t-350 -167q-172 0 -291 106q-33 -43 -76 -93t-72 -50t-47 16.5t-18 43z M290.5 571q0.5 -141 41.5 -235l446 543q-74 78 -188 77q-152 0 -232 -133q-68 -111 -67.5 -252zM401 221q72 -76 189 -76q152 0 231 134q68 110 68 252.5t-41 234.5z" />
<glyph unicode="&#xf9;" horiz-adv-x="1046" d="M137 426v590q0 96 90 96q100 0 101 -192l-21 -404q0 -371 262 -371t262 371q0 72 -11 210t-11 194q0 193 102 192q90 0 90 -96v-590q0 -205 -114.5 -321.5t-317.5 -116.5t-317.5 116.5t-114.5 321.5zM342 1448q0 33 22.5 59.5t59.5 26.5t132 -41t168 -72t73 -78 q0 -33 -22.5 -60.5t-60.5 -27.5t-132.5 42.5t-167 74t-72.5 76.5z" />
<glyph unicode="&#xfa;" horiz-adv-x="1046" d="M137 426v590q0 96 90 96q100 0 101 -192l-21 -404q0 -371 262 -371t262 371q0 72 -11 210t-11 194q0 193 102 192q90 0 90 -96v-590q0 -205 -114.5 -321.5t-317.5 -116.5t-317.5 116.5t-114.5 321.5zM342 1343q0 47 72.5 78t167 72t131.5 41t60.5 -26.5t23.5 -59.5 q0 -45 -73 -77t-168.5 -73.5t-132 -42t-59 27.5t-22.5 60z" />
<glyph unicode="&#xfb;" horiz-adv-x="1046" d="M137 426v590q0 96 90 96q100 0 101 -192l-21 -404q0 -371 262 -371t262 371q0 72 -11 210t-11 194q0 193 102 192q90 0 90 -96v-590q0 -205 -114.5 -321.5t-317.5 -116.5t-317.5 116.5t-114.5 321.5zM258 1333q0 53 47 74l264 113l265 -113q47 -21 47 -74q0 -78 -74 -78 q-39 0 -109.5 31t-128.5 57q-59 -27 -129.5 -57.5t-107.5 -30.5q-74 0 -74 78z" />
<glyph unicode="&#xfc;" horiz-adv-x="1046" d="M137 426v590q0 96 90 96q100 0 101 -192l-21 -404q0 -371 262 -371t262 371q0 72 -11 210t-11 194q0 193 102 192q90 0 90 -96v-590q0 -205 -114.5 -321.5t-317.5 -116.5t-317.5 116.5t-114.5 321.5zM268 1361q0 46 32 79t78 33t78.5 -33t32.5 -79t-32.5 -79t-78.5 -33 t-78 33t-32 79zM649 1361q0 46 32 79t78 33t78.5 -33t32.5 -79t-32.5 -79t-78.5 -33t-78 33t-32 79z" />
<glyph unicode="&#xfd;" horiz-adv-x="796" d="M-23 1036q0 33 26 54.5t56 21.5q68 0 91 -68l249 -755h4l246 755q23 68 86 68q33 0 57.5 -21.5t24.5 -54.5q0 -94 -173 -572t-306 -843q-23 -68 -88 -67q-31 0 -56.5 21.5t-25.5 60t51 171.5t90 232q-94 252 -212.5 573.5t-119.5 423.5zM170 1343q0 47 73.5 78t168 72 t131.5 41t59.5 -26.5t22.5 -59.5q0 -45 -73 -77t-167 -73.5t-132 -42t-60.5 27.5t-22.5 60z" />
<glyph unicode="&#xfe;" horiz-adv-x="1056" d="M59 -350v1849q0 98 91 98q106 0 106 -292q0 -82 -8 -205t-8 -137h4q76 150 291 149q215 0 339.5 -169t124.5 -392t-124.5 -393t-327 -170t-303.5 149h-4q0 -14 8 -125.5t8 -185.5q0 -272 -106 -272q-90 0 -91 96zM221 551q0 -162 66 -272q80 -133 232.5 -133.5 t232.5 133.5q67 110 67 272t-67 272q-80 133 -233 133t-232 -133q-66 -111 -66 -272z" />
<glyph unicode="&#xff;" horiz-adv-x="860" d="M10 1036q0 33 24.5 54.5t57.5 21.5q68 0 90 -68l250 -755h4l246 755q23 68 86 68q33 0 57.5 -21.5t24.5 -54.5q0 -94 -173 -572t-306 -843q-25 -68 -88 -67q-33 0 -57.5 21.5t-24.5 60t51 171.5t90 232q-94 252 -190 506q-141 389 -142 491zM129 1361q0 46 33 79t78 33 t77.5 -33t32.5 -79t-31.5 -79t-78.5 -33t-79 33t-32 79zM510 1361q0 46 32.5 79t78.5 33q45 0 77.5 -33t32.5 -79t-31.5 -79t-78.5 -33t-79 33t-32 79z" />
<glyph unicode="&#x152;" horiz-adv-x="1818" d="M25 737q0 303 171.5 525t467.5 223q250 0 432 -207q0 109 4 127q18 68 92 68h494q88 0 88 -84q0 -102 -232 -103q-61 0 -156.5 8.5t-109.5 8.5v-482q14 0 104 7.5t150 7.5q229 0 229 -99.5t-225 -99.5l-258 14v-481q14 0 114.5 8t163.5 8q240 0 240 -102q0 -84 -88 -84 h-514q-98 0 -98 133q0 14 1 42t1 40h-4q-72 -104 -188 -165.5t-240 -61.5q-295 0 -467.5 223t-171.5 526zM217 736q0 -241 100 -400q119 -190 347 -191q227 0 346 191q100 159 100 400t-100 401q-119 190 -345 190t-348 -190q-100 -160 -100 -401z" />
<glyph unicode="&#x153;" horiz-adv-x="1736" d="M2 551q0 225 123 385q133 176 350 176q250 0 395 -215q59 102 163 158.5t222 56.5q213 0 346.5 -158.5t133.5 -375.5q0 -98 -101 -99h-678q0 -154 92.5 -241.5t245.5 -87.5q92 0 152.5 28t120 71.5t80.5 43.5q66 0 65 -80q0 -90 -159.5 -157.5t-266.5 -67.5 q-293 0 -416 215q-152 -215 -383 -215t-358 169t-127 394zM182 551q0 -162 68 -272q80 -133 230.5 -133.5t230.5 133.5q65 110 65 272t-65 272q-80 133 -231 133t-230 -133q-68 -111 -68 -272zM956 616h598q0 141 -79.5 240.5t-218 99.5t-219.5 -99t-81 -241z" />
<glyph unicode="&#x178;" horiz-adv-x="980" d="M-49 1411q0 33 23.5 53.5t58.5 20.5q80 0 239 -271q94 -172 189 -344q92 172 186 344q160 270 242 271q33 0 57.5 -20.5t24.5 -60.5t-153 -285.5t-267 -428.5v-606q0 -96 -90 -96t-90 96v606q-420 653 -420 721zM160 1693q0 46 31.5 78.5t77.5 32.5t79 -32.5t33 -78.5 t-33 -79t-79 -33t-77.5 33t-31.5 79zM541 1693q0 46 31.5 78.5t77.5 32.5t79 -32.5t33 -78.5t-33 -79t-79 -33t-77.5 33t-31.5 79z" />
<glyph unicode="&#x2c6;" horiz-adv-x="608" d="M-6 1333q0 53 47 74l264 113l264 -113q47 -21 47 -74q0 -78 -73 -78q-43 0 -111.5 30t-126.5 56q-59 -27 -127 -56.5t-110 -29.5q-74 0 -74 78z" />
<glyph unicode="&#x2dc;" horiz-adv-x="589" d="M-10 1356q0 61 62 95t114.5 34t126.5 -20.5t107 -20.5t71.5 20.5t63 20.5t45 -25.5t20.5 -54.5q0 -61 -61.5 -96t-114.5 -35t-127 20.5t-108 20.5t-71.5 -20.5t-63.5 -20.5t-45 26.5t-19 55.5z" />
<glyph unicode="&#x2000;" horiz-adv-x="954" />
<glyph unicode="&#x2001;" horiz-adv-x="1909" />
<glyph unicode="&#x2002;" horiz-adv-x="954" />
<glyph unicode="&#x2003;" horiz-adv-x="1909" />
<glyph unicode="&#x2004;" horiz-adv-x="636" />
<glyph unicode="&#x2005;" horiz-adv-x="477" />
<glyph unicode="&#x2006;" horiz-adv-x="318" />
<glyph unicode="&#x2007;" horiz-adv-x="318" />
<glyph unicode="&#x2008;" horiz-adv-x="238" />
<glyph unicode="&#x2009;" horiz-adv-x="381" />
<glyph unicode="&#x200a;" horiz-adv-x="106" />
<glyph unicode="&#x2010;" horiz-adv-x="655" d="M39 555q0 33 22.5 55.5t55.5 22.5h422q31 0 54 -22.5t23 -55.5t-22.5 -56.5t-54.5 -23.5h-422q-33 0 -55.5 23.5t-22.5 56.5z" />
<glyph unicode="&#x2011;" horiz-adv-x="655" d="M39 555q0 33 22.5 55.5t55.5 22.5h422q31 0 54 -22.5t23 -55.5t-22.5 -56.5t-54.5 -23.5h-422q-33 0 -55.5 23.5t-22.5 56.5z" />
<glyph unicode="&#x2012;" horiz-adv-x="655" d="M39 555q0 33 22.5 55.5t55.5 22.5h422q31 0 54 -22.5t23 -55.5t-22.5 -56.5t-54.5 -23.5h-422q-33 0 -55.5 23.5t-22.5 56.5z" />
<glyph unicode="&#x2013;" horiz-adv-x="1132" d="M55 555q0 33 22.5 55.5t55.5 22.5h868q31 0 54.5 -22.5t23.5 -55.5t-23.5 -56.5t-54.5 -23.5h-868q-33 0 -55.5 23.5t-22.5 56.5z" />
<glyph unicode="&#x2014;" horiz-adv-x="2234" d="M16 555q0 33 22.5 55.5t55.5 22.5h2048q31 0 54.5 -22.5t23.5 -55.5t-23.5 -56.5t-54.5 -23.5h-2048q-33 0 -55.5 23.5t-22.5 56.5z" />
<glyph unicode="&#x2018;" horiz-adv-x="329" d="M8 1111q0 40 48.5 132.5t87 167t98.5 74.5q33 0 57.5 -22.5t24.5 -62.5t-49.5 -132.5t-88.5 -167t-96 -74.5q-33 0 -57.5 22.5t-24.5 62.5z" />
<glyph unicode="&#x2019;" horiz-adv-x="329" d="M8 1111q0 40 48.5 132.5t87 167t98.5 74.5q33 0 57.5 -22.5t24.5 -62.5t-49.5 -132.5t-88.5 -167t-96 -74.5q-33 0 -57.5 22.5t-24.5 62.5z" />
<glyph unicode="&#x201a;" horiz-adv-x="503" d="M94 -176q0 39 49.5 132t88 168t96.5 75q33 0 57.5 -22.5t24.5 -62.5t-58 -153q-41 -72 -80 -146.5t-96 -74.5q-33 0 -57.5 22.5t-24.5 61.5z" />
<glyph unicode="&#x201c;" horiz-adv-x="604" d="M-2 1111q0 40 49 132.5t88 167t96 74.5q33 0 57.5 -22.5t24.5 -62.5t-48 -132.5t-87 -167t-98 -74.5q-33 0 -57.5 22.5t-24.5 62.5zM289 1111q0 40 49 132.5t88 167t96 74.5q33 0 57.5 -22.5t24.5 -62.5t-48 -132.5t-87 -167t-98 -74.5q-33 0 -57.5 22.5t-24.5 62.5z" />
<glyph unicode="&#x201d;" horiz-adv-x="604" d="M-2 1111q0 40 49 132.5t88 167t96 74.5q33 0 57.5 -22.5t24.5 -62.5t-48 -132.5t-87 -167t-98 -74.5q-33 0 -57.5 22.5t-24.5 62.5zM289 1111q0 40 49 132.5t88 167t96 74.5q33 0 57.5 -22.5t24.5 -62.5t-48 -132.5t-87 -167t-98 -74.5q-33 0 -57.5 22.5t-24.5 62.5z" />
<glyph unicode="&#x201e;" horiz-adv-x="763" d="M78 -176q0 39 49 132t88 168t96 75q33 0 57.5 -22.5t24.5 -62.5t-48 -132.5t-87 -167t-98 -74.5q-33 0 -57.5 22.5t-24.5 61.5zM369 -176q0 39 49 132t88 168t96 75q33 0 57.5 -22.5t24.5 -62.5t-48 -132.5t-87 -167t-98 -74.5q-33 0 -57.5 22.5t-24.5 61.5z" />
<glyph unicode="&#x2026;" horiz-adv-x="1929" d="M178 92q0 43 31 75t74 32t73.5 -32t30.5 -75t-30.5 -73.5t-73.5 -30.5t-74 30.5t-31 73.5zM860 92q0 43 31 75t74 32t73.5 -32t30.5 -75t-30.5 -73.5t-73.5 -30.5t-74 30.5t-31 73.5zM1542 92q0 43 31 75t74 32t73.5 -32t30.5 -75t-30.5 -73.5t-73.5 -30.5t-74 30.5 t-31 73.5z" />
<glyph unicode="&#x202f;" horiz-adv-x="381" />
<glyph unicode="&#x2039;" horiz-adv-x="438" d="M41 555l203 367q31 55 69 55q82 0 82 -74q0 -37 -84 -180q-55 -84 -108 -168q53 -86 122.5 -199.5t69.5 -150.5q0 -72 -82 -72q-39 0 -69 53z" />
<glyph unicode="&#x203a;" horiz-adv-x="397" d="M23 205q0 37 69.5 150.5t122.5 199.5q-53 84 -122.5 197.5t-69.5 150.5q0 74 81 74q39 0 70 -55l203 -367l-203 -369q-31 -53 -70 -53q-82 0 -81 72z" />
<glyph unicode="&#x205f;" horiz-adv-x="477" />
<glyph unicode="&#x2122;" horiz-adv-x="1947" d="M78 1405q0 68 65 68h557q66 0 66 -68q0 -78 -125 -78l-135 8v-630q0 -88 -84 -89q-84 0 -84 89v630l-133 -8q-127 0 -127 78zM930 694v654q0 137 129 137q109 0 137 -80l205 -541l201 541q31 80 137 80q129 0 129 -137v-654q0 -33 -22.5 -55.5t-54.5 -22.5t-55.5 23 t-23.5 55v596h-4l-221 -598q-27 -76 -87 -76t-89 76l-221 598h-5v-596q0 -33 -22.5 -55.5t-54 -22.5t-55 23t-23.5 55z" />
<glyph unicode="&#xe000;" horiz-adv-x="1116" d="M0 0v1116h1116v-1116h-1116z" />
</font>
</defs>
</svg>
