<?xml version="1.0" standalone="no"?>
<!DOCTYPE svg PUBLIC "-//W3C//DTD SVG 1.1//EN" "http://www.w3.org/Graphics/SVG/1.1/DTD/svg11.dtd" >
<svg xmlns="http://www.w3.org/2000/svg">
<metadata></metadata>
<defs>
<font id="VagBoldRegular" horiz-adv-x="1176" >
<font-face units-per-em="2048" ascent="1638" descent="-410" />
<missing-glyph horiz-adv-x="549" />
<glyph horiz-adv-x="0" />
<glyph horiz-adv-x="2048" />
<glyph unicode=" "  horiz-adv-x="549" />
<glyph unicode="&#x09;" horiz-adv-x="549" />
<glyph unicode="&#xa0;" horiz-adv-x="549" />
<glyph unicode="!" horiz-adv-x="684" d="M88 144q0 75 53 127.5t128 52.5q72 0 124 -53.5t52 -126.5t-51.5 -125t-124.5 -52q-76 0 -128.5 51t-52.5 126zM109 596v709q0 81 39 132q42 56 121 56q72 0 117 -57q42 -53 42 -127v-713q0 -78 -38 -128q-41 -56 -117 -56q-77 0 -122 54q-42 51 -42 130z" />
<glyph unicode="&#x22;" horiz-adv-x="908" d="M160 981v350q0 60 38.5 99t98.5 39q62 0 98.5 -38t36.5 -100v-350q0 -66 -39 -104q-42 -41 -96 -41q-59 0 -98 42.5t-39 102.5zM555 981v350q0 60 38.5 99t98.5 39q62 0 99 -38t37 -100v-350q0 -66 -39 -104q-42 -41 -97 -41q-51 0 -96 42q-41 38 -41 103z" />
<glyph unicode="#" horiz-adv-x="1229" d="M97 508q0 101 100 101h102l33 243h-80q-96 0 -96 101q0 96 96 96h113l39 315q13 109 116 109q93 0 93 -105l-45 -319h184l45 315q16 109 111 109q92 0 92 -84v-17l-43 -323h80q96 0 96 -96q0 -101 -96 -101h-105l-35 -243h80q98 0 98 -101q0 -100 -98 -100h-108l-45 -311 q-7 -50 -33 -80t-82 -30q-92 0 -92 81l4 24l39 316h-185l-39 -311q-14 -110 -116 -110q-92 0 -92 105l45 316h-76q-100 0 -100 100zM508 609h184l33 243h-184z" />
<glyph unicode="$" horiz-adv-x="1100" d="M117 205q8 68 43 114q41 54 104 54q56 0 93 -20q119 -64 227 -64v315l-53 17q-33 11 -104 36q-42 16 -99 48q-199 110 -199 311q0 106 37.5 191.5t101.5 146.5q127 122 316 139v94q0 62 63 62q62 0 62 -62v-94q124 0 250 -56q108 -48 108 -165q0 -61 -38 -105 q-41 -46 -101 -46q-50 9 -63 16l-39 20l-40 19l-37 14q-16 6 -40 6v-288q281 -81 396 -246q63 -92 63 -217q0 -242 -203 -387q-77 -55 -168 -80q-42 -11 -88 -11v-92q0 -60 -66 -60q-59 0 -59 60v92q-94 0 -208 28q-128 32 -190 80t-69 130zM469 1065q0 -98 115 -121v252 q-50 -9 -82.5 -45t-32.5 -86zM709 289q50 0 84 46q31 41 31 93q0 117 -115 144v-283z" />
<glyph unicode="%" horiz-adv-x="1481" d="M37 1164q0 188 159 285q73 44 161 44q182 0 276 -166q43 -76 43 -163q0 -190 -157 -286q-75 -46 -162 -46q-189 0 -278 166q-42 77 -42 166zM213 80q0 58 68 152l659 1153q28 49 61 82q26 26 66 26q49 0 87 -32t38 -80q0 -34 -21 -78q-3 -6 -15 -26l-31 -52l-660 -1149 q-63 -109 -129 -109q-49 0 -86 32.5t-37 80.5zM269 1164q0 -99 88 -99q38 0 61 30t23 69q0 38 -23.5 67t-60.5 29q-88 0 -88 -96zM727 297q0 189 160 287q75 45 162 45q132 0 227 -101q92 -99 92 -231q0 -185 -157 -283q-75 -47 -162 -47q-185 0 -279 166q-43 76 -43 164z M965 297q0 -96 84 -96q88 0 88 96q0 94 -88 94q-84 0 -84 -94z" />
<glyph unicode="&#x26;" horiz-adv-x="1440" d="M41 404q0 288 332 436q-141 135 -141 289q0 102 64 186q60 78 158 120t202 42q236 0 362 -157q62 -77 62 -183q0 -152 -115 -273q-57 -60 -137 -100l209 -239l51 69q94 127 164 127q36 0 70 -20q79 -47 79 -121q0 -75 -116 -189l-68 -67l56 -60q75 -80 75 -139 t-52.5 -98.5t-111.5 -39.5q-70 0 -130 73l-58 71q-191 -164 -459 -164q-168 0 -290 69q-136 78 -183 228q-23 74 -23 140zM361 404q0 -81 62 -133q57 -48 140 -48q135 0 256 109l-274 309q-159 -104 -184 -237zM525 1125q30 -94 122 -181q162 80 162 177q0 60 -40.5 97.5 t-100.5 37.5q-59 0 -101 -36.5t-42 -94.5z" />
<glyph unicode="'" horiz-adv-x="492" d="M4 973q8 57 25 88l186 336q44 80 129 80q62 0 107 -44.5t45 -105.5q0 -37 -21 -75l-186 -336q-49 -88 -137 -88q-57 0 -101 42q-47 45 -47 103z" />
<glyph unicode="(" horiz-adv-x="492" d="M80 572q0 432 129 749q70 172 164 172q57 0 96 -31q43 -34 43 -90v-24q0 -9 -30 -96q-64 -185 -97 -402q-20 -133 -20 -278q0 -189 38 -384q17 -86 78 -290l31 -103q0 -64 -38 -101.5t-101 -37.5q-93 0 -164 172q-54 131 -91 326q-13 67 -21 134q-17 139 -17 284z" />
<glyph unicode=")" horiz-adv-x="492" d="M17 1368q0 51 41 88t102 37q92 0 164 -172q30 -72 64 -207q65 -260 65 -542q0 -284 -65 -541q-64 -251 -136 -334q-36 -41 -92 -41q-139 0 -139 139l30 100q19 61 55 186q62 243 62 491q0 256 -62 498q-8 28 -56 184l-29 94q0 12 -4 20z" />
<glyph unicode="*" horiz-adv-x="797" d="M33 1229q0 43 29.5 70.5t72.5 27.5q54 0 97 -30l71 -50l-14 117q0 109 111 109q108 0 108 -109l-20 -117l75 54q36 26 78 26q47 0 79 -33.5t32 -80.5q0 -59 -60 -84l-108 -45l117 -52q51 -23 51 -84q0 -43 -30.5 -79.5t-78.5 -36.5q-39 7 -84 37l-71 47l20 -107 q0 -115 -112 -121q-40 -2 -76 34q-31 31 -31 87l14 107l-75 -51q-45 -31 -93 -37q-40 0 -66.5 32t-31.5 76q0 37 17 61q14 19 47 35l112 52l-92 37q-80 32 -88 108z" />
<glyph unicode="+" horiz-adv-x="1229" d="M33 580q0 51 42 96q38 41 105 41h299v299q0 63 36 103t98 40q63 0 101 -40t38 -103v-299h301q63 0 103 -39t40 -102q0 -61 -40.5 -96t-102.5 -35h-301v-301q0 -63 -36.5 -103.5t-98.5 -40.5q-61 0 -99.5 41.5t-38.5 102.5v301h-299q-66 0 -105 40q-42 43 -42 95z" />
<glyph unicode="," horiz-adv-x="549" d="M-29 -160q0 33 21 80l193 336q46 80 127 80q62 0 107.5 -43t45.5 -104q0 -41 -20 -76l-193 -336q-48 -84 -135 -84q-61 0 -103.5 43t-42.5 104z" />
<glyph unicode="-" horiz-adv-x="797" d="M47 568q0 52 47 96q44 41 115 41h455q65 0 107 -35q44 -38 44 -102q0 -62 -46 -98q-42 -34 -105 -34h-455q-73 0 -116 38q-46 40 -46 94z" />
<glyph unicode="." horiz-adv-x="549" d="M109 144q0 73 51.5 126.5t124.5 53.5q75 0 127.5 -53t52.5 -127t-52.5 -125.5t-127.5 -51.5q-73 0 -124.5 52t-51.5 125z" />
<glyph unicode="/" horiz-adv-x="832" d="M25 76q0 52 76 197l551 1050q44 84 61 107q46 63 98 63q50 0 83.5 -31t33.5 -81q0 -40 -80 -193l-551 -1053q-42 -81 -79 -127q-33 -41 -83 -41q-110 0 -110 109z" />
<glyph unicode="0" d="M37 727q0 448 270 659q137 107 336 107q297 0 463 -234q150 -214 150 -532q0 -441 -274 -653q-139 -107 -339 -107q-192 0 -333 104q-136 101 -206 284q-67 174 -67 372zM381 727q0 -243 109 -369q59 -69 153 -69q182 0 243 237q26 101 26 201q0 248 -111 376 q-60 69 -158 69q-179 0 -237 -240q-25 -104 -25 -205z" />
<glyph unicode="1" horiz-adv-x="756" d="M-8 1305q0 66 43 110.5t109 44.5h272q164 0 164 -167v-1129q0 -177 -164 -177q-79 0 -123.5 48.5t-44.5 128.5v989h-104q-67 0 -109.5 42.5t-42.5 109.5z" />
<glyph unicode="2" d="M0 144q0 82 76 163l135 144l144 157l102 117q18 20 78 110q55 82 76 151q10 32 10 59q0 127 -129 127q-64 0 -102 -45q-23 -28 -52 -104q-46 -121 -98 -146q-24 -12 -55 -12q-109 0 -151 92q-13 27 -13 59q0 275 248 411q114 62 243 62q193 0 327 -121q138 -126 138 -319 q0 -196 -147 -375q-50 -61 -164 -184q-100 -108 -154 -183h348q68 0 110 -43.5t42 -111.5t-44 -110t-112 -42h-655q-80 0 -134 31q-67 39 -67 113z" />
<glyph unicode="3" d="M0 357q0 64 44.5 109.5t107.5 45.5q99 0 145 -80q71 -124 174 -139q15 0 45 -8q73 0 122 52q46 49 46 124q0 62 -39 107q-43 49 -112 49q-42 0 -88 9q-24 4 -60 30q-46 34 -53 120q13 108 176 152q125 34 125 137q0 107 -149 107q-51 -7 -103 -51l-97 -83 q-49 -42 -99 -42q-60 0 -99 46t-39 107q30 211 261 303q105 41 225 41q105 0 209 -56q211 -114 211 -349q0 -180 -160 -291q235 -99 235 -365q0 -268 -249 -401q-120 -64 -246 -64q-121 0 -246 47q-287 108 -287 343z" />
<glyph unicode="4" d="M-17 441q0 62 42 127l512 792q70 109 215 109q154 0 228 -111q36 -55 36 -129v-625h64q172 0 172 -147q0 -150 -164 -150h-72v-147q0 -78 -43.5 -125.5t-120.5 -47.5q-71 0 -114 50q-41 47 -41 119v151h-545q-70 0 -116 31q-53 36 -53 103zM387 604h310v521h-5z" />
<glyph unicode="5" d="M4 248q0 64 42.5 110t105.5 46q55 0 108 -35q69 -46 109 -62q52 -22 102 -22q111 0 163 99q30 58 30 120q0 89 -43 149q-48 68 -133 68q-42 0 -88 -20q-11 -5 -37 -17l-64 -28q-16 -7 -55 -13q-127 0 -127 142q0 56 13 159l46 361q11 86 46.5 120.5t121.5 34.5h512 q68 0 110 -43.5t42 -111.5t-44 -110t-112 -42h-391l-25 -180q93 18 148 18q268 0 384 -241q52 -109 52 -242q0 -146 -71.5 -271t-196.5 -197.5t-273 -72.5q-168 0 -305 67q-106 51 -148 128q-22 40 -22 86z" />
<glyph unicode="6" d="M21 469q0 325 274 669q128 160 273 302q50 49 120 49q62 0 113 -46t51 -107q0 -51 -41 -97l-108 -121q-58 -63 -162 -198l4 -8q54 16 123 16q119 0 218 -68q96 -65 147 -173.5t51 -221.5q0 -115 -52 -220q-47 -95 -126 -158q-75 -60 -163 -89q-93 -31 -175 -31 q-237 0 -392 129.5t-155 372.5zM365 471q0 -75 56 -128.5t132 -53.5q106 0 162 93q25 42 25 89q0 77 -55.5 133t-131.5 56q-79 0 -133.5 -55t-54.5 -134z" />
<glyph unicode="7" horiz-adv-x="1100" d="M-8 1305q0 69 41.5 112t110.5 43h675q101 0 147 -81q21 -39 21 -86q0 -50 -14 -80l-508 -1104q-22 -47 -64 -87q-37 -35 -104 -35q-68 0 -118 43.5t-50 109.5q0 43 19 83l440 930h-440q-71 0 -112 44q-44 47 -44 108z" />
<glyph unicode="8" d="M37 457q0 215 195 336q-135 121 -135 287q0 196 144 310q132 103 331 103q298 0 417 -203q56 -96 56 -210q0 -74 -41 -160q-37 -77 -96 -127q89 -47 142.5 -142t53.5 -198q0 -226 -158 -360q-148 -126 -374 -126q-119 0 -218 36q-201 73 -278 257q-39 91 -39 197z M381 475q0 -77 57 -131.5t134 -54.5q78 0 133 54t55 132q0 111 -94 167q-44 26 -94 26q-80 0 -135.5 -55.5t-55.5 -137.5zM428 1057q0 -60 42 -102.5t102 -42.5q58 0 99.5 43.5t41.5 101.5q0 76 -71 120q-32 19 -70 19q-59 0 -101.5 -40t-42.5 -99z" />
<glyph unicode="9" d="M25 996q0 163 84 280q79 111 195 163q124 56 233 56q236 0 385 -122q117 -97 151 -264q11 -58 11 -118q0 -86 -24 -182q-25 -99 -65 -185q-42 -89 -102 -175q-75 -107 -136 -182q-64 -79 -131 -154q-52 -58 -85 -88q-60 -54 -125 -54q-60 0 -111 45.5t-57 104.5 q6 54 45 98q33 38 111 126l100 112q23 25 64 88l-5 4q-40 -8 -122 -20q-92 0 -173 42q-152 79 -215 260q-28 81 -28 165zM369 987q0 -74 55.5 -128t130.5 -54q106 0 160 92q25 43 25 90q0 77 -54.5 133t-130.5 56q-78 0 -132 -55.5t-54 -133.5z" />
<glyph unicode=":" horiz-adv-x="549" d="M109 144q0 72 52 124t124 52q75 0 127.5 -51t52.5 -125q0 -77 -52 -129t-128 -52q-74 0 -125 53t-51 128zM109 785q0 73 51.5 126.5t124.5 53.5q75 0 127.5 -53t52.5 -127t-53 -125t-127 -51q-73 0 -124.5 51.5t-51.5 124.5z" />
<glyph unicode=";" horiz-adv-x="549" d="M-33 -172q0 31 20 80l189 336q45 80 127 80q64 0 109 -42.5t45 -105.5q0 -37 -21 -75l-188 -337q-47 -84 -135 -84q-62 0 -104 43t-42 105zM109 785q0 73 51.5 126.5t124.5 53.5q75 0 127.5 -53t52.5 -127t-53 -125t-127 -51q-73 0 -124.5 51.5t-51.5 124.5z" />
<glyph unicode="&#x3c;" horiz-adv-x="1229" d="M47 580q9 61 53 97q23 18 101 54l735 340q80 37 125 37q53 0 86 -36t33 -89q0 -86 -88 -123l-668 -280l668 -281q88 -37 88 -123q0 -107 -113 -129q-56 6 -114 33l-768 356q-69 32 -92 52q-35 32 -46 92z" />
<glyph unicode="=" horiz-adv-x="1229" d="M37 336q0 135 143 135h881q135 0 135 -135q0 -61 -40.5 -96t-102.5 -35h-873q-143 0 -143 131zM37 819q0 138 143 138h873q64 0 103.5 -35t39.5 -98t-39.5 -99.5t-103.5 -36.5h-873q-143 0 -143 131z" />
<glyph unicode="&#x3e;" horiz-adv-x="1229" d="M43 176q12 89 92 123l670 281l-670 280q-64 27 -92 123q0 47 34 88q31 37 79 37q43 0 121 -28l768 -355q68 -31 99 -59q36 -34 36 -90q0 -76 -93 -120l-59 -28l-735 -340q-75 -35 -129 -41q-111 27 -121 129z" />
<glyph unicode="?" horiz-adv-x="983" d="M17 1133l12 63q28 148 207 236q124 61 243 61q202 0 350 -116q117 -92 151 -226q11 -46 11 -94q0 -237 -137 -351q-79 -66 -217 -93v-41q0 -75 -48 -118q-51 -46 -114 -46q-61 0 -112 45q-47 42 -47 115v172q0 100 112 120q63 11 109 26q100 32 100 142q0 55 -53 95 q-48 36 -105 36q-76 0 -161 -90q-45 -47 -68 -64q-39 -27 -86 -32q-134 13 -147 160zM299 144q0 73 51.5 126.5t124.5 53.5q75 0 128 -52.5t53 -127.5q0 -74 -53 -125.5t-128 -51.5q-72 0 -124 52.5t-52 124.5z" />
<glyph unicode="@" horiz-adv-x="1641" d="M72 725q0 207 106 384t288 280.5t394 103.5q281 0 480 -157q229 -180 229 -455q0 -336 -244 -500q-106 -72 -225 -92q-13 0 -51 -8q-113 0 -113 104h-4q-92 -104 -252 -104l-33 4q-211 26 -239 348l8 102q7 88 73 193q121 193 326 193q158 0 242 -125l10 45q15 67 86 67 q39 0 66.5 -24.5t27.5 -63.5v-33l-75 -432q0 -15 -4 -26q0 -25 36 -33l33 4q76 27 116 130q32 82 32 179q0 305 -239 432q-128 68 -257 68q-261 0 -422 -159q-141 -139 -168 -318l-2 -55l-4 -56q-3 -46 12 -122q24 -123 84 -212q97 -143 260 -199q116 -40 224 -40 q185 0 323 75l42 31q37 27 63 27q29 0 54.5 -21.5t25.5 -50.5q0 -38 -50 -80q-55 -46 -136 -84q-87 -40 -164 -58q-87 -20 -183 -20q-338 0 -575 248q-201 211 -201 510zM641 668q0 -132 140 -152q87 0 154 64q61 58 61 147q0 70 -40 115q-43 47 -112 47q-89 0 -144 -64 q-59 -69 -59 -157z" />
<glyph unicode="A" horiz-adv-x="1293" d="M0 140q0 67 37 167l350 945q91 247 254 247q171 0 256 -227l367 -979q29 -77 29 -149q0 -68 -45.5 -108t-114.5 -40q-127 0 -172 156l-41 141h-543l-45 -141q-49 -152 -176 -152q-156 0 -156 140zM471 600h348l-167 533h-5z" />
<glyph unicode="B" d="M80 168v1129q0 163 164 163h399q234 0 348 -182q54 -87 54 -194q0 -187 -172 -283q185 -31 257 -197q34 -79 34 -168q0 -69 -19 -139q-22 -82 -86 -152q-132 -145 -395 -145h-420q-73 0 -118.5 47t-45.5 121zM412 297h213q194 0 194 152q0 147 -206 147h-201v-299z M412 889h147q158 0 158 143q0 132 -154 132h-151v-275z" />
<glyph unicode="C" horiz-adv-x="1252" d="M43 735q0 337 202 549q200 209 523 209q243 0 365 -92q71 -54 71 -145v-18l-4 -21l-4 -21q-42 -96 -131 -96q-38 3 -74 16l-77 27l-67 20q-30 9 -66 9q-311 0 -377 -349q-8 -43 -8 -92q0 -84 23 -158q24 -82 65 -141q92 -133 284 -133q110 0 201 41q56 25 98 25 q66 0 110 -42t44 -108q0 -119 -121 -174q-162 -74 -340 -74q-170 0 -315 66q-178 81 -290 262t-112 440z" />
<glyph unicode="D" horiz-adv-x="1368" d="M80 168v1120q0 77 44 124.5t120 47.5h389q390 0 580 -307q110 -178 110 -426q0 -292 -185 -506q-191 -221 -482 -221h-404q-76 0 -124 46t-48 122zM412 307h188q163 0 273 117q62 66 85 222q7 48 7 94q0 184 -83 292q-93 121 -273 121h-197v-846z" />
<glyph unicode="E" horiz-adv-x="948" d="M80 164v1129q0 72 44 119.5t116 47.5h524q156 0 156 -155q0 -152 -156 -152h-352v-264h328q70 0 113.5 -42t43.5 -112q0 -68 -44.5 -111.5t-112.5 -43.5h-328v-273h352q168 0 168 -147q0 -160 -168 -160h-512q-76 0 -124 44.5t-48 119.5z" />
<glyph unicode="F" horiz-adv-x="908" d="M80 164v1129q0 72 44 119.5t116 47.5h512q74 0 121 -41t47 -114q0 -152 -160 -152h-348v-260h313q94 0 134 -79q18 -37 18 -79q0 -65 -43.5 -108t-108.5 -43h-313v-428q0 -77 -45.5 -123t-122.5 -46q-164 0 -164 177z" />
<glyph unicode="G" horiz-adv-x="1440" d="M43 735q0 366 250 586q195 172 471 172q220 0 373 -72q77 -36 131.5 -104t54.5 -145q0 -123 -143 -140q-60 10 -150 66l-69 43q-69 43 -189 43q-166 0 -273 -135q-50 -62 -75 -146q-24 -79 -24 -172q0 -258 163 -388q82 -66 205 -66q201 0 275 155q29 62 37 123h-195 q-112 0 -155 99q-13 28 -13 59q0 60 45 106t119 46h366q177 0 177 -185q0 -240 -111 -424q-84 -138 -242 -216q-149 -73 -319 -73q-155 0 -307 66q-197 86 -304 289q-98 184 -98 413z" />
<glyph unicode="H" horiz-adv-x="1440" d="M80 164v1133q0 176 168 176q78 0 121 -48t43 -128v-398h620v398q0 176 164 176q168 0 168 -180v-1133q0 -173 -172 -173q-75 0 -119 50q-41 47 -41 123v436h-620v-428q0 -80 -39 -128q-43 -53 -121 -53q-86 0 -129 50t-43 127z" />
<glyph unicode="I" horiz-adv-x="492" d="M80 164v1133q0 176 168 176q78 0 121 -48t43 -128v-1129q0 -80 -39 -128q-43 -53 -121 -53q-86 0 -129 50t-43 127z" />
<glyph unicode="J" horiz-adv-x="832" d="M-17 209q0 91 73 135q34 21 75 21q42 0 109 -39q43 -25 76 -37q11 -4 28 -4q26 8 37 8q80 12 80 199v813q0 105 80 148q37 20 88 20q76 0 120 -46t44 -122v-869q0 -171 -49 -264q-108 -205 -391 -205q-138 0 -241 52q-129 65 -129 190z" />
<glyph unicode="K" horiz-adv-x="1252" d="M80 160v1141q0 77 45.5 124.5t122.5 47.5q164 0 164 -180v-400l469 508q66 72 147 72q62 1 114 -53q50 -51 50 -105v-6q-3 -64 -67 -129l-394 -399l465 -504q47 -51 56 -105q0 -82 -44 -132q-47 -53 -128 -53t-164 93l-504 563v-479q0 -177 -180 -177q-72 0 -113 52 q-39 48 -39 121z" />
<glyph unicode="L" horiz-adv-x="873" d="M80 156v1141q0 176 172 176q160 0 160 -185v-981h364q160 0 160 -163q0 -64 -50 -106q-46 -38 -105 -38h-533q-68 0 -118 44.5t-50 111.5z" />
<glyph unicode="M" horiz-adv-x="1780" d="M33 140l4 30l6 56l8 55l164 944q11 63 29 116q13 38 41 68q49 64 164 64q108 0 158 -73q55 -83 98 -216l184 -571h4l199 624q31 98 96 175q52 61 148 61q88 0 150 -57q59 -55 75 -144l188 -1124v-11q0 -57 -48 -103q-49 -47 -122 -47q-143 0 -170 173l-108 696h-4 l-226 -725q-32 -104 -105 -133q-30 -11 -67 -11q-80 0 -122 35q-40 32 -64 109l-229 725h-5l-94 -647q-32 -222 -188 -222q-68 0 -112 42.5t-52 110.5z" />
<glyph unicode="N" horiz-adv-x="1405" d="M80 164v1133q0 74 43.5 123t116.5 49q77 0 172 -97l616 -768h4v697q0 74 43.5 123t116.5 49q80 0 126 -46t46 -126v-1129q0 -80 -44 -131q-46 -54 -124 -54q-84 0 -168 105l-616 768v-704q0 -81 -50 -125t-130 -44q-71 0 -113 54q-39 50 -39 123z" />
<glyph unicode="O" horiz-adv-x="1481" d="M43 727q0 442 299 646q177 120 418 120q327 0 522 -209t195 -557q0 -346 -197 -553t-520 -207q-325 0 -521 209t-196 551zM400 727q0 -189 84 -310q96 -140 276 -140q238 0 323 228q38 102 38 222q0 271 -157 394q-82 63 -204 63q-124 0 -213 -71q-73 -60 -109 -159 q-38 -104 -38 -227z" />
<glyph unicode="P" horiz-adv-x="1141" d="M80 168v1129q0 72 49.5 117.5t122.5 45.5h381q335 0 463 -249q59 -115 59 -254q0 -133 -59 -250q-120 -238 -412 -238h-272v-305q0 -80 -46 -128.5t-126 -48.5q-160 0 -160 181zM412 764h192q86 0 145.5 55.5t59.5 141.5q0 98 -60 152q-58 51 -157 51h-180v-400z" />
<glyph unicode="Q" horiz-adv-x="1481" d="M43 727q0 442 299 646q177 120 418 120q327 0 522 -209t195 -557q0 -273 -129 -467l86 -73q98 -83 98 -158q0 -60 -38 -103t-97 -43q-84 0 -202 111l-66 62q-154 -89 -369 -89q-325 0 -521 209t-196 551zM400 727q0 -219 108 -342q98 -112 248 -112q47 0 104 16 q-60 54 -73 71q-35 44 -35 93q0 61 38.5 102t98.5 41q45 0 86 -25q34 -21 105 -79q41 103 41 235q0 271 -157 394q-82 63 -204 63q-124 0 -213 -71q-73 -60 -109 -159q-38 -104 -38 -227z" />
<glyph unicode="R" horiz-adv-x="1141" d="M80 168v1129q0 72 49.5 117.5t122.5 45.5h389q314 0 435 -226q57 -108 57 -251q0 -118 -64 -210q-101 -146 -276 -177l299 -319q57 -61 57 -133q0 -75 -60 -118q-54 -39 -132 -39q-75 9 -129 77l-412 520h-4v-420q0 -80 -46 -128.5t-126 -48.5q-160 0 -160 181zM412 828 h209q73 0 126.5 43.5t53.5 115.5q0 69 -49 117.5t-119 48.5h-221v-325z" />
<glyph unicode="S" horiz-adv-x="1100" d="M8 209q8 73 47 121q44 55 113 55q38 0 104 -23l115 -40q51 -18 105 -23q24 0 33 -2q65 0 122 35q54 33 54 96q0 104 -181 160l-97 30q-136 42 -212 85q-142 80 -167 242q-7 45 -7 104q0 147 76 251.5t219 155.5q104 37 240 37q211 0 333 -90q68 -51 68 -135 q0 -67 -42 -108q-45 -44 -112 -44q-32 5 -134 33q-84 23 -136 23q-144 0 -158 -107q0 -52 31 -75q27 -20 106 -48q9 -3 17 -6l175 -58q206 -68 289 -207q52 -87 52 -214q0 -196 -104 -313q-157 -177 -445 -177q-233 0 -399 93q-96 54 -105 149z" />
<glyph unicode="T" horiz-adv-x="983" d="M-47 1305q0 155 172 155h703q172 0 172 -155q0 -152 -172 -152h-187v-989q0 -80 -43.5 -128.5t-122.5 -48.5q-78 0 -123 49t-45 128v989h-182q-172 0 -172 152z" />
<glyph unicode="U" horiz-adv-x="1405" d="M68 588v709q0 85 45.5 130.5t122.5 45.5q78 0 121 -48.5t43 -127.5v-709q0 -133 84 -216t217 -83q137 0 220 81.5t83 217.5v709q0 79 43 127.5t121 48.5q71 0 121 -48q47 -45 47 -128v-709q0 -178 -75 -318q-80 -150 -231 -228q-143 -75 -329 -75q-176 0 -317 71 q-153 76 -236 220q-80 139 -80 330z" />
<glyph unicode="V" horiz-adv-x="1213" d="M-41 1313q0 68 51.5 114t120.5 46q60 0 106 -40q40 -36 66 -106l285 -755l285 749q56 148 180 148q93 0 141 -77q23 -37 23 -79q0 -41 -29 -113l-428 -1065q-59 -148 -172 -148q-66 0 -104 34q-45 40 -76 119l-440 1122q-9 25 -9 51z" />
<glyph unicode="W" horiz-adv-x="1860" d="M-8 1309q0 72 46 118t118 46q139 0 172 -150l172 -786h4l240 764q54 172 188 172q130 0 184 -172l240 -764h4l172 786q33 150 172 150q72 0 118 -46t46 -118q0 -33 -33 -168l-231 -948q-50 -206 -223 -206q-179 0 -236 181l-213 672h-4l-211 -672q-27 -87 -88 -135 q-57 -46 -150 -46q-79 0 -137 40q-27 19 -47 57q-23 40 -35 92l-239 965h4l-18 73q-15 61 -15 95z" />
<glyph unicode="X" horiz-adv-x="1252" d="M0 148q0 41 10.5 63.5t40.5 73.5l377 500l-303 403q-45 60 -53 121q34 164 168 164q88 0 156 -92l233 -316l219 307q72 101 176 101q63 -6 108 -49q48 -46 48 -107q0 -68 -43 -125l-309 -407l385 -512q43 -57 43 -129q0 -75 -59 -118q-53 -39 -130 -39q-70 9 -131 93 l-307 420l-313 -428q-62 -85 -144 -85q-78 0 -125 42t-47 119z" />
<glyph unicode="Y" horiz-adv-x="1096" d="M-41 1336q6 62 58 99.5t118 37.5q94 0 158 -92l260 -373l258 373q64 92 154 92q66 0 116 -35q54 -39 60 -102q0 -81 -53 -152l-371 -496v-520q0 -181 -168 -181q-76 0 -120 50t-44 127v524l-368 496q-58 78 -58 152z" />
<glyph unicode="Z" horiz-adv-x="1217" d="M-25 185q0 54 66 143l623 836h-488q-176 0 -176 149q0 147 176 147h713q203 0 203 -167q0 -60 -83 -179q-7 -10 -73 -98l-532 -709h544q77 0 125 -38q52 -42 52 -117q0 -152 -177 -152h-735q-128 0 -183 47t-55 138z" />
<glyph unicode="[" horiz-adv-x="568" d="M164 -205v1557q0 141 139 141h285q49 0 83 -33.5t34 -82.5q0 -51 -33 -84t-84 -33h-139v-1373h139q117 0 117 -115q0 -50 -33.5 -83t-83.5 -33h-285q-139 0 -139 139z" />
<glyph unicode="\" horiz-adv-x="832" d="M25 1381q0 112 110 112q53 0 100 -62q19 -26 62 -108l551 -1050q80 -152 80 -197q0 -109 -117 -109q-51 0 -98 62q-19 25 -61 106l-551 1053q-76 145 -76 193z" />
<glyph unicode="]" horiz-adv-x="568" d="M25 -228q0 55 31 87t84 32h141v1369h-141q-50 0 -82.5 33.5t-32.5 83.5q0 51 32 83.5t83 32.5h280q139 0 139 -141v-1557q0 -139 -139 -139h-280q-51 0 -83 32.5t-32 83.5z" />
<glyph unicode="^" horiz-adv-x="1229" d="M135 721q0 35 29 88l315 576q48 88 138 88q87 0 135 -88l313 -576q27 -50 27 -88q0 -78 -105 -78q-93 0 -139 84l-231 426l-232 -426q-46 -84 -145 -84q-105 0 -105 78z" />
<glyph unicode="_" horiz-adv-x="1024" d="M-60 -205q0 53 60 53h1024q60 0 60 -53q0 -51 -60 -51h-1024q-60 0 -60 51z" />
<glyph unicode="`" horiz-adv-x="457" d="M-140 1481q0 60 36.5 99.5t95.5 39.5q45 0 92 -20l307 -131q70 -30 70 -113q0 -60 -37 -101.5t-96 -41.5q-46 6 -88 24l-308 131q-72 31 -72 113z" />
<glyph unicode="a" d="M29 545q0 168 80 315q61 113 170 187q115 78 229 78q187 0 293 -125q41 100 147 100q72 0 116 -47.5t44 -120.5v-780q0 -65 -39.5 -111.5t-103.5 -53.5q-121 0 -164 101q-97 -121 -272 -121q-297 0 -434 297q-66 143 -66 281zM348 545q0 -107 55 -183q62 -85 165 -85 q141 0 196 132q25 62 25 136q0 112 -53 186q-60 84 -168 84q-100 0 -158 -78q-62 -83 -62 -192z" />
<glyph unicode="b" d="M68 152v1257q0 72 42 120t113 48q72 0 118 -45.5t46 -116.5v-383q111 93 281 93q112 0 229 -78q107 -72 170 -187q78 -143 78 -315q0 -146 -60 -277q-64 -137 -177.5 -219t-260.5 -82q-173 0 -270 125q-18 -48 -65 -76.5t-99 -28.5q-62 6 -103.5 54t-41.5 111zM387 545 q0 -160 104 -233q50 -35 118 -35q104 0 165 84q54 76 54 184q0 111 -53 186q-59 84 -166 84q-108 0 -168 -83q-54 -74 -54 -187z" />
<glyph unicode="c" horiz-adv-x="948" d="M29 541q0 110 40 225q38 109 95 174q162 185 436 185q38 0 81 -8q28 -5 78 -18q189 -48 189 -191q0 -56 -32 -98q-34 -46 -88 -46q-9 0 -17 -4q-32 3 -110 30q-71 25 -113 25q-114 0 -177 -82q-58 -75 -58 -192q0 -187 131 -248q24 -11 92 -20q63 0 151 30l41 14 q27 9 43 11q57 0 96 -42q14 -15 23 -31q18 -32 18 -70q0 -144 -243 -202q-67 -16 -146 -16q-221 0 -377 173q-106 118 -141 291q-12 56 -12 110z" />
<glyph unicode="d" d="M33 541q0 95 21 174q18 69 59 145q64 117 166 187q114 78 229 78q174 0 285 -93v383q0 70 45 116t115 46q74 0 116.5 -46.5t42.5 -121.5v-1257q0 -65 -41 -112t-106 -53q-53 0 -100 28.5t-64 76.5q-93 -125 -272 -125q-115 0 -205 48q-178 95 -253 314q-38 110 -38 212z M353 545q0 -108 54 -184q61 -84 165 -84q106 0 167 83q54 75 54 185q0 115 -52 188q-58 82 -169 82q-106 0 -166 -85q-53 -74 -53 -185z" />
<glyph unicode="e" horiz-adv-x="1100" d="M33 545q0 238 157 406q163 174 402 174q145 0 265 -74t187 -204q64 -126 64 -267q0 -79 -39 -111q-34 -28 -116 -28h-576q0 -92 87 -139q69 -38 169 -38q87 0 231 68q69 33 97 33q58 0 94.5 -41.5t36.5 -100.5q0 -150 -262 -224q-117 -32 -238 -32q-346 0 -491 285 q-68 132 -68 293zM377 660h412q0 93 -101 160q-49 32 -108 32q-74 0 -138.5 -59t-64.5 -133z" />
<glyph unicode="f" horiz-adv-x="609" d="M-47 948q0 144 160 144h43v125q0 236 169 322q75 38 150 38q90 0 150 -31q76 -41 76 -122q0 -52 -28 -90q-31 -41 -81 -46l-43 -4q-25 0 -41 -8q-33 -21 -33 -100v-84h88q168 0 168 -148q0 -147 -159 -147h-97v-641q0 -78 -47 -123.5t-125 -45.5q-65 6 -106 52.5 t-41 112.5v645h-43q-160 0 -160 151z" />
<glyph unicode="g" d="M29 541q0 172 80 319q64 117 167 188q112 77 232 77q187 0 293 -125q41 100 147 100q72 0 116 -47.5t44 -120.5v-811q0 -281 -139 -418q-159 -156 -436 -156q-424 0 -482 234q12 116 134 143q20 0 42 -9l51 -21l62 -29q79 -37 185 -37q118 0 191 73t73 191v21h-4 q-90 -126 -285 -126q-282 0 -403 253q-31 65 -49 141q-19 80 -19 160zM348 545q0 -158 98 -233q50 -39 122 -39q146 0 197 133q24 62 24 139q0 112 -53 186q-60 84 -168 84q-100 0 -158 -78q-62 -83 -62 -192z" />
<glyph unicode="h" horiz-adv-x="1141" d="M72 152v1259q0 70 45 119t115 49t114.5 -48.5t44.5 -119.5v-366h5q143 80 272 80q242 0 345 -166q52 -86 52 -211v-596q0 -71 -45.5 -118t-116.5 -47q-69 0 -112 47.5t-43 117.5v508q0 85 -48 138.5t-132 53.5q-82 0 -129.5 -54.5t-47.5 -137.5v-508q0 -72 -44 -118.5 t-115 -46.5q-69 0 -114.5 47.5t-45.5 117.5z" />
<glyph unicode="i" horiz-adv-x="457" d="M68 152v784q0 72 44 120t116 48q70 0 114.5 -49t44.5 -119v-784q0 -69 -45 -117t-114 -48q-71 0 -115.5 47t-44.5 118zM75 1489q0 63 45 107.5t108 44.5t108.5 -45t45.5 -107t-46 -108.5t-108 -46.5q-63 0 -108 45.5t-45 109.5z" />
<glyph unicode="j" horiz-adv-x="457" d="M37 1389q0 80 55.5 135t135.5 55q79 0 135.5 -55.5t56.5 -134.5q0 -78 -57 -135.5t-135 -57.5q-79 0 -135 57t-56 136zM68 -289v1225q0 72 44 120t116 48q70 0 114.5 -49t44.5 -119v-1225q0 -70 -45 -117t-114 -47q-71 0 -115.5 46.5t-44.5 117.5z" />
<glyph unicode="k" horiz-adv-x="1024" d="M72 160l4 1251q0 70 45 119t115 49q74 0 117 -51.5t43 -126.5v-670l305 310q62 63 131 63q63 0 110 -41q49 -44 49 -106q-5 -59 -59 -113l-227 -227l299 -381q45 -48 45 -107q0 -66 -59 -107q-51 -35 -121 -35q-74 8 -148 105l-325 424h-5v-352q0 -75 -44.5 -126 t-118.5 -51q-71 0 -115 52q-41 48 -41 121z" />
<glyph unicode="l" horiz-adv-x="457" d="M68 152v1259q0 72 44.5 119t115.5 47q69 0 114 -48.5t45 -117.5v-1259q0 -69 -45 -117t-114 -48q-71 0 -115.5 47t-44.5 118z" />
<glyph unicode="m" horiz-adv-x="1745" d="M72 152v784q0 70 45.5 119t114.5 49q123 0 159 -104q40 60 123 94q75 31 154 31q196 0 297 -134l81 57q109 77 255 77q90 0 185 -45q185 -87 185 -332v-596q0 -72 -44 -118.5t-115 -46.5q-69 0 -114.5 47.5t-45.5 117.5v508q0 80 -39 133q-44 59 -121 59q-75 0 -120 -60 q-40 -54 -40 -132v-508q0 -72 -44 -118.5t-115 -46.5q-69 0 -114.5 47.5t-45.5 117.5v508q0 78 -40 132q-44 60 -120 60q-77 0 -121 -59q-41 -54 -41 -133v-508q0 -72 -44 -118.5t-115 -46.5q-69 0 -114.5 47.5t-45.5 117.5z" />
<glyph unicode="n" horiz-adv-x="1141" d="M72 152v784q0 70 45.5 119t114.5 49q121 0 159 -104q91 125 306 125q147 0 262 -99q106 -91 106 -278v-596q0 -69 -44 -117t-113 -48q-71 0 -115.5 47t-44.5 118v508q0 117 -85 168q-41 24 -91 24q-82 0 -131.5 -54.5t-49.5 -137.5v-508q0 -72 -44 -118.5t-115 -46.5 q-69 0 -114.5 47.5t-45.5 117.5z" />
<glyph unicode="o" horiz-adv-x="1141" d="M33 545q0 247 147.5 413.5t391.5 166.5q151 0 276 -78t194 -213q66 -133 66 -289q0 -235 -147 -405q-150 -173 -389 -173q-329 0 -472 283q-67 132 -67 295zM353 545q0 -107 50 -184q58 -88 160 -88l5 3l4 1q139 0 192 134q25 62 25 134q0 112 -51 186q-59 84 -166 84 t-167 -84q-52 -74 -52 -186z" />
<glyph unicode="p" d="M68 -285v1221q0 64 40.5 111t104.5 53q125 0 164 -100q94 121 266 121q223 0 366 -179q136 -171 136 -397q0 -175 -78 -317q-61 -112 -166 -184q-113 -77 -233 -77q-167 0 -281 89v-353q0 -68 -45 -112t-114 -44q-72 0 -116 47.5t-44 120.5zM387 545q0 -162 102 -233 q50 -35 120 -35q104 0 165 84q54 76 54 184q0 109 -54 185q-60 85 -165 85q-106 0 -167 -85q-55 -76 -55 -185z" />
<glyph unicode="q" d="M29 545q0 135 66 278q138 298 434 298q175 0 272 -121q14 48 65 76q45 24 99 24q64 0 105 -54q38 -50 38 -110v-1221q0 -74 -43.5 -121t-116.5 -47q-68 0 -113.5 44t-45.5 112v353q-113 -89 -281 -89q-120 0 -227.5 74t-171.5 187q-80 142 -80 317zM348 545 q0 -109 62 -191q58 -77 158 -77q141 0 196 132q25 62 25 136q0 161 -103 235q-50 35 -118 35q-105 0 -166 -85q-54 -76 -54 -185z" />
<glyph unicode="r" horiz-adv-x="680" d="M72 160v772q0 73 44 120.5t116 47.5q124 0 159 -100q99 125 234 124q65 0 109 -54q42 -51 42 -117q0 -72 -61 -113q-32 -22 -125.5 -51.5t-128.5 -53.5q-70 -48 -70 -167v-404q0 -177 -178 -177q-141 23 -141 173z" />
<glyph unicode="s" horiz-adv-x="873" d="M21 189q0 62 32 106q35 49 95 49q58 0 154 -48q43 -21 87 -37q28 -11 68 -11q92 0 92 64q0 40 -49 67q-8 5 -83 35l-118 47q-175 70 -224 163q-28 53 -28 136q0 205 198 313q97 52 216 52q124 0 232 -52q135 -65 135 -176q0 -59 -36.5 -98t-94.5 -39q-22 0 -58 15l-69 29 l-65 25q-29 11 -64 11q-84 0 -84 -68q0 -39 75 -71q34 -13 87 -34q26 -11 98 -41q239 -98 239 -302q0 -219 -205 -314q-94 -43 -206 -43q-205 0 -332 80q-92 58 -92 142z" />
<glyph unicode="t" horiz-adv-x="609" d="M-47 948q0 144 160 144h43v217q0 69 47 112.5t117 43.5q69 0 112 -45t43 -115v-213h88q168 0 168 -148q0 -147 -159 -147h-97v-637q0 -79 -46.5 -126t-125.5 -47q-65 6 -106 52.5t-41 112.5v645h-43q-160 0 -160 151z" />
<glyph unicode="u" horiz-adv-x="1141" d="M72 391v545q0 70 45 119t115 49t114.5 -48.5t44.5 -119.5v-495q0 -80 48.5 -128.5t128.5 -48.5q79 0 129.5 49t50.5 128v495q0 70 43 119t112 49q71 0 116.5 -48t45.5 -120v-545q0 -276 -244 -377q-112 -47 -253 -47q-214 0 -348 103q-148 114 -148 321z" />
<glyph unicode="v" horiz-adv-x="948" d="M-13 944q0 60 50 112q46 48 111 48q113 0 155 -121l168 -483h4l172 481q44 123 154 123q65 0 112.5 -47.5t47.5 -112.5q0 -58 -49 -180l-260 -647q-52 -130 -177 -130q-124 0 -176 130l-305 775q-7 35 -7 52z" />
<glyph unicode="w" horiz-adv-x="1592" d="M-13 948q0 70 47 113t118 43q115 0 151 -117l158 -516h4l144 449q21 65 30 85q21 45 55.5 72t86.5 27q75 0 107 -47q40 -57 65 -137l143 -449h4l156 516q35 117 153 117q72 0 116 -42t44 -114q0 -21 -12 -72q-1 -3 -11 -32l-26 -72l-219 -624q-28 -79 -80 -122 q-46 -39 -125 -39q-81 0 -125 44q-34 35 -63 121l-127 381h-5l-124 -381q-54 -165 -191 -165q-144 0 -201 161l-240 682q-30 85 -33 118z" />
<glyph unicode="x" horiz-adv-x="1024" d="M-17 144q0 71 54 129l283 303l-228 239q-54 57 -63 133q0 42 23 77q49 75 141 75q89 0 143 -68l176 -221l176 217q62 76 144 76q67 0 115.5 -46.5t48.5 -113.5q0 -57 -39 -100l-248 -272l278 -299q58 -62 58 -133q0 -63 -48.5 -108t-111.5 -45q-72 0 -133 69l-240 272 l-243 -281q-52 -60 -129 -60q-63 0 -110 47.5t-47 109.5z" />
<glyph unicode="y" horiz-adv-x="983" d="M0 953q0 65 45 106t111 41q118 0 164 -119l188 -485l189 452q64 152 163 152q69 0 116.5 -44t47.5 -112q0 -52 -24 -108l-496 -1152q-59 -137 -168 -137q-126 0 -156 150q9 56 29 102l131 306l-307 739q-33 79 -33 109z" />
<glyph unicode="z" horiz-adv-x="983" d="M-8 109q0 55 49 123l408 565h-281q-168 0 -168 147q0 148 168 148h617q57 0 98 -27q49 -31 49 -84q0 -44 -39 -96l-440 -588h340q168 0 168 -149q0 -148 -168 -148h-649q-152 0 -152 109z" />
<glyph unicode="{" horiz-adv-x="680" d="M4 572q0 100 101 100q96 0 96 129v432q0 260 270 260h154q92 0 92 -96q0 -50 -25.5 -66.5t-64.5 -19.5l-86 -6q-57 -23 -57 -105v-415q0 -147 -122 -193q-42 -16 -98 -16v-4q114 0 170 -57q50 -51 50 -154v-412q0 -105 116 -105q61 -8 83 -22q34 -22 34 -74 q0 -40 -26 -66t-66 -26h-150q-274 0 -274 264v353q0 148 -30 181q-17 18 -64.5 21t-73.5 27q-29 26 -29 70z" />
<glyph unicode="|" horiz-adv-x="457" d="M105 101v1343q0 135 123 135q57 0 91 -38.5t34 -96.5v-1343q0 -57 -34.5 -95.5t-90.5 -38.5q-123 0 -123 134z" />
<glyph unicode="}" horiz-adv-x="680" d="M0 -252q6 54 35 73q17 11 82 23h35q39 0 63 34q21 30 21 71v412q0 154 120 196q42 15 101 15v4q-109 0 -170 59q-51 50 -51 150v415q0 109 -119 109q-107 0 -117 88q14 96 97 96h155q268 0 268 -260v-401q0 -18 -4 -27q0 -57 24 -99q19 -34 81 -34q96 0 96 -100 q0 -41 -27.5 -69t-68.5 -28q-85 0 -95 -82q-6 -42 -6 -120v-353q0 -264 -272 -264h-151q-74 0 -97 92z" />
<glyph unicode="~" horiz-adv-x="1229" d="M84 504q9 82 29 121q59 115 193 150q38 10 75 10q83 0 267 -79l119 -51q28 -12 69 -12t81 32q33 30 67 60q39 33 73 33q40 0 66 -37q22 -33 22 -75q0 -150 -149 -235q-78 -44 -185 -44q-46 0 -96 19q-27 10 -65 25q-21 10 -55 26q-82 37 -142 57q-35 8 -57 8 q-51 0 -117 -58.5t-115 -66.5q-71 15 -80 117z" />
<glyph unicode="&#xa1;" horiz-adv-x="684" d="M88 944q0 73 53 125t128 52q72 0 124 -52.5t52 -124.5q0 -75 -51 -127.5t-125 -52.5q-75 0 -128 52.5t-53 127.5zM109 -215v707q0 79 43.5 131.5t120.5 52.5q73 0 116 -57q39 -51 39 -127v-711q0 -75 -41 -127q-45 -58 -118 -58q-79 0 -122 57q-38 51 -38 132z" />
<glyph unicode="&#xa2;" horiz-adv-x="948" d="M189 545q0 313 217 480q109 83 262 100v118q0 62 59 62q26 0 46 -20t20 -46v-114q311 -31 311 -217q0 -53 -32 -94q-34 -44 -85 -50q-38 0 -78 15q-9 2 -23 7l-52 18q-28 7 -41 7v-530q21 4 95 27q64 20 89 20q50 0 88 -47q35 -45 35 -96q0 -128 -175 -192 q-73 -26 -132 -26v-131q0 -54 -62 -64q-25 0 -44 19.5t-19 44.5v131q-218 24 -352 194q-127 161 -127 384zM508 545q0 -89 38 -158q43 -80 122 -102v520q-160 -44 -160 -260z" />
<glyph unicode="&#xa3;" horiz-adv-x="1252" d="M29 735q0 68 53 112q50 42 119 42h68l-17 43q-21 53 -27 95q-2 14 -2 34q0 291 284 390q123 42 253 42q353 0 480 -214q53 -89 53 -163q0 -62 -48.5 -104.5t-111.5 -42.5q-65 0 -124 85l-40 58q-58 84 -209 84q-78 0 -132 -39q-60 -44 -60 -120q0 -33 14 -77q3 -9 12 -32 l15 -39h196q64 0 112 -45.5t48 -108.5q0 -71 -48 -113t-120 -42h-145q0 -165 -80 -260h544q79 0 128 -40q53 -43 53 -120q0 -73 -49 -116.5t-123 -43.5h-785q-77 0 -125 41q-51 44 -51 119q0 66 70 158q83 110 98 262h-143q-67 0 -113.5 44t-46.5 111z" />
<glyph unicode="&#xa4;" horiz-adv-x="1229" d="M121 727q0 160 88 289l-49 49q-31 23 -31 68q0 40 32 73t71 33q53 0 84 -35l41 -36q123 84 286 84q165 0 293 -84l37 36q36 35 84 35q42 0 74.5 -32t32.5 -74q0 -43 -31 -68l-49 -49q84 -123 84 -289q0 -157 -84 -282l49 -49q31 -31 31 -72q0 -39 -33.5 -72t-73.5 -33 q-48 0 -84 33l-37 41q-128 -88 -293 -88q-163 0 -286 88l-41 -41q-33 -33 -84 -33q-38 0 -70.5 33.5t-32.5 71.5q0 41 31 72l49 49q-88 128 -88 282zM381 727q0 -159 130 -237q61 -37 136 -37q156 0 228 134q33 63 33 140q0 164 -128 244q-60 37 -133 37q-156 0 -231 -140 q-35 -65 -35 -141z" />
<glyph unicode="&#xa5;" d="M51 1321q6 68 54.5 110t117.5 42q100 0 158 -84l262 -381l269 381q59 84 149 84q70 0 121 -40q55 -44 55 -112q0 -56 -45 -117l-239 -323h151q40 0 70 -26t30 -66q0 -39 -28.5 -72t-67.5 -33h-297v-116h293q41 0 70.5 -28t29.5 -69q0 -39 -28.5 -68.5t-67.5 -29.5h-297 v-217q0 -77 -45.5 -123t-122.5 -46q-75 0 -121 51q-43 47 -43 122v213h-294q-38 0 -67.5 29t-29.5 67q0 43 29 71t72 28h290v116h-290q-40 0 -72.5 30.5t-32.5 70.5q0 39 31 67.5t70 28.5h155l-243 328q-38 51 -46 112z" />
<glyph unicode="&#xa6;" horiz-adv-x="373" d="M113 144v1296q0 61 28 110q34 58 91 58q58 0 94 -57q31 -50 31 -111v-1296q0 -62 -31 -112q-35 -57 -94 -57q-56 0 -90 59q-29 50 -29 110z" />
<glyph unicode="&#xa7;" d="M121 580q0 194 195 317q-103 86 -103 232q0 135 88 231q82 92 216 121q54 12 116 12q239 0 368 -145q60 -69 60 -148q0 -53 -38.5 -96t-90.5 -43q-56 0 -142 91q-89 95 -165 95q-105 0 -105 -92q0 -72 97 -131q52 -32 154 -83q235 -118 311 -230q51 -75 51 -178 q0 -229 -189 -328q47 -41 78 -95t31 -106q0 -183 -123 -287q-116 -98 -305 -98q-112 0 -213.5 37t-162 102.5t-60.5 149.5q0 58 37 95.5t94 37.5q33 0 59 -18q23 -16 61 -58q33 -37 52 -53q55 -47 137 -47q119 0 119 88q0 60 -72 111q-59 42 -180 105q-126 67 -181 104 q-194 130 -194 307zM400 625q0 -61 145 -146l223 -131q84 53 84 127q0 42 -43 80q-16 14 -78 54q-139 89 -247 147q-84 -48 -84 -131z" />
<glyph unicode="&#xa8;" horiz-adv-x="457" d="M-168 1401q0 69 35 117q38 53 104 59q69 0 117 -36q53 -39 60 -105q0 -68 -36 -117q-38 -53 -104 -59q-69 0 -117 36q-51 38 -59 105zM303 1401q0 67 40.5 118.5t105.5 57.5q152 0 176 -141q0 -69 -38 -118q-41 -52 -108 -58q-151 0 -176 141z" />
<glyph unicode="&#xa9;" horiz-adv-x="1641" d="M56 727q0 325 212.5 545.5t550.5 220.5q340 0 557 -225q207 -216 207 -541q0 -208 -93 -380q-96 -176 -271.5 -278t-399.5 -102q-336 0 -551 222q-212 217 -212 538zM293 727q0 -243 144 -406q110 -125 270 -158q52 -11 112 -11q321 0 463 286q66 132 66 289 q0 248 -141 411q-149 171 -388 171q-234 0 -380 -168.5t-146 -413.5zM445 735q0 191 105 313q110 128 298 128q196 0 294 -133q42 -57 42 -111q0 -100 -84 -100q-70 0 -109 88q-24 71 -143 71q-95 0 -144 -82q-40 -67 -40 -169t42 -174q51 -87 146 -87q104 0 139 80 q55 93 117 93q84 0 84 -93q0 -57 -57 -124q-47 -56 -106 -91q-77 -47 -177 -47q-249 0 -356 216q-51 101 -51 222z" />
<glyph unicode="&#xaa;" horiz-adv-x="764" d="M21 1153l4 15q0 83 44.5 159.5t116.5 121t158 44.5q119 0 189 -73q22 73 92 73q45 0 78 -23q37 -26 37 -69v-508q0 -92 -97 -92q-72 0 -90 34q-11 18 -20 38q-72 -72 -172 -72q-191 0 -291 166q-49 81 -49 186zM244 1145q0 -68 38 -107q41 -42 95 -42q55 0 99 45 q40 41 40 123q0 55 -39.5 94t-95.5 39q-61 0 -99 -45t-38 -107z" />
<glyph unicode="&#xab;" horiz-adv-x="1024" d="M125 576q0 103 88 168l174 129q47 35 92 35q46 0 75.5 -36t29.5 -83q0 -66 -55 -101l-181 -116l185 -123q42 -28 51 -88q0 -59 -29 -87q-22 -23 -84 -42q-39 8 -90 45l-168 123q-88 64 -88 176zM629 576q0 105 88 168l180 129q49 35 90 35q44 0 72.5 -33.5t28.5 -77.5 q0 -72 -56 -109l-176 -116l185 -123q42 -28 51 -88q0 -57 -29 -86q-22 -23 -82 -43q-39 6 -92 45l-168 123q-55 41 -71 74q-21 45 -21 102z" />
<glyph unicode="&#xac;" horiz-adv-x="1229" d="M37 819q0 138 143 138h852q96 0 130 -34t34 -130v-416q0 -145 -131 -145q-61 0 -96 43q-33 39 -33 102v311h-756q-143 0 -143 131z" />
<glyph unicode="&#xad;" horiz-adv-x="797" d="M47 568q0 52 47 96q44 41 115 41h455q65 0 107 -35q44 -38 44 -102q0 -62 -46 -98q-42 -34 -105 -34h-455q-73 0 -116 38q-46 40 -46 94z" />
<glyph unicode="&#xae;" horiz-adv-x="1641" d="M56 727q0 325 212.5 545.5t550.5 220.5q340 0 557 -225q207 -216 207 -541q0 -208 -93 -380q-96 -176 -271.5 -278t-399.5 -102q-336 0 -551 222q-212 217 -212 538zM293 727q0 -243 144 -406q110 -125 270 -158q52 -11 112 -11q321 0 463 286q66 132 66 289 q0 248 -141 411q-149 171 -388 171q-234 0 -380 -168.5t-146 -413.5zM516 428v621q0 40 26.5 66t66.5 26h256q144 0 213 -51q81 -59 81 -197q0 -93 -46 -154q-50 -67 -140 -75l143 -193q25 -34 25 -71q0 -29 -31 -50q-27 -18 -57 -18q-34 0 -55 15q-14 10 -45 53l-189 264 h-63v-236q0 -96 -92 -96q-41 0 -67 27.5t-26 68.5zM701 811h155q109 0 109 88q0 92 -109 92h-155v-180z" />
<glyph unicode="&#xb0;" horiz-adv-x="2042" />
<glyph unicode="&#xb1;" horiz-adv-x="1229" d="M37 135q0 64 40 101t103 37h873q63 0 103 -37.5t40 -100.5q0 -135 -143 -135h-873q-143 0 -143 135zM37 748q0 133 143 133h299v135q0 143 138 143q135 0 135 -143v-135h301q63 0 103 -35.5t40 -97.5q0 -135 -143 -135h-301v-138q0 -143 -135 -143q-64 0 -101 39.5 t-37 103.5v138h-299q-143 0 -143 135z" />
<glyph unicode="&#xb2;" horiz-adv-x="764" d="M37 680q6 56 51 101l248 251q113 131 113 189q0 80 -84 80q-62 0 -106 -91q-22 -46 -41 -70q-24 -24 -58 -24q-43 0 -76 24q-37 27 -37 69q0 169 172 249q77 35 158 35q172 0 263 -126q44 -63 44 -142q0 -91 -60 -179q-38 -56 -129 -142q-87 -83 -122 -123h231 q48 0 74.5 -28.5t26.5 -68.5q0 -88 -101 -88h-436q-123 0 -131 84z" />
<glyph unicode="&#xb3;" horiz-adv-x="764" d="M41 815q0 39 30 68t69 29q46 0 132 -86q22 -22 30 -28q19 -14 51 -22q12 0 20 -4q40 0 82 30q37 27 37 71q0 51 -35 74q-22 14 -81.5 24t-79.5 23q-28 20 -36 71q6 44 35 63q25 16 82 27q84 16 84 82q0 68 -100 68q-34 -5 -68 -31l-67 -51q-34 -26 -66 -27q-77 -3 -88 88 q25 134 174 186q67 23 145 23q65 0 134 -32q143 -66 143 -205q0 -108 -105 -176q158 -63 158 -224q0 -162 -176 -238q-79 -34 -154 -34q-128 0 -219 54q-102 61 -131 177z" />
<glyph unicode="&#xb4;" horiz-adv-x="457" d="M-4 1356q0 82 72 113l305 131q47 20 92 20q59 0 95 -39.5t36 -99.5q0 -83 -71 -113l-310 -131q-38 -16 -90 -24q-129 13 -129 143z" />
<glyph unicode="&#xb6;" horiz-adv-x="1268" d="M21 1096q0 202 133 283t371 81h520q123 0 123 -124v-1580q0 -125 -123 -125q-121 0 -121 125v1520h-199v-1520q0 -125 -125 -125q-54 0 -89.5 35.5t-35.5 89.5v988q-198 0 -315 75q-139 90 -139 277z" />
<glyph unicode="&#xb8;" horiz-adv-x="457" d="M21 -357q7 64 47 64q8 0 12 4l51 -17q42 -14 62 -14q67 0 67 56v12q0 54 -68 54q-63 0 -75 30l-8 20q24 51 100 148h144l-84 -109l47 4q168 -23 168 -159q0 -120 -141 -168q-64 -21 -130 -21q-173 0 -188 80q0 8 -4 16z" />
<glyph unicode="&#xb9;" horiz-adv-x="492" d="M-25 1385q0 36 28 66t73 30h193q47 0 79.5 -29t32.5 -75v-685q0 -48 -34.5 -78t-82.5 -30q-52 0 -84 32.5t-32 84.5v583h-72q-101 0 -101 101z" />
<glyph unicode="&#xba;" horiz-adv-x="740" d="M13 1149q0 201 168 298q81 46 188 46q215 0 313 -169q45 -78 45 -175q0 -94 -48 -178q-98 -170 -310 -170t-310 173q-46 80 -46 175zM232 1149q0 -62 40 -106q43 -47 97 -47q61 0 99 47q36 44 36 106t-37 105t-98 43q-60 0 -98.5 -43.5t-38.5 -104.5z" />
<glyph unicode="&#xbb;" horiz-adv-x="1024" d="M121 353q13 48 18 59q13 27 41 45l181 115l-185 125q-44 30 -51 88q0 51 28 85q30 38 79 38q44 0 96 -39l168 -125q88 -65 88 -176q0 -105 -88 -168l-176 -127q-48 -35 -97 -41l-14 4q-77 10 -88 117zM629 353l11 38q13 44 48 66l181 115l-185 125q-44 30 -51 88 q0 51 28 85q30 38 79 38q44 0 96 -39l168 -125q88 -65 88 -176q0 -105 -88 -168l-176 -127q-48 -35 -97 -41l-14 4q-78 10 -88 117z" />
<glyph unicode="&#xbc;" horiz-adv-x="1764" d="M60 1385q0 34 29 67q26 29 71 29h193q112 0 112 -104v-685q0 -47 -34.5 -77.5t-82.5 -30.5q-52 0 -84 32.5t-32 84.5v583h-72q-100 0 -100 101zM381 80q0 27 20 69q27 57 68 128l602 1050q96 168 168 168q109 0 109 -110q0 -32 -19 -68l-69 -129l-604 -1048 q-48 -84 -67 -107q-49 -62 -101 -62q-107 0 -107 109zM1028 256q0 37 39 105l318 450q36 51 68 65q38 17 96 17q176 0 176 -149v-375h55q96 0 96 -96q0 -101 -96 -101h-55v-88q0 -97 -121 -97q-111 0 -111 97v88h-356q-109 0 -109 84zM1313 369h180v260h-4z" />
<glyph unicode="&#xbd;" horiz-adv-x="1764" d="M88 1385q0 41 28 68.5t69 27.5h192q111 0 111 -104v-685q0 -47 -33.5 -77.5t-81.5 -30.5q-52 0 -84.5 32.5t-32.5 84.5v583h-71q-97 0 -97 101zM404 80q0 29 21 69l67 128l604 1050q47 82 67 106q49 62 101 62q49 0 81 -30.5t32 -79.5q0 -15 -15 -50q-8 -19 -36 -70 l-42 -77l-604 -1048q-97 -169 -168 -169q-108 0 -108 109zM1180 84q5 56 53 101q94 88 252 251q111 129 111 193q0 76 -84 76q-61 0 -103 -88q-47 -97 -104 -97q-98 0 -109 93q0 165 169 248q75 36 155 36q171 0 264 -123q45 -61 45 -141q0 -121 -102 -235 q-72 -69 -207 -213h231q101 0 101 -97q0 -40 -30 -64t-71 -24h-434q-137 0 -137 84z" />
<glyph unicode="&#xbe;" horiz-adv-x="1764" d="M51 811q4 41 34 71t71 30q50 0 107 -63q54 -61 102 -73q17 0 22 -4q50 0 83.5 30t33.5 79q0 41 -29.5 66.5t-70.5 25.5q-18 0 -27 -4q-89 12 -100 98q14 70 114 88q80 14 80 82q0 64 -75 64q-51 0 -113.5 -50.5t-106.5 -54.5q-81 0 -92 92q20 100 121 156q88 49 199 49 q63 0 135 -32q145 -65 145 -209q0 -100 -108 -177q155 -53 155 -215q0 -122 -98 -197q-103 -79 -225 -79q-127 0 -220 53q-107 60 -137 174zM488 80q0 29 21 69l67 128l604 1050q46 80 67 106q50 62 101 62q49 0 80.5 -30.5t31.5 -79.5q0 -28 -50 -120l-42 -77l-604 -1048 q-97 -169 -168 -169q-108 0 -108 109zM1028 256q0 37 39 105l318 450q32 45 66 59q38 15 98 15q75 0 123 -37q53 -40 53 -113v-366h55q96 0 96 -96q0 -101 -96 -101h-55v-88q0 -97 -121 -97q-111 0 -111 97v88h-356q-109 0 -109 84zM1313 369h180v260h-4z" />
<glyph unicode="&#xbf;" horiz-adv-x="983" d="M13 416q0 235 139 351q78 66 217 93v39q0 70 43 114t113 44q71 0 115 -41.5t44 -112.5v-172q0 -67 -46 -98q-27 -19 -108.5 -39t-113.5 -43q-47 -35 -47 -106q0 -116 131 -133q10 0 20 -5q100 0 164 97q61 92 148 92q64 0 107.5 -48t43.5 -112q0 -81 -55 -168t-184 -141 q-115 -48 -228 -48q-162 0 -294 80q-142 86 -190 233q-19 58 -19 124zM348 1323q0 76 52.5 128t128.5 52q73 0 124.5 -52.5t51.5 -127.5q0 -71 -52.5 -122.5t-123.5 -51.5q-74 0 -127.5 50t-53.5 124z" />
<glyph unicode="&#xc0;" horiz-adv-x="2845" d="M82 -25l1016 344l12 -10l-979 -334h-49zM82 -25h49l1245 -413v-19zM82 1124h49l1245 -417v-19zM82 1124l1294 439v-19l-1245 -420h-49zM117 -12h2513v-19h-2513v19zM117 1110v23h2513v-23h-2513zM219 -25h53l1104 -413v-19zM219 -25l885 334l12 -10l-844 -324h-53z M219 1124l1157 439v-19l-1104 -420h-53zM219 1124h53l1104 -417v-19zM481 -25l645 318l15 -10l-619 -308h-41zM481 -25h41l854 -413v-19zM481 1124h41l854 -417v-19zM481 1124l895 439v-19l-854 -420h-41zM618 -188h1518l-31 -19h-1460zM618 956h1518l-31 -18h-1460z M772 -25l393 285l11 -12l-373 -273h-31zM772 -25h31l573 -413v-19zM772 1124l604 439v-19l-573 -420h-31zM772 1124h31l573 -417v-19zM961 551q0 200 109.5 310t309.5 110t308 -109.5t108 -310.5q0 -197 -109.5 -306.5t-306.5 -109.5q-198 0 -308.5 109.5t-110.5 306.5z M1030 287l37 12h49l21 -12h-107zM1030 1432l37 12h619l40 -12h-696zM1038 506q0 -33 27 -33t27 31q0 28 -25 28q-6 0 -12 -2q-17 -12 -17 -24zM1044 -336h668l-31 -12h-620zM1044 811h478l8 -12h-469zM1057 446l12 -34l39 -70l18 -23l29 -24l37 -27l31 -16l28 -10l-18 18 l-23 16l-32 37l-23 25l-39 78l-6 24l-10 27l-10 -12l-11 -9h-22zM1083 -25h21l272 -413v-19zM1083 -25l293 439v-17l-272 -422h-21zM1083 1124l293 439v-19l-272 -420h-21zM1083 1124h21l272 -417v-19zM1098 319l112 35zM1110 309zM1116 299zM1137 287zM1141 283zM1176 248z M1210 354l166 60v-17l-153 -55zM1212 354zM1212 354l164 60v-17l-153 -59zM1223 340l153 74v-17l-143 -69zM1223 340zM1239 313zM1239 313l137 101v-17l-129 -94zM1251 299zM1251 299h435l40 -12h-466zM1370 406h16v-850l-16 4v846zM1370 702v850h16v-850h-16zM1376 397v17 l613 -439h-35zM1376 397v17l901 -439h-45zM1376 397v17l295 -439h-20zM1376 397v17l1159 -439h-53zM1376 397v17l1297 -439h-50zM1376 -438l275 413h20l-295 -432v19zM1376 -438l1247 413h50l-1297 -432v19zM1376 -438l1106 413h53l-1159 -432v19zM1376 -438l578 413h35 l-613 -432v19zM1376 -438l856 413h45l-901 -432v19zM1376 688v19l174 59l11 -16zM1376 688v19l170 63l13 -10zM1376 688v19l146 104l8 -12zM1376 688v19l160 77l10 -14zM1376 688v19l275 417h20zM1376 1544v19l295 -439h-20zM1376 1544v19l613 -439h-35zM1376 1544v19 l901 -439h-45zM1376 1544v19l1159 -439h-53zM1376 1544v19l1297 -439h-50zM1518 887l24 -27l19 -18l14 -17l6 -16l16 -25l9 -22l12 -37l14 14l25 19l16 2l-51 63l-25 21l-22 16l-39 17zM1530 799zM1530 799zM1546 770zM1559 760zM1561 750zM1604 870l350 254h35l-373 -268z M1604 870zM1632 831zM1632 831l600 293h45l-626 -307zM1653 811zM1653 811l829 313h53l-870 -325zM1653 811zM1653 811h59l-31 -12h-16zM1663 801zM1663 801l960 323h50l-1002 -336zM2103 158zM2103 1303z" />
<glyph unicode="&#xc1;" horiz-adv-x="6042" d="M92 -414h1612v389h-1206v775h-406v-1164zM92 1137v387h1612v-387h-1612zM2105 -414h404v776h805v-776h399v1164h-1608v-1164zM2105 1137v387h1608v-387h-1608zM4119 -25v-389h1607v1164h-1607v-388h1206v-387h-1206zM4119 1137v387h1607v-387h-1607z" />
<glyph unicode="&#xc2;" horiz-adv-x="2245" d="M102 1561l1037 -1983l1018 1983h-76v-48h10l-956 -1841l-963 1841h1909v48h-1979zM391 1368l119 -229h1241l117 229h-1477zM551 1059l121 -230h921l117 230h-1159zM575 1253q0 56 50 56h16v-27h-12q-27 0 -27 -29q0 -26 27 -26h12v-25h-16q-50 0 -50 51zM664 1260 q0 49 53 49q49 0 49 -49q0 -58 -49 -58q-53 0 -53 58zM688 1253q0 -26 29 -26q24 0 24 26q0 29 -24 29q-29 0 -29 -29zM711 756l120 -234h601l118 234h-839zM762 893l22 102h23l24 -102h-22l-2 18h-23l-2 -18h-20zM791 928h12q-6 22 -8 45zM791 1202l6 82q2 25 18 25 q19 0 21 -23l4 -49l10 53q4 19 20 19q19 0 19 -23l8 -84h-23l-8 84l-12 -67q-3 -17 -14 -17q-9 0 -9 12l-16 70l-4 -82h-20zM864 893v102h17q45 0 45 -51q0 -39 -29 -47q-4 -4 -18 -4h-15zM866 434v10h537v-10h-537zM866 434h8q74 -139 173 -309q22 -31 40 -31q24 0 29 39 q15 111 -4 111h-10l-29 -19l62 189v-506zM883 911q22 0 22 33t-22 33v-66zM885 592v22q12 -8 18 -8q12 0 12 15l-14 14q-16 16 -16 27q0 26 28 26q7 0 17 -4v-16q-8 2 -10 4q-15 0 -15 -10l15 -19q13 -17 14 -22q0 -37 -29 -37q-8 0 -20 8zM920 1202v66q0 41 36 41 q35 0 35 -37q0 -35 -35 -35h-4v25q17 0 17 10q0 12 -15 12q-10 0 -10 -12v-70h-24zM944 688h23l6 -18q4 -4 6 -19q2 6 2 19l8 18h21l-25 -55v-47h-16v47zM954 995h25l10 -75q0 9 6 30l13 45h20l-24 -102h-23zM1018 1237v72h22v-72q0 -14 11 -14q18 0 18 14v72h21v-72 q0 -35 -39 -35q-33 0 -33 35zM1022 662q0 26 25 26q12 0 22 -4v-16q-10 2 -18 4q-7 0 -7 -10l13 -19q8 -12 12 -22q0 -37 -29 -37q-8 0 -16 8v22q8 -8 14 -8q9 0 9 15l-11 14q-14 18 -14 27zM1051 893l22 102h19l28 -102h-24l-4 18h-19l-2 -18h-20zM1075 928h15l-3 45z M1087 670v18h52v-18h-17v-84h-20v84h-15zM1112 1282v27h64v-27h-17v-80h-29v80h-18zM1135 -92l268 526h-10q-107 -207 -168 -309q-19 -31 -45 -31q-23 0 -27 39q-11 111 8 111h2q17 -8 31 -19l-59 189v-506zM1153 893v102h23l18 -53q0 -6 6 -22q-2 22 -2 34v41h21v-102h-21 l-22 57q0 8 -7 19q7 -15 7 -33v-43h-23zM1161 586v102h43v-18h-24v-19h20v-20h-20v-25h24v-20h-43zM1194 1260q0 49 53 49t53 -49q0 -58 -53 -58t-53 58zM1219 1253q0 -26 28 -26q31 0 31 26q0 29 -31 29q-28 0 -28 -29zM1227 586l10 102h25l6 -37q2 -12 2 -30q2 4 6 30 l2 37h25l12 -102h-21l-6 47v37l-10 -84h-16l-13 84v-13q-2 -10 -2 -16v-8l-4 -47h-16zM1255 944q0 51 41 51h13v-22q-2 4 -9 4q-22 0 -22 -33t22 -33q7 0 9 7v-21q-2 -4 -9 -4q-45 0 -45 51zM1327 1202v66q0 41 35 41q37 0 37 -27v-2q0 -23 -23 -27q23 0 23 -16v-35h-27v35 q0 6 -14 6v23q14 0 14 8q0 10 -10 10t-10 -12v-70h-25zM1333 592v22q10 -8 15 -8q12 0 12 15l-14 14q-13 13 -13 27q0 26 27 26q8 0 14 -4v-16l-12 4q-6 0 -6 -10l10 -19q10 -14 10 -22q0 -37 -24 -37q-9 0 -19 8zM1356 893v102h37v-18h-21v-23h21v-16h-21v-20h21v-25h-37z M1430 1202v107h24v-107h-24zM1438 893v102h16q45 0 45 -51t-49 -51h-12zM1456 911q23 0 23 33t-23 33v-66zM1479 1237v72h26v-72q0 -14 15 -14q10 0 10 14v72h26v-72q0 -35 -36 -35q-41 0 -41 35zM1581 1202l4 82q1 25 23 25q12 0 16 -23l8 -49h4l4 53q1 19 23 19 q19 0 20 -23l5 -84h-23l-2 84l-16 -67q-4 -17 -11 -17q-14 0 -14 12l-12 70l-6 -82h-23z" />
<glyph unicode="&#xc3;" horiz-adv-x="2361" d="M78 1518v36h2160v-36h-2160zM78 1524h33q284 -523 684 -1162q94 -100 174 -100q91 0 108 131q25 188 25 273q0 143 -47 143h-11q-9 0 -22 -8q-91 -57 -111 -60l244 709v-1894zM1155 -444l1083 1968h-32q-293 -523 -693 -1162q-86 -100 -170 -100q-92 0 -112 131 q-25 162 -25 264q0 152 54 152h8q6 0 127 -68l-240 709v-1894z" />
<glyph unicode="&#xc4;" horiz-adv-x="1293" d="M0 140q0 67 37 167l350 945q91 247 254 247q171 0 256 -227l367 -979q29 -77 29 -149q0 -68 -45.5 -108t-114.5 -40q-127 0 -172 156l-41 141h-543l-45 -141q-49 -152 -176 -152q-156 0 -156 140zM252 1737q0 69 35 117q38 53 104 59q69 0 117 -36q53 -39 60 -105 q0 -68 -36 -117q-38 -53 -104 -59q-69 0 -117 36q-51 38 -59 105zM471 600h348l-167 533h-5zM723 1737q0 67 40.5 118.5t105.5 57.5q152 0 176 -141q0 -69 -38 -118q-41 -52 -108 -58q-151 0 -176 141z" />
<glyph unicode="&#xc5;" horiz-adv-x="1293" d="M0 140q0 67 37 167l350 945q91 247 254 247q171 0 256 -227l367 -979q29 -77 29 -149q0 -68 -45.5 -108t-114.5 -40q-127 0 -172 156l-41 141h-543l-45 -141q-49 -152 -176 -152q-156 0 -156 140zM440 1736q0 83 60.5 144t142.5 61t143 -61.5t61 -143.5 q0 -83 -60.5 -143.5t-143.5 -60.5q-119 0 -177 103q-26 46 -26 101zM471 600h348l-167 533h-5zM550 1736q0 -37 28 -64.5t65 -27.5q36 0 64 28t28 64q0 37 -27.5 64.5t-64.5 27.5q-59 0 -86 -58q-7 -15 -7 -34z" />
<glyph unicode="&#xc6;" horiz-adv-x="1704" d="M0 152q0 76 47 155l301 504l277 477q43 74 62 97q60 75 198 75h655q176 0 176 -151q0 -156 -167 -156h-340v-264h315q115 0 153 -94q11 -29 11 -64q0 -151 -168 -151h-311v-273h356q71 0 118 -39q50 -42 50 -112q0 -69 -45.5 -112.5t-118.5 -43.5h-520q-75 0 -122 40 q-50 43 -50 116v125h-465l-88 -172q-62 -122 -176 -122q-148 0 -148 165zM576 588h301v561h-4z" />
<glyph unicode="&#xc7;" horiz-adv-x="1252" d="M43 735q0 337 202 549q200 209 523 209q243 0 365 -92q71 -54 71 -145v-18l-4 -21l-4 -21q-42 -96 -131 -96q-38 3 -74 16l-77 27l-67 20q-30 9 -66 9q-311 0 -377 -349q-8 -43 -8 -92q0 -84 23 -158q24 -82 65 -141q92 -133 284 -133q110 0 201 41q56 25 98 25 q66 0 110 -42t44 -108q0 -116 -121 -174q-154 -74 -369 -74l-55 -76l49 4q164 -21 164 -159q0 -121 -142 -167q-67 -22 -130 -22q-174 0 -189 80q0 69 43 80q8 0 13 4l50 -17q41 -14 62 -14q64 0 72 56q0 44 -19 51q-23 8 -70 14q-50 6 -59 31q-2 9 -8 20q41 73 88 131 q-193 31 -333 172q-131 132 -187 327q-37 126 -37 253z" />
<glyph unicode="&#xc8;" horiz-adv-x="948" d="M80 164v1129q0 72 44 119.5t116 47.5h524q156 0 156 -155q0 -152 -156 -152h-352v-264h328q70 0 113.5 -42t43.5 -112q0 -68 -44.5 -111.5t-112.5 -43.5h-328v-273h352q168 0 168 -147q0 -160 -168 -160h-512q-76 0 -124 44.5t-48 119.5zM103 1825q0 60 36.5 99.5 t95.5 39.5q45 0 92 -20l307 -131q70 -30 70 -113q0 -60 -37 -101.5t-96 -41.5q-46 6 -88 24l-308 131q-72 31 -72 113z" />
<glyph unicode="&#xc9;" horiz-adv-x="948" d="M80 164v1129q0 72 44 119.5t116 47.5h524q156 0 156 -155q0 -152 -156 -152h-352v-264h328q70 0 113.5 -42t43.5 -112q0 -68 -44.5 -111.5t-112.5 -43.5h-328v-273h352q168 0 168 -147q0 -160 -168 -160h-512q-76 0 -124 44.5t-48 119.5zM244 1700q0 82 72 113l305 131 q47 20 92 20q59 0 95 -39.5t36 -99.5q0 -83 -71 -113l-310 -131q-38 -16 -90 -24q-129 13 -129 143z" />
<glyph unicode="&#xca;" horiz-adv-x="948" d="M59 1680q0 106 109 155l181 82q95 43 127 43q35 0 129 -43l180 -82q61 -28 83.5 -60t22.5 -95q0 -48 -28 -84q-31 -39 -78 -39t-113 30l-196 89l-195 -89q-66 -30 -113 -30t-79 39q-30 36 -30 84zM80 164v1129q0 72 44 119.5t116 47.5h524q156 0 156 -155 q0 -152 -156 -152h-352v-264h328q70 0 113.5 -42t43.5 -112q0 -68 -44.5 -111.5t-112.5 -43.5h-328v-273h352q168 0 168 -147q0 -160 -168 -160h-512q-76 0 -124 44.5t-48 119.5z" />
<glyph unicode="&#xcb;" horiz-adv-x="948" d="M75 1741q0 69 35 117q38 53 104 59q69 0 117 -36q53 -39 60 -105q0 -68 -36 -117q-38 -53 -104 -59q-69 0 -117 36q-51 38 -59 105zM80 164v1129q0 72 44 119.5t116 47.5h524q156 0 156 -155q0 -152 -156 -152h-352v-264h328q70 0 113.5 -42t43.5 -112 q0 -68 -44.5 -111.5t-112.5 -43.5h-328v-273h352q168 0 168 -147q0 -160 -168 -160h-512q-76 0 -124 44.5t-48 119.5zM546 1741q0 67 40.5 118.5t105.5 57.5q152 0 176 -141q0 -69 -38 -118q-41 -52 -108 -58q-151 0 -176 141z" />
<glyph unicode="&#xcc;" horiz-adv-x="492" d="M-120 1821q0 60 36.5 99.5t95.5 39.5q45 0 92 -20l307 -131q70 -30 70 -113q0 -60 -37 -101.5t-96 -41.5q-46 6 -88 24l-308 131q-72 31 -72 113zM80 164v1133q0 176 168 176q78 0 121 -48t43 -128v-1129q0 -80 -39 -128q-43 -53 -121 -53q-86 0 -129 50t-43 127z" />
<glyph unicode="&#xcd;" horiz-adv-x="492" d="M16 1696q0 82 72 113l305 131q47 20 92 20q59 0 95 -39.5t36 -99.5q0 -83 -71 -113l-310 -131q-38 -16 -90 -24q-129 13 -129 143zM80 164v1133q0 176 168 176q78 0 121 -48t43 -128v-1129q0 -80 -39 -128q-43 -53 -121 -53q-86 0 -129 50t-43 127z" />
<glyph unicode="&#xce;" horiz-adv-x="492" d="M-173 1680q0 106 109 155l181 82q95 43 127 43q35 0 129 -43l180 -82q61 -28 83.5 -60t22.5 -95q0 -48 -28 -84q-31 -39 -78 -39t-113 30l-196 89l-195 -89q-66 -30 -113 -30t-79 39q-30 36 -30 84zM80 164v1133q0 176 168 176q78 0 121 -48t43 -128v-1129 q0 -80 -39 -128q-43 -53 -121 -53q-86 0 -129 50t-43 127z" />
<glyph unicode="&#xcf;" horiz-adv-x="492" d="M-144 1737q0 69 35 117q38 53 104 59q69 0 117 -36q53 -39 60 -105q0 -68 -36 -117q-38 -53 -104 -59q-69 0 -117 36q-51 38 -59 105zM80 164v1133q0 176 168 176q78 0 121 -48t43 -128v-1129q0 -80 -39 -128q-43 -53 -121 -53q-86 0 -129 50t-43 127zM327 1737 q0 67 40.5 118.5t105.5 57.5q152 0 176 -141q0 -69 -38 -118q-41 -52 -108 -58q-151 0 -176 141z" />
<glyph unicode="&#xd0;" horiz-adv-x="1440" d="M43 735q0 366 250 586q195 172 471 172q220 0 373 -72q77 -36 131.5 -104t54.5 -145q0 -123 -143 -140q-60 10 -150 66l-69 43q-69 43 -189 43q-166 0 -273 -135q-50 -62 -75 -146q-24 -79 -24 -172q0 -258 163 -388q82 -66 205 -66q201 0 275 155q29 62 37 123h-195 q-112 0 -155 99q-13 28 -13 59q0 60 45 106t119 46h366q177 0 177 -185q0 -240 -111 -424q-84 -138 -242 -216q-149 -73 -319 -73q-155 0 -307 66q-197 86 -304 289q-98 184 -98 413zM366 2045q0 45 36 73q33 27 79 27q82 0 109 -70q41 -107 160 -107q57 0 91 31t58 86 q26 60 94 60q51 0 85 -24q40 -28 40 -76q0 -108 -98 -173q-105 -70 -229 -79l-54 -4q-75 -6 -177 31q-194 69 -194 225z" />
<glyph unicode="&#xd1;" horiz-adv-x="1405" d="M80 164v1133q0 74 43.5 123t116.5 49q77 0 172 -97l616 -768h4v697q0 74 43.5 123t116.5 49q80 0 126 -46t46 -126v-1129q0 -80 -44 -131q-46 -54 -124 -54q-84 0 -168 105l-616 768v-704q0 -81 -50 -125t-130 -44q-71 0 -113 54q-39 50 -39 123zM278 1676q0 80 47 146 q50 70 125 87q94 0 275 -63q94 -33 123 -33l16 4q23 3 41 15l42 35q11 10 42 32q18 10 43 10q52 0 85 -41q30 -38 30 -92q0 -76 -51 -140t-125 -79q-76 0 -134 16.5t-139 46.5q-90 33 -114 33q-39 0 -71 -25q-21 -20 -64 -56q-20 -12 -50 -15q-49 0 -85 35t-36 84z" />
<glyph unicode="&#xd2;" horiz-adv-x="1481" d="M43 727q0 442 299 646q177 120 418 120q327 0 522 -209t195 -557q0 -346 -197 -553t-520 -207q-325 0 -521 209t-196 551zM392 1825q0 60 36.5 99.5t95.5 39.5q45 0 92 -20l307 -131q70 -30 70 -113q0 -60 -37 -101.5t-96 -41.5q-46 6 -88 24l-308 131q-72 31 -72 113z M400 727q0 -189 84 -310q96 -140 276 -140q238 0 323 228q38 102 38 222q0 271 -157 394q-82 63 -204 63q-124 0 -213 -71q-73 -60 -109 -159q-38 -104 -38 -227z" />
<glyph unicode="&#xd3;" horiz-adv-x="1481" d="M43 727q0 442 299 646q177 120 418 120q327 0 522 -209t195 -557q0 -346 -197 -553t-520 -207q-325 0 -521 209t-196 551zM400 727q0 -189 84 -310q96 -140 276 -140q238 0 323 228q38 102 38 222q0 271 -157 394q-82 63 -204 63q-124 0 -213 -71q-73 -60 -109 -159 q-38 -104 -38 -227zM532 1696q0 82 72 113l305 131q47 20 92 20q59 0 95 -39.5t36 -99.5q0 -83 -71 -113l-310 -131q-38 -16 -90 -24q-129 13 -129 143z" />
<glyph unicode="&#xd4;" horiz-adv-x="1481" d="M43 727q0 442 299 646q177 120 418 120q327 0 522 -209t195 -557q0 -346 -197 -553t-520 -207q-325 0 -521 209t-196 551zM343 1680q0 106 109 155l181 82q95 43 127 43q35 0 129 -43l180 -82q61 -28 83.5 -60t22.5 -95q0 -48 -28 -84q-31 -39 -78 -39t-113 30l-196 89 l-195 -89q-66 -30 -113 -30t-79 39q-30 36 -30 84zM400 727q0 -189 84 -310q96 -140 276 -140q238 0 323 228q38 102 38 222q0 271 -157 394q-82 63 -204 63q-124 0 -213 -71q-73 -60 -109 -159q-38 -104 -38 -227z" />
<glyph unicode="&#xd5;" horiz-adv-x="1481" d="M43 727q0 442 299 646q177 120 418 120q327 0 522 -209t195 -557q0 -346 -197 -553t-520 -207q-325 0 -521 209t-196 551zM323 1676q0 80 47 146q50 70 125 87q94 0 275 -63q94 -33 123 -33l16 4q23 3 41 15l42 35q11 10 42 32q18 10 43 10q52 0 85 -41q30 -38 30 -92 q0 -76 -51 -140t-125 -79q-76 0 -134 16.5t-139 46.5q-90 33 -114 33q-39 0 -71 -25q-21 -20 -64 -56q-20 -12 -50 -15q-49 0 -85 35t-36 84zM400 727q0 -189 84 -310q96 -140 276 -140q238 0 323 228q38 102 38 222q0 271 -157 394q-82 63 -204 63q-124 0 -213 -71 q-73 -60 -109 -159q-38 -104 -38 -227z" />
<glyph unicode="&#xd6;" horiz-adv-x="1481" d="M43 727q0 442 299 646q177 120 418 120q327 0 522 -209t195 -557q0 -346 -197 -553t-520 -207q-325 0 -521 209t-196 551zM360 1728q0 69 35 117q38 53 104 59q69 0 117 -36q53 -39 60 -105q0 -68 -36 -117q-38 -53 -104 -59q-69 0 -117 36q-51 38 -59 105zM400 727 q0 -189 84 -310q96 -140 276 -140q238 0 323 228q38 102 38 222q0 271 -157 394q-82 63 -204 63q-124 0 -213 -71q-73 -60 -109 -159q-38 -104 -38 -227zM831 1728q0 67 40.5 118.5t105.5 57.5q152 0 176 -141q0 -69 -38 -118q-41 -52 -108 -58q-151 0 -176 141z" />
<glyph unicode="&#xd7;" horiz-adv-x="2042" />
<glyph unicode="&#xd8;" horiz-adv-x="1481" d="M13 0q0 46 47 105l129 135q-146 205 -146 487q0 442 299 646q177 120 418 120q260 0 440 -137l127 143q44 50 84 50q97 0 97 -80q0 -53 -48 -105l-129 -139q146 -203 146 -498q0 -346 -197 -553t-520 -207q-257 0 -440 138l-123 -138q-42 -47 -88 -51q-96 0 -96 84z M396 727q0 -95 40 -211l541 596q-89 72 -217 72q-232 0 -321 -234q-43 -113 -43 -223zM545 353q82 -80 211 -80q186 0 281 143q84 127 84 311q0 140 -37 221z" />
<glyph unicode="&#xd9;" horiz-adv-x="1405" d="M68 588v709q0 85 45.5 130.5t122.5 45.5q78 0 121 -48.5t43 -127.5v-709q0 -133 84 -216t217 -83q137 0 220 81.5t83 217.5v709q0 79 43 127.5t121 48.5q71 0 121 -48q47 -45 47 -128v-709q0 -178 -75 -318q-80 -150 -231 -228q-143 -75 -329 -75q-176 0 -317 71 q-153 76 -236 220q-80 139 -80 330zM343 1817q0 60 36.5 99.5t95.5 39.5q45 0 92 -20l307 -131q70 -30 70 -113q0 -60 -37 -101.5t-96 -41.5q-46 6 -88 24l-308 131q-72 31 -72 113z" />
<glyph unicode="&#xda;" horiz-adv-x="1405" d="M68 588v709q0 85 45.5 130.5t122.5 45.5q78 0 121 -48.5t43 -127.5v-709q0 -133 84 -216t217 -83q137 0 220 81.5t83 217.5v709q0 79 43 127.5t121 48.5q71 0 121 -48q47 -45 47 -128v-709q0 -178 -75 -318q-80 -150 -231 -228q-143 -75 -329 -75q-176 0 -317 71 q-153 76 -236 220q-80 139 -80 330zM475 1704q0 82 72 113l305 131q47 20 92 20q59 0 95 -39.5t36 -99.5q0 -83 -71 -113l-310 -131q-38 -16 -90 -24q-129 13 -129 143z" />
<glyph unicode="&#xdb;" horiz-adv-x="1405" d="M68 588v709q0 85 45.5 130.5t122.5 45.5q78 0 121 -48.5t43 -127.5v-709q0 -133 84 -216t217 -83q137 0 220 81.5t83 217.5v709q0 79 43 127.5t121 48.5q71 0 121 -48q47 -45 47 -128v-709q0 -178 -75 -318q-80 -150 -231 -228q-143 -75 -329 -75q-176 0 -317 71 q-153 76 -236 220q-80 139 -80 330zM282 1680q0 106 109 155l181 82q95 43 127 43q35 0 129 -43l180 -82q61 -28 83.5 -60t22.5 -95q0 -48 -28 -84q-31 -39 -78 -39t-113 30l-196 89l-195 -89q-66 -30 -113 -30t-79 39q-30 36 -30 84z" />
<glyph unicode="&#xdc;" horiz-adv-x="1405" d="M68 588v709q0 85 45.5 130.5t122.5 45.5q78 0 121 -48.5t43 -127.5v-709q0 -133 84 -216t217 -83q137 0 220 81.5t83 217.5v709q0 79 43 127.5t121 48.5q71 0 121 -48q47 -45 47 -128v-709q0 -178 -75 -318q-80 -150 -231 -228q-143 -75 -329 -75q-176 0 -317 71 q-153 76 -236 220q-80 139 -80 330zM311 1745q0 69 35 117q38 53 104 59q69 0 117 -36q53 -39 60 -105q0 -68 -36 -117q-38 -53 -104 -59q-69 0 -117 36q-51 38 -59 105zM782 1745q0 67 40.5 118.5t105.5 57.5q152 0 176 -141q0 -69 -38 -118q-41 -52 -108 -58 q-151 0 -176 141z" />
<glyph unicode="&#xdd;" horiz-adv-x="492" d="M80 164v1133q0 176 168 176q78 0 121 -48t43 -128v-1129q0 -80 -39 -128q-43 -53 -121 -53q-86 0 -129 50t-43 127zM96 1973q0 63 45 107.5t108 44.5t108.5 -45t45.5 -107t-46 -108.5t-108 -46.5q-63 0 -108 45.5t-45 109.5z" />
<glyph unicode="&#xde;" horiz-adv-x="1100" d="M8 209q8 73 47 121q44 55 113 55q38 0 104 -23l115 -40q51 -18 105 -23q24 0 33 -2q65 0 122 35q54 33 54 96q0 104 -181 160l-97 30q-136 42 -212 85q-142 80 -167 242q-7 45 -7 104q0 147 76 251.5t219 155.5q104 37 240 37q211 0 333 -90q68 -51 68 -135 q0 -67 -42 -108q-45 -44 -112 -44q-32 5 -134 33q-84 23 -136 23q-144 0 -158 -107q0 -52 31 -75q27 -20 106 -48q9 -3 17 -6l175 -58q206 -68 289 -207q52 -87 52 -214q0 -196 -104 -313q-157 -177 -445 -177q-233 0 -399 93q-96 54 -105 149zM278 -343q0 69 43 80 q8 0 13 4l50 -17q41 -14 62 -14q64 0 72 56q0 44 -19 51q-23 8 -70 14q-50 6 -59 31q-2 9 -8 20q41 73 88 131l131 -16l-55 -76l49 4q164 -21 164 -159q0 -121 -142 -167q-67 -22 -130 -22q-174 0 -189 80z" />
<glyph unicode="&#xdf;" horiz-adv-x="1141" d="M76 160v936q0 136 56 240q53 100 153 163q124 78 278 78q191 0 324 -117q137 -123 137 -311q0 -179 -127 -276q118 -47 181 -160q59 -104 59 -238q0 -138 -80 -270q-143 -238 -405 -238q-70 0 -113 28q-46 31 -55 81l-9 49q0 133 154 152q73 0 127 70q49 63 49 145 q0 171 -196 205q-144 25 -144 151q0 67 31 100q27 27 96 48q109 33 109 133q0 64 -42 103.5t-106 39.5q-157 0 -157 -219v-893q0 -73 -45.5 -120.5t-118.5 -47.5q-71 0 -113.5 48t-42.5 120z" />
<glyph unicode="&#xe0;" d="M29 545q0 168 80 315q61 113 170 187q115 78 229 78q187 0 293 -125q41 100 147 100q72 0 116 -47.5t44 -120.5v-780q0 -65 -39.5 -111.5t-103.5 -53.5q-121 0 -164 101q-97 -121 -272 -121q-297 0 -434 297q-66 143 -66 281zM212 1481q0 60 36.5 99.5t95.5 39.5 q45 0 92 -20l307 -131q70 -30 70 -113q0 -60 -37 -101.5t-96 -41.5q-46 6 -88 24l-308 131q-72 31 -72 113zM348 545q0 -107 55 -183q62 -85 165 -85q141 0 196 132q25 62 25 136q0 112 -53 186q-60 84 -168 84q-100 0 -158 -78q-62 -83 -62 -192z" />
<glyph unicode="&#xe1;" d="M29 545q0 168 80 315q61 113 170 187q115 78 229 78q187 0 293 -125q41 100 147 100q72 0 116 -47.5t44 -120.5v-780q0 -65 -39.5 -111.5t-103.5 -53.5q-121 0 -164 101q-97 -121 -272 -121q-297 0 -434 297q-66 143 -66 281zM348 545q0 -107 55 -183q62 -85 165 -85 q141 0 196 132q25 62 25 136q0 112 -53 186q-60 84 -168 84q-100 0 -158 -78q-62 -83 -62 -192zM356 1356q0 82 72 113l305 131q47 20 92 20q59 0 95 -39.5t36 -99.5q0 -83 -71 -113l-310 -131q-38 -16 -90 -24q-129 13 -129 143z" />
<glyph unicode="&#xe2;" d="M29 545q0 168 80 315q61 113 170 187q115 78 229 78q187 0 293 -125q41 100 147 100q72 0 116 -47.5t44 -120.5v-780q0 -65 -39.5 -111.5t-103.5 -53.5q-121 0 -164 101q-97 -121 -272 -121q-297 0 -434 297q-66 143 -66 281zM175 1340q0 106 109 155l181 82 q95 43 127 43q35 0 129 -43l180 -82q61 -28 83.5 -60t22.5 -95q0 -48 -28 -84q-31 -39 -78 -39t-113 30l-196 89l-195 -89q-66 -30 -113 -30t-79 39q-30 36 -30 84zM348 545q0 -107 55 -183q62 -85 165 -85q141 0 196 132q25 62 25 136q0 112 -53 186q-60 84 -168 84 q-100 0 -158 -78q-62 -83 -62 -192z" />
<glyph unicode="&#xe3;" d="M29 545q0 168 80 315q61 113 170 187q115 78 229 78q187 0 293 -125q41 100 147 100q72 0 116 -47.5t44 -120.5v-780q0 -65 -39.5 -111.5t-103.5 -53.5q-121 0 -164 101q-97 -121 -272 -121q-297 0 -434 297q-66 143 -66 281zM147 1336q0 80 47 146q50 70 125 87 q94 0 275 -63q94 -33 123 -33l16 4q23 3 41 15l42 35q11 10 42 32q18 10 43 10q52 0 85 -41q30 -38 30 -92q0 -76 -51 -140t-125 -79q-76 0 -134 16.5t-139 46.5q-90 33 -114 33q-39 0 -71 -25q-21 -20 -64 -56q-20 -12 -50 -15q-49 0 -85 35t-36 84zM348 545 q0 -107 55 -183q62 -85 165 -85q141 0 196 132q25 62 25 136q0 112 -53 186q-60 84 -168 84q-100 0 -158 -78q-62 -83 -62 -192z" />
<glyph unicode="&#xe4;" d="M29 545q0 168 80 315q61 113 170 187q115 78 229 78q187 0 293 -125q41 100 147 100q72 0 116 -47.5t44 -120.5v-780q0 -65 -39.5 -111.5t-103.5 -53.5q-121 0 -164 101q-97 -121 -272 -121q-297 0 -434 297q-66 143 -66 281zM196 1397q0 69 35 117q38 53 104 59 q69 0 117 -36q53 -39 60 -105q0 -68 -36 -117q-38 -53 -104 -59q-69 0 -117 36q-51 38 -59 105zM348 545q0 -107 55 -183q62 -85 165 -85q141 0 196 132q25 62 25 136q0 112 -53 186q-60 84 -168 84q-100 0 -158 -78q-62 -83 -62 -192zM667 1397q0 67 40.5 118.5t105.5 57.5 q152 0 176 -141q0 -69 -38 -118q-41 -52 -108 -58q-151 0 -176 141z" />
<glyph unicode="&#xe5;" d="M29 545q0 168 80 315q61 113 170 187q115 78 229 78q187 0 293 -125q41 100 147 100q72 0 116 -47.5t44 -120.5v-780q0 -65 -39.5 -111.5t-103.5 -53.5q-121 0 -164 101q-97 -121 -272 -121q-297 0 -434 297q-66 143 -66 281zM348 545q0 -107 55 -183q62 -85 165 -85 q141 0 196 132q25 62 25 136q0 112 -53 186q-60 84 -168 84q-100 0 -158 -78q-62 -83 -62 -192zM385 1368q0 83 60.5 144t142.5 61t143 -61.5t61 -143.5q0 -83 -60.5 -143.5t-143.5 -60.5q-119 0 -177 103q-26 46 -26 101zM495 1368q0 -37 28 -64.5t65 -27.5q36 0 64 28 t28 64q0 37 -27.5 64.5t-64.5 27.5q-59 0 -86 -58q-7 -15 -7 -34z" />
<glyph unicode="&#xe6;" horiz-adv-x="1856" d="M33 545q0 153 59 283q64 140 183 221q112 76 250 76q173 0 272 -125h4q0 125 135 125q87 0 121 -76q103 76 291 76q147 0 266.5 -73.5t188.5 -204.5q65 -126 65 -267q0 -80 -39 -111q-35 -28 -117 -28h-604q0 -88 103 -138q81 -39 178 -39q68 0 116 17q40 14 115 51 q67 33 96 33q59 0 97.5 -41.5t38.5 -100.5q0 -70 -74.5 -130t-185.5 -92q-117 -34 -244 -34q-191 0 -295 74q-47 -74 -121 -74q-131 0 -131 125h-4q-99 -125 -272 -125q-292 0 -427 279q-65 132 -65 299zM353 545q0 -163 101 -236q49 -36 118 -36q106 0 167 86q54 77 54 186 q0 161 -103 235q-50 35 -118 35q-108 0 -167 -84q-52 -74 -52 -186zM1108 660h441q0 96 -107 161q-52 31 -115 31q-79 0 -147 -56q-72 -59 -72 -136z" />
<glyph unicode="&#xe7;" horiz-adv-x="948" d="M29 541q0 110 40 225q38 109 95 174q162 185 436 185q38 0 81 -8q28 -5 78 -18q189 -48 189 -191q0 -56 -32 -98q-34 -46 -88 -46q-9 0 -17 -4q-32 3 -110 30q-71 25 -113 25q-114 0 -177 -82q-58 -75 -58 -192q0 -187 131 -248q24 -11 92 -20q63 0 151 30l41 14 q27 9 43 11q57 0 96 -42q14 -15 23 -31q18 -32 18 -70q0 -142 -208 -196q-87 -22 -164 -22l-60 -76l47 4q168 -23 168 -159q0 -119 -141 -168q-63 -21 -129 -21q-174 0 -188 80q0 8 -4 16q7 64 47 64q8 0 12 4l51 -17q42 -14 62 -14q27 0 47 20.5t20 47.5q0 54 -68 54 q-33 0 -49.5 4t-25.5 26l-8 20l8 23q7 21 16 32l34 42l26 30q-247 55 -358 315q-54 126 -54 247z" />
<glyph unicode="&#xe8;" horiz-adv-x="1100" d="M33 545q0 238 157 406q163 174 402 174q145 0 265 -74t187 -204q64 -126 64 -267q0 -79 -39 -111q-34 -28 -116 -28h-576q0 -92 87 -139q69 -38 169 -38q87 0 231 68q69 33 97 33q58 0 94.5 -41.5t36.5 -100.5q0 -150 -262 -224q-117 -32 -238 -32q-346 0 -491 285 q-68 132 -68 293zM212 1477q0 60 36.5 99.5t95.5 39.5q45 0 92 -20l307 -131q70 -30 70 -113q0 -60 -37 -101.5t-96 -41.5q-46 6 -88 24l-308 131q-72 31 -72 113zM377 660h412q0 93 -101 160q-49 32 -108 32q-74 0 -138.5 -59t-64.5 -133z" />
<glyph unicode="&#xe9;" horiz-adv-x="1100" d="M33 545q0 238 157 406q163 174 402 174q145 0 265 -74t187 -204q64 -126 64 -267q0 -79 -39 -111q-34 -28 -116 -28h-576q0 -92 87 -139q69 -38 169 -38q87 0 231 68q69 33 97 33q58 0 94.5 -41.5t36.5 -100.5q0 -150 -262 -224q-117 -32 -238 -32q-346 0 -491 285 q-68 132 -68 293zM332 1352q0 82 72 113l305 131q47 20 92 20q59 0 95 -39.5t36 -99.5q0 -83 -71 -113l-310 -131q-38 -16 -90 -24q-129 13 -129 143zM377 660h412q0 93 -101 160q-49 32 -108 32q-74 0 -138.5 -59t-64.5 -133z" />
<glyph unicode="&#xea;" horiz-adv-x="1100" d="M33 545q0 238 157 406q163 174 402 174q145 0 265 -74t187 -204q64 -126 64 -267q0 -79 -39 -111q-34 -28 -116 -28h-576q0 -92 87 -139q69 -38 169 -38q87 0 231 68q69 33 97 33q58 0 94.5 -41.5t36.5 -100.5q0 -150 -262 -224q-117 -32 -238 -32q-346 0 -491 285 q-68 132 -68 293zM147 1340q0 106 109 155l181 82q95 43 127 43q35 0 129 -43l180 -82q61 -28 83.5 -60t22.5 -95q0 -48 -28 -84q-31 -39 -78 -39t-113 30l-196 89l-195 -89q-66 -30 -113 -30t-79 39q-30 36 -30 84zM377 660h412q0 93 -101 160q-49 32 -108 32 q-74 0 -138.5 -59t-64.5 -133z" />
<glyph unicode="&#xeb;" horiz-adv-x="1100" d="M33 545q0 238 157 406q163 174 402 174q145 0 265 -74t187 -204q64 -126 64 -267q0 -79 -39 -111q-34 -28 -116 -28h-576q0 -92 87 -139q69 -38 169 -38q87 0 231 68q69 33 97 33q58 0 94.5 -41.5t36.5 -100.5q0 -150 -262 -224q-117 -32 -238 -32q-346 0 -491 285 q-68 132 -68 293zM176 1401q0 69 35 117q38 53 104 59q69 0 117 -36q53 -39 60 -105q0 -68 -36 -117q-38 -53 -104 -59q-69 0 -117 36q-51 38 -59 105zM377 660h412q0 93 -101 160q-49 32 -108 32q-74 0 -138.5 -59t-64.5 -133zM647 1401q0 67 40.5 118.5t105.5 57.5 q152 0 176 -141q0 -69 -38 -118q-41 -52 -108 -58q-151 0 -176 141z" />
<glyph unicode="&#xec;" horiz-adv-x="457" d="M-140 1481q0 60 36.5 99.5t95.5 39.5q45 0 92 -20l307 -131q70 -30 70 -113q0 -60 -37 -101.5t-96 -41.5q-46 6 -88 24l-308 131q-72 31 -72 113zM68 152v784q0 72 44 120t116 48q70 0 114.5 -49t44.5 -119v-784q0 -69 -45 -117t-114 -48q-71 0 -115.5 47t-44.5 118z" />
<glyph unicode="&#xed;" horiz-adv-x="457" d="M-4 1356q0 82 72 113l305 131q47 20 92 20q59 0 95 -39.5t36 -99.5q0 -83 -71 -113l-310 -131q-38 -16 -90 -24q-129 13 -129 143zM68 152v784q0 72 44 120t116 48q70 0 114.5 -49t44.5 -119v-784q0 -69 -45 -117t-114 -48q-71 0 -115.5 47t-44.5 118z" />
<glyph unicode="&#xee;" horiz-adv-x="457" d="M-185 1340q0 106 109 155l181 82q95 43 127 43q35 0 129 -43l180 -82q61 -28 83.5 -60t22.5 -95q0 -48 -28 -84q-31 -39 -78 -39t-113 30l-196 89l-195 -89q-66 -30 -113 -30t-79 39q-30 36 -30 84zM68 152v784q0 72 44 120t116 48q70 0 114.5 -49t44.5 -119v-784 q0 -69 -45 -117t-114 -48q-71 0 -115.5 47t-44.5 118z" />
<glyph unicode="&#xef;" horiz-adv-x="457" d="M-164 1401q0 69 35 117q38 53 104 59q69 0 117 -36q53 -39 60 -105q0 -68 -36 -117q-38 -53 -104 -59q-69 0 -117 36q-51 38 -59 105zM68 152v784q0 72 44 120t116 48q70 0 114.5 -49t44.5 -119v-784q0 -69 -45 -117t-114 -48q-71 0 -115.5 47t-44.5 118zM307 1401 q0 67 40.5 118.5t105.5 57.5q152 0 176 -141q0 -69 -38 -118q-41 -52 -108 -58q-151 0 -176 141z" />
<glyph unicode="&#xf0;" d="M29 541q0 172 80 319q64 117 167 188q112 77 232 77q187 0 293 -125q41 100 147 100q72 0 116 -47.5t44 -120.5v-811q0 -281 -139 -418q-159 -156 -436 -156q-424 0 -482 234q12 116 134 143q20 0 42 -9l51 -21l62 -29q79 -37 185 -37q118 0 191 73t73 191v21h-4 q-90 -126 -285 -126q-282 0 -403 253q-31 65 -49 141q-19 80 -19 160zM212 1646q0 45 36 73q33 27 79 27q82 0 109 -70q41 -107 160 -107q57 0 91 31t58 86q26 60 94 60q51 0 85 -24q40 -28 40 -76q0 -108 -98 -173q-105 -70 -229 -79l-54 -4q-75 -6 -177 31 q-194 69 -194 225zM348 545q0 -158 98 -233q50 -39 122 -39q146 0 197 133q24 62 24 139q0 112 -53 186q-60 84 -168 84q-100 0 -158 -78q-62 -83 -62 -192z" />
<glyph unicode="&#xf1;" horiz-adv-x="1141" d="M72 152v784q0 70 45.5 119t114.5 49q121 0 159 -104q91 125 306 125q147 0 262 -99q106 -91 106 -278v-596q0 -69 -44 -117t-113 -48q-71 0 -115.5 47t-44.5 118v508q0 117 -85 168q-41 24 -91 24q-82 0 -131.5 -54.5t-49.5 -137.5v-508q0 -72 -44 -118.5t-115 -46.5 q-69 0 -114.5 47.5t-45.5 117.5zM135 1336q0 80 47 146q50 70 125 87q94 0 275 -63q94 -33 123 -33l16 4q23 3 41 15l42 35q11 10 42 32q18 10 43 10q52 0 85 -41q30 -38 30 -92q0 -76 -51 -140t-125 -79q-76 0 -134 16.5t-139 46.5q-90 33 -114 33q-39 0 -71 -25 q-21 -20 -64 -56q-20 -12 -50 -15q-49 0 -85 35t-36 84z" />
<glyph unicode="&#xf2;" horiz-adv-x="1141" d="M33 545q0 247 147.5 413.5t391.5 166.5q151 0 276 -78t194 -213q66 -133 66 -289q0 -235 -147 -405q-150 -173 -389 -173q-329 0 -472 283q-67 132 -67 295zM204 1481q0 60 36.5 99.5t95.5 39.5q45 0 92 -20l307 -131q70 -30 70 -113q0 -60 -37 -101.5t-96 -41.5 q-46 6 -88 24l-308 131q-72 31 -72 113zM353 545q0 -107 50 -184q58 -88 160 -88l5 3l4 1q139 0 192 134q25 62 25 134q0 112 -51 186q-59 84 -166 84t-167 -84q-52 -74 -52 -186z" />
<glyph unicode="&#xf3;" horiz-adv-x="1141" d="M33 545q0 247 147.5 413.5t391.5 166.5q151 0 276 -78t194 -213q66 -133 66 -289q0 -235 -147 -405q-150 -173 -389 -173q-329 0 -472 283q-67 132 -67 295zM336 1356q0 82 72 113l305 131q47 20 92 20q59 0 95 -39.5t36 -99.5q0 -83 -71 -113l-310 -131q-38 -16 -90 -24 q-129 13 -129 143zM353 545q0 -107 50 -184q58 -88 160 -88l5 3l4 1q139 0 192 134q25 62 25 134q0 112 -51 186q-59 84 -166 84t-167 -84q-52 -74 -52 -186z" />
<glyph unicode="&#xf4;" horiz-adv-x="1141" d="M33 545q0 247 147.5 413.5t391.5 166.5q151 0 276 -78t194 -213q66 -133 66 -289q0 -235 -147 -405q-150 -173 -389 -173q-329 0 -472 283q-67 132 -67 295zM151 1344q0 106 109 155l181 82q95 43 127 43q35 0 129 -43l180 -82q61 -28 83.5 -60t22.5 -95q0 -48 -28 -84 q-31 -39 -78 -39t-113 30l-196 89l-195 -89q-66 -30 -113 -30t-79 39q-30 36 -30 84zM353 545q0 -107 50 -184q58 -88 160 -88l5 3l4 1q139 0 192 134q25 62 25 134q0 112 -51 186q-59 84 -166 84t-167 -84q-52 -74 -52 -186z" />
<glyph unicode="&#xf5;" horiz-adv-x="1141" d="M33 545q0 247 147.5 413.5t391.5 166.5q151 0 276 -78t194 -213q66 -133 66 -289q0 -235 -147 -405q-150 -173 -389 -173q-329 0 -472 283q-67 132 -67 295zM131 1340q0 80 47 146q50 70 125 87q94 0 275 -63q94 -33 123 -33l16 4q23 3 41 15l42 35q11 10 42 32 q18 10 43 10q52 0 85 -41q30 -38 30 -92q0 -76 -51 -140t-125 -79q-76 0 -134 16.5t-139 46.5q-90 33 -114 33q-39 0 -71 -25q-21 -20 -64 -56q-20 -12 -50 -15q-49 0 -85 35t-36 84zM353 545q0 -107 50 -184q58 -88 160 -88l5 3l4 1q139 0 192 134q25 62 25 134 q0 112 -51 186q-59 84 -166 84t-167 -84q-52 -74 -52 -186z" />
<glyph unicode="&#xf6;" horiz-adv-x="1141" d="M33 545q0 247 147.5 413.5t391.5 166.5q151 0 276 -78t194 -213q66 -133 66 -289q0 -235 -147 -405q-150 -173 -389 -173q-329 0 -472 283q-67 132 -67 295zM176 1405q0 69 35 117q38 53 104 59q69 0 117 -36q53 -39 60 -105q0 -68 -36 -117q-38 -53 -104 -59 q-69 0 -117 36q-51 38 -59 105zM353 545q0 -107 50 -184q58 -88 160 -88l5 3l4 1q139 0 192 134q25 62 25 134q0 112 -51 186q-59 84 -166 84t-167 -84q-52 -74 -52 -186zM647 1405q0 67 40.5 118.5t105.5 57.5q152 0 176 -141q0 -69 -38 -118q-41 -52 -108 -58 q-151 0 -176 141z" />
<glyph unicode="&#xf7;" horiz-adv-x="2042" />
<glyph unicode="&#xf8;" horiz-adv-x="1141" d="M-17 13q0 31 34 67l114 121q-98 140 -98 344q0 344 256 504q121 76 279 76q192 0 335 -117l74 76q69 71 103 71q32 0 53.5 -21.5t21.5 -53.5q0 -40 -30 -72l-113 -119q96 -146 96 -344q0 -340 -256 -501q-123 -77 -284 -77q-184 0 -332 113l-76 -72q-63 -72 -100 -72 q-33 0 -55 22t-22 55zM348 545q9 -73 17 -100l323 336q-44 34 -120 34q-98 0 -158 -83q-52 -72 -62 -187zM457 307q50 -28 111 -34q105 0 167 88q54 79 54 188q0 62 -13 94z" />
<glyph unicode="&#xf9;" horiz-adv-x="1141" d="M72 391v545q0 70 45 119t115 49t114.5 -48.5t44.5 -119.5v-495q0 -80 48.5 -128.5t128.5 -48.5q79 0 129.5 49t50.5 128v495q0 70 43 119t112 49q71 0 116.5 -48t45.5 -120v-545q0 -276 -244 -377q-112 -47 -253 -47q-214 0 -348 103q-148 114 -148 321zM204 1481 q0 60 36.5 99.5t95.5 39.5q45 0 92 -20l307 -131q70 -30 70 -113q0 -60 -37 -101.5t-96 -41.5q-46 6 -88 24l-308 131q-72 31 -72 113z" />
<glyph unicode="&#xfa;" horiz-adv-x="1141" d="M72 391v545q0 70 45 119t115 49t114.5 -48.5t44.5 -119.5v-495q0 -80 48.5 -128.5t128.5 -48.5q79 0 129.5 49t50.5 128v495q0 70 43 119t112 49q71 0 116.5 -48t45.5 -120v-545q0 -276 -244 -377q-112 -47 -253 -47q-214 0 -348 103q-148 114 -148 321zM340 1356 q0 82 72 113l305 131q47 20 92 20q59 0 95 -39.5t36 -99.5q0 -83 -71 -113l-310 -131q-38 -16 -90 -24q-129 13 -129 143z" />
<glyph unicode="&#xfb;" horiz-adv-x="1141" d="M72 391v545q0 70 45 119t115 49t114.5 -48.5t44.5 -119.5v-495q0 -80 48.5 -128.5t128.5 -48.5q79 0 129.5 49t50.5 128v495q0 70 43 119t112 49q71 0 116.5 -48t45.5 -120v-545q0 -276 -244 -377q-112 -47 -253 -47q-214 0 -348 103q-148 114 -148 321zM151 1340 q0 106 109 155l181 82q95 43 127 43q35 0 129 -43l180 -82q61 -28 83.5 -60t22.5 -95q0 -48 -28 -84q-31 -39 -78 -39t-113 30l-196 89l-195 -89q-66 -30 -113 -30t-79 39q-30 36 -30 84z" />
<glyph unicode="&#xfc;" horiz-adv-x="1141" d="M72 391v545q0 70 45 119t115 49t114.5 -48.5t44.5 -119.5v-495q0 -80 48.5 -128.5t128.5 -48.5q79 0 129.5 49t50.5 128v495q0 70 43 119t112 49q71 0 116.5 -48t45.5 -120v-545q0 -276 -244 -377q-112 -47 -253 -47q-214 0 -348 103q-148 114 -148 321zM176 1401 q0 69 35 117q38 53 104 59q69 0 117 -36q53 -39 60 -105q0 -68 -36 -117q-38 -53 -104 -59q-69 0 -117 36q-51 38 -59 105zM647 1401q0 67 40.5 118.5t105.5 57.5q152 0 176 -141q0 -69 -38 -118q-41 -52 -108 -58q-151 0 -176 141z" />
<glyph unicode="&#xfd;" horiz-adv-x="457" d="M68 152v784q0 72 44 120t116 48q70 0 114.5 -49t44.5 -119v-784q0 -69 -45 -117t-114 -48q-71 0 -115.5 47t-44.5 118z" />
<glyph unicode="&#xfe;" horiz-adv-x="873" d="M21 189q0 62 32 106q35 49 95 49q58 0 154 -48q43 -21 87 -37q28 -11 68 -11q92 0 92 64q0 40 -49 67q-8 5 -83 35l-118 47q-175 70 -224 163q-28 53 -28 136q0 205 198 313q97 52 216 52q124 0 232 -52q135 -65 135 -176q0 -59 -36.5 -98t-94.5 -39q-22 0 -58 15l-69 29 l-65 25q-29 11 -64 11q-84 0 -84 -68q0 -39 75 -71q34 -13 87 -34q26 -11 98 -41q239 -98 239 -302q0 -219 -205 -314q-94 -43 -206 -43q-205 0 -332 80q-92 58 -92 142zM185 -363q0 69 43 80q8 0 13 4l50 -17q41 -14 62 -14q64 0 72 56q0 44 -19 51q-23 8 -70 14 q-50 6 -59 31q-2 9 -8 20q41 73 88 131l131 -16l-55 -76l49 4q164 -21 164 -159q0 -121 -142 -167q-67 -22 -130 -22q-174 0 -189 80z" />
<glyph unicode="&#xff;" horiz-adv-x="983" d="M0 953q0 65 45 106t111 41q118 0 164 -119l188 -485l189 452q64 152 163 152q69 0 116.5 -44t47.5 -112q0 -52 -24 -108l-496 -1152q-59 -137 -168 -137q-126 0 -156 150q9 56 29 102l131 306l-307 739q-33 79 -33 109zM116 1401q0 69 35 117q38 53 104 59q69 0 117 -36 q53 -39 60 -105q0 -68 -36 -117q-38 -53 -104 -59q-69 0 -117 36q-51 38 -59 105zM587 1401q0 67 40.5 118.5t105.5 57.5q152 0 176 -141q0 -69 -38 -118q-41 -52 -108 -58q-151 0 -176 141z" />
<glyph unicode="&#x152;" horiz-adv-x="1972" d="M41 733l2 60q3 86 20 153q15 60 49 138q113 262 368 361q123 48 268 48q132 0 210 -21q97 -26 183 -100q27 88 123 88h528q71 0 115.5 -44t44.5 -115q0 -69 -49 -110q-45 -38 -115 -38h-348v-264h305q176 0 176 -154q0 -68 -42.5 -111.5t-110.5 -43.5h-328v-273h356 q160 0 160 -159q0 -71 -50 -111q-45 -37 -118 -37h-487q-135 0 -168 92q-154 -125 -398 -125q-162 0 -313 77q-254 129 -341 420q-44 147 -40 269zM400 725q0 -261 148 -382q80 -66 208 -66q183 0 275 138q77 117 77 306q0 463 -348 463q-188 0 -281 -141q-79 -120 -79 -318 z" />
<glyph unicode="&#x153;" horiz-adv-x="1856" d="M33 545q0 339 255 501q125 79 275 79q128 0 227.5 -36t186.5 -112q148 148 371 148q147 0 266.5 -73.5t188.5 -204.5q65 -126 65 -267q0 -80 -39 -111q-35 -28 -117 -28h-604q0 -88 103 -138q81 -39 178 -39q68 0 116 17q40 14 115 51q67 33 96 33q59 0 97.5 -41.5 t38.5 -100.5q0 -70 -74.5 -130t-185.5 -92q-117 -34 -244 -34q-249 0 -391 150q-156 -150 -389 -150q-113 0 -208 42q-157 69 -244 218q-83 142 -83 318zM353 545q0 -163 101 -236q49 -36 118 -36q106 0 167 86q54 77 54 186q0 161 -103 235q-50 35 -118 35q-108 0 -167 -84 q-52 -74 -52 -186zM1108 660h441q0 96 -107 161q-52 31 -115 31q-79 0 -147 -56q-72 -59 -72 -136z" />
<glyph unicode="&#x2c6;" horiz-adv-x="457" d="M-189 1340q0 106 109 155l181 82q95 43 127 43q35 0 129 -43l180 -82q61 -28 83.5 -60t22.5 -95q0 -48 -28 -84q-31 -39 -78 -39t-113 30l-196 89l-195 -89q-66 -30 -113 -30t-79 39q-30 36 -30 84z" />
<glyph unicode="&#x2dc;" horiz-adv-x="457" d="M-209 1336q0 80 47 146q50 70 125 87q94 0 275 -63q94 -33 123 -33l16 4q23 3 41 15l42 35q11 10 42 32q18 10 43 10q52 0 85 -41q30 -38 30 -92q0 -76 -51 -140t-125 -79q-76 0 -134 16.5t-139 46.5q-90 33 -114 33q-39 0 -71 -25q-21 -20 -64 -56q-20 -12 -50 -15 q-49 0 -85 35t-36 84z" />
<glyph unicode="&#x2000;" horiz-adv-x="1072" />
<glyph unicode="&#x2001;" horiz-adv-x="2145" />
<glyph unicode="&#x2002;" horiz-adv-x="1072" />
<glyph unicode="&#x2003;" horiz-adv-x="2145" />
<glyph unicode="&#x2004;" horiz-adv-x="715" />
<glyph unicode="&#x2005;" horiz-adv-x="536" />
<glyph unicode="&#x2006;" horiz-adv-x="357" />
<glyph unicode="&#x2007;" horiz-adv-x="357" />
<glyph unicode="&#x2008;" horiz-adv-x="268" />
<glyph unicode="&#x2009;" horiz-adv-x="429" />
<glyph unicode="&#x200a;" horiz-adv-x="119" />
<glyph unicode="&#x2010;" horiz-adv-x="797" d="M47 568q0 52 47 96q44 41 115 41h455q65 0 107 -35q44 -38 44 -102q0 -62 -46 -98q-42 -34 -105 -34h-455q-73 0 -116 38q-46 40 -46 94z" />
<glyph unicode="&#x2011;" horiz-adv-x="797" d="M47 568q0 52 47 96q44 41 115 41h455q65 0 107 -35q44 -38 44 -102q0 -62 -46 -98q-42 -34 -105 -34h-455q-73 0 -116 38q-46 40 -46 94z" />
<glyph unicode="&#x2012;" horiz-adv-x="797" d="M47 568q0 52 47 96q44 41 115 41h455q65 0 107 -35q44 -38 44 -102q0 -62 -46 -98q-42 -34 -105 -34h-455q-73 0 -116 38q-46 40 -46 94z" />
<glyph unicode="&#x2013;" horiz-adv-x="1024" d="M0 572q0 61 35.5 99t95.5 38h758q135 0 135 -129q0 -144 -131 -144h-753q-140 0 -140 136z" />
<glyph unicode="&#x2014;" horiz-adv-x="2048" d="M-135 572q0 62 36.5 99.5t98.5 37.5h2048q135 0 135 -137q0 -136 -135 -136h-2048q-135 0 -135 136z" />
<glyph unicode="&#x2018;" horiz-adv-x="492" d="M4 973q8 57 25 88l186 336q44 80 129 80q62 0 107 -44.5t45 -105.5q0 -37 -21 -75l-186 -336q-49 -88 -137 -88q-57 0 -101 42q-47 45 -47 103z" />
<glyph unicode="&#x2019;" horiz-adv-x="492" d="M4 973q8 57 25 88l186 336q44 80 129 80q62 0 107 -44.5t45 -105.5q0 -37 -21 -75l-186 -336q-49 -88 -137 -88q-57 0 -101 42q-47 45 -47 103z" />
<glyph unicode="&#x201a;" horiz-adv-x="2042" />
<glyph unicode="&#x201c;" horiz-adv-x="908" d="M4 973q8 57 25 88l186 336q44 80 129 80q62 0 107 -44.5t45 -105.5q0 -37 -21 -75l-186 -336q-49 -88 -137 -88q-57 0 -101 42q-47 45 -47 103zM457 977q6 38 22 84l193 336q46 80 129 80q61 0 106.5 -44.5t45.5 -105.5q0 -38 -21 -75l-192 -336q-50 -88 -136 -88 q-57 0 -100 43q-47 47 -47 106z" />
<glyph unicode="&#x201d;" horiz-adv-x="908" d="M4 973q8 57 25 88l186 336q44 80 129 80q62 0 107 -44.5t45 -105.5q0 -37 -21 -75l-186 -336q-49 -88 -137 -88q-57 0 -101 42q-47 45 -47 103zM457 977q6 38 22 84l193 336q46 80 129 80q61 0 106.5 -44.5t45.5 -105.5q0 -38 -21 -75l-192 -336q-50 -88 -136 -88 q-57 0 -100 43q-47 47 -47 106z" />
<glyph unicode="&#x201e;" horiz-adv-x="908" d="M4 -168q8 49 25 80l186 340q42 76 129 76q64 0 108 -42t44 -106q0 -37 -21 -75l-186 -337q-46 -84 -137 -84q-57 0 -101 42q-47 45 -47 106zM457 -168q6 34 22 80l193 340q43 76 129 76q64 0 108 -42t44 -106q0 -38 -21 -75l-192 -337q-48 -84 -136 -84q-57 0 -102 43 t-45 105z" />
<glyph unicode="&#x2022;" horiz-adv-x="1024" d="M148 727q0 213 183 317q85 48 181 48q125 0 222 -74.5t130 -194.5q13 -47 13 -96q0 -209 -182 -313q-85 -49 -183 -49q-209 0 -315 181q-49 83 -49 181z" />
<glyph unicode="&#x2026;" horiz-adv-x="2048" d="M164 144q0 75 53 127.5t127 52.5q73 0 124.5 -53t51.5 -127t-51.5 -125.5t-124.5 -51.5q-75 0 -127.5 51t-52.5 126zM844 144q0 75 53 127.5t127 52.5q73 0 124.5 -53t51.5 -127t-51.5 -125.5t-124.5 -51.5q-75 0 -127.5 51t-52.5 126zM1528 144q0 75 53 127.5t127 52.5 q73 0 124.5 -53t51.5 -127t-51.5 -125.5t-124.5 -51.5q-75 0 -127.5 51t-52.5 126z" />
<glyph unicode="&#x202f;" horiz-adv-x="429" />
<glyph unicode="&#x2039;" horiz-adv-x="609" d="M148 576q0 105 88 168l180 129q49 35 88 35q43 0 74 -35.5t31 -79.5q0 -69 -56 -105l-180 -116l182 -123q34 -23 43 -38q11 -20 11 -50q0 -92 -109 -129q-38 7 -92 45l-172 123q-88 63 -88 176z" />
<glyph unicode="&#x203a;" horiz-adv-x="609" d="M148 344l9 43q9 42 52 70l176 115l-184 125q-48 33 -53 88q0 51 29 87t79 36q43 0 97 -39l172 -125q65 -48 83 -120q5 -24 5 -56q0 -106 -88 -168l-181 -127q-50 -35 -96 -41l-12 4q-88 11 -88 108z" />
<glyph unicode="&#x205f;" horiz-adv-x="536" />
<glyph unicode="&#x2122;" horiz-adv-x="2048" d="M84 1368q0 92 101 92h507q97 0 97 -92t-97 -92h-133v-549q0 -71 -41 -100q-44 -31 -82 -31q-56 0 -90 37t-34 94v549h-127q-42 0 -71.5 25.5t-29.5 66.5zM920 727v561q0 84 44.5 134.5t127.5 50.5q153 0 217 -160l135 -340l133 340q63 160 219 160q168 0 168 -185v-561 q0 -56 -32.5 -93.5t-88.5 -37.5t-89 37t-33 94v385h-5l-147 -407q-39 -109 -125 -109q-83 0 -123 109l-149 407h-4v-385q0 -55 -34 -93t-89 -38q-57 0 -91 37t-34 94z" />
<glyph unicode="&#xe000;" horiz-adv-x="1105" d="M0 0v1105h1105v-1105h-1105z" />
</font>
</defs>
</svg>
